<svg xml:space="preserve" width="256" height="256"><path fill="#c0bfbc" d="M195.29 29.97c-2.053.053-4.204.533-6.354 1.47-21.675 9.435-53.19 18.375-62.02 3.08l-.123.033q.088.102.154.217a1 1 0 0 1 .096.222l8.47 31.617.008.028.012.04.004.018v.002h.002v.002l.74 2.762c5.435.713 11.065.615 16.278.13 2.174-.201 4.388 1.269 4.953 3.378l5.047 18.838c.565 2.109-.73 4.06-2.905 4.261-5.206.484-10.84.583-16.279-.13l7.438 27.76-.342-1.284c5.434.713 11.065.615 16.277.13 2.174-.2 4.386 1.267 4.951 3.376l5.05 18.84c.564 2.109-.733 4.059-2.907 4.261-6.55.611-12.754.52-18.319-.437.652-1.431.87-3.367.622-4.873-4.183-1.112-10.812-1.179-18.334-.67l5.171 19.303q.36 1.335.897 2.515c-.04-1.663.386-3.549 1.242-4.7a36.5 36.5 0 0 1 3.342-3.872q.57-.576 1.17-1.139l3.99 14.893c.528 1.97-.523 3.12-2.226 2.418 9.246 4.824 23.994 4.041 36.777 1.926-1.963.043-3.85-1.345-4.365-3.27l-5.014-18.717c-.565-2.109.733-4.046 2.887-4.406 7.282-1.218 14.28-3.078 20.394-5.033.39-.125.781-.187 1.164-.191 1.66-.018 3.152 1.05 3.612 2.763l5.046 18.838c.566 2.11-.647 4.403-2.728 5.065a145 145 0 0 1-7.08 2.056c2.89-.715 5.362-1.396 7.234-1.937 6.973-2.016 13.935-4.719 20.494-7.865 5.558-2.667 8.563-10.065 6.967-16.02l-4.193-15.65c-7.143 3.84-14.98 7.384-23.041 10.363-2.048.757-4.181-.38-4.746-2.488l-5.05-18.836c-.564-2.11.654-4.394 2.702-5.15 8.06-2.98 15.898-6.526 23.041-10.366l-7.094-26.475c-7.143 3.84-14.982 7.384-23.043 10.364-2.048.757-4.18-.38-4.746-2.489l-5.047-18.837-1.023-3.819s1.675-.573 3.723-1.33c8.059-2.98 15.898-6.527 23.04-10.367l-2.753-10.28c-1.822-6.799-7.106-10.494-13.264-10.337m-20.349 7.176c1.65-.043 3.135 1.006 3.594 2.72l4.985 18.599c.565 2.109-.65 4.402-2.729 5.066-5.744 1.836-12.832 3.766-20.395 5.032-2.153.36-4.368-1.124-4.933-3.233l-4.983-18.594c-.565-2.109.743-3.954 2.905-4.26 6.54-.923 13.575-2.809 20.398-5.119a4 4 0 0 1 1.158-.21M122.815 87.09c.352.015.691.05 1.04.07-.18-.01-.346-.037-.526-.047zm66.233 2.728c1.659-.017 3.152 1.048 3.611 2.762l5.049 18.84c.565 2.11-.649 4.4-2.729 5.064-5.744 1.836-12.833 3.768-20.396 5.034-2.154.36-4.368-1.124-4.934-3.233l-5.046-18.838c-.566-2.109.733-4.044 2.886-4.404 7.282-1.218 14.28-3.08 20.395-5.035a4 4 0 0 1 1.164-.19M78.127 157.701" paint-order="fill markers stroke"/><path d="M174.943 37.141a4 4 0 0 0-1.158.211c-6.823 2.31-13.858 4.197-20.398 5.12-2.162.305-3.47 2.15-2.904 4.26l4.982 18.593c.565 2.11 2.78 3.592 4.934 3.232 7.562-1.265 14.65-3.195 20.394-5.031 2.08-.663 3.294-2.957 2.73-5.066l-4.986-18.6c-.46-1.715-1.944-2.762-3.594-2.719m36.367 13.441c-7.143 3.841-14.982 7.388-23.042 10.367-2.048.758-3.724 1.331-3.724 1.331l6.071 22.656c.565 2.11 2.699 3.246 4.747 2.489 8.06-2.98 15.899-6.523 23.042-10.364l-.008-.03zm-75.028 18.874 6.05 22.584 1.043 3.892c5.439.713 11.073.615 16.28.131 2.174-.202 3.468-2.152 2.903-4.261l-5.046-18.838c-.566-2.11-2.779-3.579-4.953-3.377-5.213.484-10.844.582-16.278-.131m52.768 20.356a4 4 0 0 0-1.163.19c-6.114 1.955-13.113 3.817-20.395 5.034-2.153.36-3.453 2.295-2.887 4.405l5.047 18.837c.566 2.11 2.78 3.593 4.933 3.233 7.563-1.266 14.654-3.198 20.397-5.033 2.08-.665 3.295-2.956 2.73-5.066l-5.05-18.839a3.67 3.67 0 0 0-3.612-2.76m36.448 13.723c-7.143 3.84-14.98 7.386-23.04 10.366-2.049.756-3.267 3.04-2.702 5.15l5.048 18.836c.566 2.11 2.7 3.246 4.747 2.489 8.06-2.98 15.898-6.524 23.041-10.365zM150.47 122.41l.47 1.762 5.237 19.542-.034-.008c.25 1.507.03 3.442-.621 4.874 5.565.957 11.768 1.047 18.319.437 2.174-.202 3.471-2.153 2.906-4.261l-5.048-18.841c-.566-2.11-2.778-3.577-4.952-3.375-5.212.484-10.844.582-16.277-.13m52.77 20.352a4 4 0 0 0-1.165.192c-6.114 1.957-13.112 3.815-20.394 5.034-2.153.36-3.452 2.297-2.887 4.406l5.014 18.716c.565 2.11 2.777 3.575 4.93 3.218 7.44-1.235 14.006-2.858 20.431-4.9 2.08-.66 3.293-2.955 2.728-5.063l-5.047-18.838a3.67 3.67 0 0 0-3.61-2.765m-53.609 12.381q-.6.564-1.169 1.14a36.4 36.4 0 0 0-3.343 3.871c-.857 1.154-1.283 3.047-1.242 4.713 1.489 3.287 3.977 5.695 7.147 7.412 1.918 1.039 3.163-.133 2.598-2.242zm-71.503 2.554" paint-order="fill markers stroke"/><path fill="#9a9996" d="M148.822 119.674a1 1 0 0 0-.248.033 1.6 1.6 0 0 0-.502.242c1.321 1.055 2.468 2.767 2.865 4.217l-.792-2.96c-.276-1.028-.755-1.537-1.323-1.532m-.603 22.99c-3.111-.137-6.645-.07-10.461.184l2.258 8.431 2.498 9.323.476 1.775v.004q.356 1.321.887 2.492c-.042-1.667.383-3.56 1.242-4.715a36.5 36.5 0 0 1 3.342-3.87 48 48 0 0 1 3.195-2.928 36.5 36.5 0 0 0 3.342-3.872c1.05-1.411 1.45-3.923 1.145-5.779-2.126-.566-4.813-.907-7.924-1.045" paint-order="fill markers stroke"/><path fill="#f6f5f4" d="M102.639 29.541c-3.033.066-6.287.558-9.492.956 1.72.34 3.25 1.69 3.71 3.41l5.59 20.863c.584 2.178-.763 4.116-2.997 4.426-6.798.943-13.712 2.545-20.286 4.496-2.161.641-4.372-.554-4.956-2.732l-5.59-20.864c-.576-2.148.65-4.448 2.758-5.125-11.798 3.513-23.567 8.454-33.878 14.008l30.81 114.987c1.006-.895 2.192-1.766 3.455-2.625-.146.099-.333.193-.476.292l-7.521-28.07a184 184 0 0 1 23.328-9.966q.183-.062.368-.106c1.85-.434 3.68.663 4.186 2.55l5.463 20.39c.53 1.977-.604 4.041-2.527 4.71 11.338-3.59 24.15-6.247 35.502-7.583-2.065.223-4.162-1.172-4.7-3.18l-5.497-20.516c-.474-1.767.423-3.376 2.052-3.831a3.4 3.4 0 0 1 .74-.124c9.15-.533 17.504.407 24.21 3.304 1.778.769 3.541 3.085 4.05 4.96l-8.61-32.13c-7.027-4.058-16.384-5.455-26.808-4.911-2.387.124-4.818-1.544-5.437-3.854l-5.463-20.383c-.541-2.02.484-3.863 2.347-4.374q.401-.111.85-.135c8.938-.467 17.092.495 23.665 3.335 1.782.771 3.55 3.094 4.053 4.971l-8.493-31.702a1.24 1.24 0 0 0-.516-.667c-6.402-3.562-14.672-4.98-23.89-4.78m27.447 114.017c1.956-.23 3.534-.198 5.388-.348-1.842.15-3.41.116-5.353.343zm-35.502 7.584-.106.035c-5.277 1.674-10.158 3.57-14.496 5.61 4.365-2.053 9.289-3.963 14.602-5.644M89.553 30.86c-1.33.21-2.662.49-4.01.749 1.332-.258 2.616-.527 4.01-.75m-15.284 3.344c-.406.113-.802.161-1.21.277q-.756.218-1.517.443c.766-.226 1.868-.48 2.728-.72m-1.324 31.624c1.472-.05 2.813.916 3.221 2.439l5.902 22.022c.498 1.857-.581 3.838-2.398 4.466a184 184 0 0 0-23.607 10.062l-7.703-28.745A184 184 0 0 1 71.968 66.01q.17-.06.342-.1.32-.074.637-.085m34.18 22.145c2.35-.092 4.653 1.624 5.267 3.917l5.33 19.889c.656 2.446-.858 4.623-3.365 4.983-6.472.927-13.036 2.447-19.304 4.287-2.43.712-4.914-.633-5.569-3.078l-5.328-19.89c-.656-2.445.765-5.07 3.194-5.783 4.93-1.447 11.799-3.207 19.304-4.283q.237-.034.47-.044m-28.995 69.727" paint-order="fill markers stroke"/><path fill="#3d3846" d="M71.463 34.944c-2.16.642-3.426 2.976-2.842 5.154l5.59 20.862c.584 2.178 2.794 3.374 4.955 2.732 6.575-1.951 13.487-3.555 20.287-4.497 2.232-.31 3.578-2.247 2.995-4.425l-5.59-20.863c-.584-2.178-2.876-3.77-5.108-3.46-7.949 1.103-15.221 2.994-20.287 4.497m.846 30.965a3 3 0 0 0-.341.098A184 184 0 0 0 48.36 76.07l7.703 28.745a184 184 0 0 1 23.607-10.06c1.817-.628 2.897-2.61 2.4-4.467l-5.902-22.024c-.466-1.74-2.153-2.751-3.858-2.353zm34.664-7.39c-1.865.512-2.89 2.353-2.348 4.374l5.461 20.384c.62 2.31 3.05 3.976 5.437 3.852 10.426-.544 19.783.854 26.81 4.912l-6.79-25.346c-.504-1.88-2.274-4.206-4.057-4.976-6.573-2.841-14.727-3.801-23.664-3.336a4 4 0 0 0-.85.136M87.35 92.296c-2.43.712-3.849 3.336-3.193 5.782l5.329 19.889c.655 2.446 3.138 3.79 5.567 3.078 6.269-1.84 12.833-3.359 19.306-4.286 2.506-.36 4.019-2.538 3.364-4.983l-5.33-19.889c-.655-2.446-3.23-4.234-5.737-3.875-7.505 1.077-14.376 2.837-19.306 4.284m.115 31.194a5 5 0 0 0-.37.106 185 185 0 0 0-23.33 9.967l7.522 28.07c5.679-3.966 13.943-7.521 23.193-10.457 1.987-.63 3.172-2.732 2.633-4.745l-5.463-20.389c-.506-1.888-2.337-2.984-4.185-2.55zm34.478-7.46c-1.63.457-2.527 2.066-2.054 3.833l5.497 20.515c.542 2.02 2.66 3.419 4.738 3.174 10.898-1.28 20.45-1.34 26.055.162l-5.232-19.526c-.503-1.878-2.272-4.205-4.056-4.976-6.706-2.897-15.057-3.838-24.208-3.305a3.4 3.4 0 0 0-.74.123" paint-order="fill markers stroke"/><path fill="#3d3846" stroke="#f6d32d" stroke-dashoffset="24.375" stroke-linecap="round" stroke-linejoin="round" stroke-width="15" d="M81.698 233.468 31.315 45.436" paint-order="fill markers stroke"/><circle cx="18.488" cy="36.563" r="8.532" fill="#f6d32d" paint-order="fill markers stroke" transform="rotate(-15)"/><path fill="#e5a50a" d="M29.106 37.194a8.5 8.5 0 0 0-3.274 1.705 8.53 8.53 0 0 1 6.76 6.194l50.383 188.034a8.53 8.53 0 0 1-2.757 8.743 8.5 8.5 0 0 0 3.688-.16 8.53 8.53 0 0 0 6.033-10.45L39.556 43.228a8.53 8.53 0 0 0-10.45-6.033" overflow="visible" paint-order="fill markers stroke"/><path fill="#e5a50a" d="M28.847 22.155a8.53 8.53 0 0 1 2.402 3.994 8.53 8.53 0 0 1-6.033 10.45 8.5 8.5 0 0 1-3.736.136 8.53 8.53 0 0 0 8.05 2.038 8.53 8.53 0 0 0 6.033-10.45 8.53 8.53 0 0 0-6.716-6.168" paint-order="fill markers stroke"/><path fill="#f6d32d" stroke="#f9f06b" stroke-dashoffset="24.375" stroke-linecap="round" stroke-linejoin="round" stroke-width="5" d="M48.42 123.198 30.828 57.542" paint-order="fill markers stroke"/><circle cx="14.884" cy="34.137" r="2.844" fill="#f9f06b" paint-order="fill markers stroke" transform="rotate(-15)"/><path fill="#f9f06b" stroke="#fff" stroke-dashoffset="24.375" stroke-linecap="round" stroke-linejoin="round" stroke-width="5" d="m49.432 50.498 11.485-4.535" paint-order="fill markers stroke"/><path fill="#f9f06b" stroke="#77767b" stroke-dashoffset="24.375" stroke-linecap="round" stroke-linejoin="round" stroke-width="5" d="M89.425 38.272 77.46 41.01" paint-order="fill markers stroke"/></svg>