<?xml version="1.0" encoding="UTF-8" standalone="no"?>
<svg
   width="256"
   height="256"
   viewBox="0 0 256 256"
   version="1.1"
   id="svg2"
   xmlns:xlink="http://www.w3.org/1999/xlink"
   xmlns="http://www.w3.org/2000/svg"
   xmlns:svg="http://www.w3.org/2000/svg">
  <defs
     id="defs2">
    <radialGradient
       xlink:href="#linearGradient239"
       id="radialGradient234"
       gradientUnits="userSpaceOnUse"
       gradientTransform="matrix(0,1.9908996,-1.8235213,0,1898.2595,-2044.5366)"
       cx="1129.715"
       cy="145.04604"
       fx="1129.715"
       fy="145.04604"
       r="66.489304" />
    <linearGradient
       id="linearGradient239">
      <stop
         style="stop-color:#62a0ea;stop-opacity:1;"
         offset="0"
         id="stop238" />
      <stop
         style="stop-color:#1a5fb4;stop-opacity:1;"
         offset="1"
         id="stop239" />
    </linearGradient>
    <radialGradient
       xlink:href="#linearGradient129"
       id="radialGradient132"
       cx="785.53619"
       cy="245.2061"
       fx="785.53619"
       fy="245.2061"
       r="25.593224"
       gradientUnits="userSpaceOnUse"
       gradientTransform="matrix(1.8718673,1.8718673,1.8718673,-1.8718673,-317.84172,-764.45235)" />
    <linearGradient
       id="linearGradient129">
      <stop
         style="stop-color:#f6d32d;stop-opacity:1;"
         offset="0"
         id="stop129" />
      <stop
         style="stop-color:#f5c211;stop-opacity:1;"
         offset="1"
         id="stop130" />
    </linearGradient>
  </defs>
  <g
     id="g59"
     transform="matrix(1.5108709,0,0,1.5108709,-2340.4077,-281.14302)"
     style="stroke-width:0.66187">
    <circle
       style="fill:url(#radialGradient234);fill-opacity:1;stroke:none;stroke-width:1.9856;stroke-linecap:round;stroke-linejoin:round;stroke-opacity:1;paint-order:fill markers stroke"
       id="circle233"
       cx="1633.765"
       cy="270.79935"
       r="66.186768" />
    <circle
       style="fill:#26a269;fill-opacity:1;stroke:none;stroke-width:1.9856;stroke-linecap:round;stroke-linejoin:round;stroke-opacity:1;paint-order:fill markers stroke"
       id="circle221"
       cx="1633.7651"
       cy="-270.79935"
       r="61.273674"
       transform="scale(1,-1)" />
    <path
       id="path222"
       style="fill:#000000;fill-opacity:0.2;stroke:none;stroke-width:1.9856;stroke-linecap:round;stroke-linejoin:round;stroke-opacity:1;paint-order:fill markers stroke"
       d="m 1633.766,209.52674 a 61.273679,61.273679 0 0 0 -61.2743,61.2721 61.273679,61.273679 0 0 0 0.1112,1.70676 61.273679,61.273679 0 0 1 61.1632,-59.56534 61.273679,61.273679 0 0 1 61.161,59.56534 61.273679,61.273679 0 0 0 0.1112,-1.70676 61.273679,61.273679 0 0 0 -61.2721,-61.2721 z" />
    <circle
       style="fill:#ffffff;fill-opacity:0.05;stroke:none;stroke-width:1.9856;stroke-linecap:round;stroke-linejoin:round;stroke-opacity:1;paint-order:fill markers stroke"
       id="circle291"
       cx="1633.7651"
       cy="-270.79935"
       r="44.681782"
       transform="scale(1,-1)" />
    <path
       id="circle265"
       style="fill:#2ec27e;fill-opacity:1;stroke:none;stroke-width:1.9856;stroke-linecap:round;stroke-linejoin:round;stroke-opacity:1;paint-order:fill markers stroke"
       d="m 1633.7653,204.61328 a 66.186768,66.186768 0 0 0 -66.1875,66.18555 66.186768,66.186768 0 0 0 66.1875,66.1875 66.186768,66.186768 0 0 0 66.1856,-66.1875 66.186768,66.186768 0 0 0 -66.1856,-66.18555 z m 0,5 a 61.185791,61.185791 0 0 1 61.1856,61.18555 61.185791,61.185791 0 0 1 -61.1856,61.18555 61.185791,61.185791 0 0 1 -61.1855,-61.18555 61.185791,61.185791 0 0 1 61.1855,-61.18555 z" />
    <rect
       style="fill:#2ec27e;fill-opacity:0.487863;stroke-width:1.9856;stroke-linecap:round;stroke-linejoin:round;paint-order:fill markers stroke"
       id="rect120"
       width="8.054141"
       height="13.087232"
       x="1320.9489"
       y="952.05103"
       transform="matrix(0.70710678,0.70710678,0.70710678,-0.70710678,0,0)"
       rx="1.9271288"
       ry="1.9271288" />
    <path
       id="rect128"
       style="fill:#000000;fill-opacity:0.2;stroke-width:1.9856;stroke-linecap:round;stroke-linejoin:round;paint-order:fill markers stroke"
       d="m 1617.2754,250.71665 c 0.7057,0 1.4115,0.26901 1.9523,0.8098 l 18.7754,18.77717 a 14.918635,14.918635 0 0 1 17.1063,2.85166 14.918635,14.918635 0 0 1 0,21.09874 14.918635,14.918635 0 0 1 -21.0987,0 14.918635,14.918635 0 0 1 -2.8516,-17.10639 l -4.3434,-4.34149 -4.3104,4.31225 c -0.7549,0.75493 -1.9706,0.75493 -2.7255,0 l -2.9706,-2.97049 c -0.7549,-0.75493 -0.7549,-1.97062 0,-2.72554 l 4.3123,-4.31042 -2.4989,-2.49887 -4.3104,4.31224 c -0.7549,0.75494 -1.9706,0.75494 -2.7256,0 l -2.9704,-2.97049 c -0.755,-0.75493 -0.755,-1.97061 0,-2.72554 l 4.3122,-4.31042 -0.5465,-0.54657 c -1.0817,-1.08158 -1.0817,-2.823 0,-3.9046 l 2.9412,-2.94124 c 0.5407,-0.54079 1.2465,-0.8098 1.9523,-0.8098 z m 27.2846,25.71075 a 7.2765729,7.2765729 0 0 0 -5.1457,2.13145 7.2765729,7.2765729 0 0 0 0,10.29161 7.2765729,7.2765729 0 0 0 10.2897,0 7.2765729,7.2765729 0 0 0 0,-10.29161 7.2765729,7.2765729 0 0 0 -5.144,-2.13145 z" />
    <rect
       style="fill:#f6d32d;fill-opacity:1;stroke-width:1.9856;stroke-linecap:round;stroke-linejoin:round;paint-order:fill markers stroke"
       id="rect122"
       width="8.054141"
       height="13.087232"
       x="1332.5359"
       y="952.05103"
       transform="matrix(0.70710678,0.70710678,0.70710678,-0.70710678,0,0)"
       rx="1.9271288"
       ry="1.9271288" />
    <rect
       style="fill:#f6d32d;fill-opacity:1;stroke-width:1.9856;stroke-linecap:round;stroke-linejoin:round;paint-order:fill markers stroke"
       id="rect124"
       width="8.054141"
       height="13.087232"
       x="1320.9489"
       y="952.05103"
       transform="matrix(0.70710678,0.70710678,0.70710678,-0.70710678,0,0)"
       rx="1.9271288"
       ry="1.9271288" />
    <path
       id="path111"
       style="fill:url(#radialGradient132);stroke-width:1.9856;stroke-linecap:round;stroke-linejoin:round;paint-order:fill markers stroke"
       d="m 1617.2742,246.97461 c -0.7058,0 -1.4104,0.26976 -1.9512,0.81055 l -2.9414,2.93945 c -0.7841,0.78409 -0.9992,1.9158 -0.6465,2.89062 -0.3515,0.97428 -0.1349,2.10329 0.6484,2.88672 l 18.211,18.21289 a 14.918635,14.918635 0 0 0 -0.9121,6.34766 14.918635,14.918635 0 0 0 4.3281,11.32227 14.918635,14.918635 0 0 0 21.0977,0 14.918635,14.918635 0 0 0 4.3085,-11.47852 14.918635,14.918635 0 0 0 -4.3085,-11.49219 14.918635,14.918635 0 0 0 -17.1055,-2.85351 l -18.7754,-18.77539 c -0.5408,-0.54079 -1.2474,-0.81055 -1.9531,-0.81055 z m 27.2851,27.58398 a 7.2765729,7.2765729 0 0 1 5.1465,2.13086 7.2765729,7.2765729 0 0 1 2.0684,4.20899 7.2765729,7.2765729 0 0 0 0,-1.89453 7.2765729,7.2765729 0 0 0 -0.4863,-1.8125 7.2765729,7.2765729 0 0 1 0.4863,1.8125 7.2765729,7.2765729 0 0 1 0,1.89453 7.2765729,7.2765729 0 0 1 -2.0684,4.20898 7.2765729,7.2765729 0 0 1 -10.291,0 7.2765729,7.2765729 0 0 1 -1.5742,-7.93554 7.2765729,7.2765729 0 0 0 -0.4942,3.72656 7.2765729,7.2765729 0 0 1 2.0684,-4.20899 7.2765729,7.2765729 0 0 1 5.1445,-2.13086 z m -5.1445,0.25782 a 7.2765729,7.2765729 0 0 0 -1.0488,1.3457 7.2765729,7.2765729 0 0 1 1.0488,-1.3457 z m 11.4434,1.5039 a 7.2765729,7.2765729 0 0 1 0.2871,0.58008 7.2765729,7.2765729 0 0 0 -0.2871,-0.58008 z m 8.3515,6.29883 a 14.918635,14.918635 0 0 1 -0.033,0.16016 14.918635,14.918635 0 0 0 0.033,-0.16016 z m -0.418,1.72852 a 14.918635,14.918635 0 0 1 -0.084,0.24804 14.918635,14.918635 0 0 0 0.084,-0.24804 z m -0.6289,1.68945 a 14.918635,14.918635 0 0 1 -0.1484,0.30078 14.918635,14.918635 0 0 0 0.1484,-0.30078 z m -0.8261,1.59961 a 14.918635,14.918635 0 0 1 -0.2969,0.44336 14.918635,14.918635 0 0 0 0.2969,-0.44336 z m -1.0254,1.5039 a 14.918635,14.918635 0 0 1 -1.2031,1.3711 14.918635,14.918635 0 0 0 1.2031,-1.3711 z m -13.6992,5.61329 a 14.918635,14.918635 0 0 0 3.8945,0 14.918635,14.918635 0 0 1 -3.8945,0 z" />
    <path
       id="path133"
       style="fill:#ffffff;fill-opacity:0.2;stroke-width:1.9856;stroke-linecap:round;stroke-linejoin:round;paint-order:fill markers stroke"
       d="m 1617.2745,246.97474 c 0.7057,0 1.4115,0.26901 1.9522,0.80981 l 18.7772,18.77717 c 5.7253,-2.80082 12.5976,-1.65508 17.1046,2.85166 3.0165,3.03358 4.5856,7.21618 4.3085,11.4853 -0.2193,-3.62181 -1.7511,-7.03954 -4.3085,-9.61343 -4.507,-4.50674 -11.3793,-5.65249 -17.1046,-2.85167 l -18.7772,-18.77717 c -1.0815,-1.08158 -2.823,-1.08158 -3.9046,0 l -2.9394,2.94124 c -0.2979,0.29792 -0.5133,0.64593 -0.6471,1.01637 -0.352,-0.97448 -0.1365,-2.10456 0.6471,-2.88824 l 2.9394,-2.94123 c 0.5408,-0.5408 1.2466,-0.80981 1.9524,-0.80981 z" />
    <path
       id="path134"
       style="fill:#000000;fill-opacity:0.2;stroke-width:1.9856;stroke-linecap:round;stroke-linejoin:round;paint-order:fill markers stroke"
       d="m 1611.7356,253.61402 c 0.1338,0.37044 0.3492,0.71846 0.6471,1.01637 l 18.7753,18.77534 a 14.918635,14.918635 0 0 0 -0.5629,1.30884 l -18.2124,-18.21232 c -0.7836,-0.78367 -0.9991,-1.91375 -0.6471,-2.88823 z m 32.8235,19.07147 a 7.2765729,7.2765729 0 0 1 5.1458,2.13145 7.2765729,7.2765729 0 0 1 2.0693,6.08174 7.2765729,7.2765729 0 0 0 -2.0693,-4.20987 7.2765729,7.2765729 0 0 0 -10.2898,0 7.2765729,7.2765729 0 0 0 -2.0692,4.20987 7.2765729,7.2765729 0 0 1 2.0692,-6.08174 7.2765729,7.2765729 0 0 1 5.144,-2.13145 z m -14.8653,8.17298 a 14.918635,14.918635 0 0 0 4.3159,9.65364 14.918635,14.918635 0 0 0 21.0988,0 14.918635,14.918635 0 0 0 4.3085,-9.61343 14.918635,14.918635 0 0 1 -4.3085,11.4853 14.918635,14.918635 0 0 1 -21.0988,0 14.918635,14.918635 0 0 1 -4.3159,-11.52551 z" />
  </g>
</svg>
