<?xml version="1.0" encoding="UTF-8" standalone="no"?>
<svg
   width="256"
   height="256"
   viewBox="0 0 256 256"
   version="1.1"
   id="svg3"
   xmlns:xlink="http://www.w3.org/1999/xlink"
   xmlns="http://www.w3.org/2000/svg"
   xmlns:svg="http://www.w3.org/2000/svg">
  <defs
     id="defs2">
    <radialGradient
       xlink:href="#linearGradient239"
       id="radialGradient298"
       gradientUnits="userSpaceOnUse"
       gradientTransform="matrix(0,1.9908996,-1.8235213,0,1727.6746,-2044.5366)"
       cx="1129.715"
       cy="145.04604"
       fx="1129.715"
       fy="145.04604"
       r="66.489304" />
    <linearGradient
       id="linearGradient239">
      <stop
         style="stop-color:#62a0ea;stop-opacity:1;"
         offset="0"
         id="stop238" />
      <stop
         style="stop-color:#1a5fb4;stop-opacity:1;"
         offset="1"
         id="stop239" />
    </linearGradient>
    <radialGradient
       xlink:href="#linearGradient288"
       id="radialGradient299"
       gradientUnits="userSpaceOnUse"
       gradientTransform="matrix(1.4142138,1.4142138,-1.4142138,1.4142138,-317.57681,-1348.1029)"
       cx="710.13782"
       cy="-367.24411"
       fx="710.13782"
       fy="-367.24411"
       r="28.336916" />
    <linearGradient
       id="linearGradient288">
      <stop
         style="stop-color:#ffffff;stop-opacity:1;"
         offset="0"
         id="stop288" />
      <stop
         style="stop-color:#deddda;stop-opacity:1;"
         offset="1"
         id="stop289" />
    </linearGradient>
    <radialGradient
       xlink:href="#linearGradient289"
       id="radialGradient300"
       gradientUnits="userSpaceOnUse"
       gradientTransform="matrix(0,1.9999999,-1.9999999,0,1972.1603,-1269.1578)"
       cx="761.82397"
       cy="254.49008"
       fx="761.82397"
       fy="254.49008"
       r="16.309267" />
    <linearGradient
       id="linearGradient289">
      <stop
         style="stop-color:#9141ac;stop-opacity:1;"
         offset="0"
         id="stop290" />
      <stop
         style="stop-color:#613583;stop-opacity:1;"
         offset="1"
         id="stop291" />
    </linearGradient>
  </defs>
  <g
     id="g58"
     transform="matrix(1.5108702,0,0,1.5108702,-2082.6749,-281.14283)"
     style="stroke-width:0.66187">
    <circle
       style="fill:url(#radialGradient298);fill-opacity:1;stroke:none;stroke-width:1.9856;stroke-linecap:round;stroke-linejoin:round;stroke-opacity:1;paint-order:fill markers stroke"
       id="circle292"
       cx="1463.1802"
       cy="270.79935"
       r="66.186768" />
    <circle
       style="fill:#1c71d8;fill-opacity:1;stroke:none;stroke-width:1.9856;stroke-linecap:round;stroke-linejoin:round;stroke-opacity:1;paint-order:fill markers stroke"
       id="circle293"
       cx="1463.1802"
       cy="-270.79935"
       r="61.273674"
       transform="scale(1,-1)" />
    <path
       id="path293"
       style="fill:#3584e4;fill-opacity:1;stroke:none;stroke-width:1.9856;stroke-linecap:round;stroke-linejoin:round;stroke-opacity:1;paint-order:fill markers stroke"
       d="m 1463.1804,204.61328 a 66.186768,66.186768 0 0 0 -66.1875,66.18555 66.186768,66.186768 0 0 0 66.1875,66.1875 66.186768,66.186768 0 0 0 66.1856,-66.1875 66.186768,66.186768 0 0 0 -66.1856,-66.18555 z m 0,5 a 61.185791,61.185791 0 0 1 61.1856,61.18555 61.185791,61.185791 0 0 1 -61.1856,61.18555 61.185791,61.185791 0 0 1 -61.1855,-61.18555 61.185791,61.185791 0 0 1 61.1855,-61.18555 z" />
    <path
       id="path294"
       style="fill:#000000;fill-opacity:0.2;stroke:none;stroke-width:1.9856;stroke-linecap:round;stroke-linejoin:round;stroke-opacity:1;paint-order:fill markers stroke"
       d="m 1463.1811,209.52674 a 61.273679,61.273679 0 0 0 -61.2743,61.2721 61.273679,61.273679 0 0 0 0.1112,1.70676 61.273679,61.273679 0 0 1 61.1632,-59.56534 61.273679,61.273679 0 0 1 61.161,59.56534 61.273679,61.273679 0 0 0 0.1112,-1.70676 61.273679,61.273679 0 0 0 -61.2721,-61.2721 z" />
    <circle
       style="fill:#ffffff;fill-opacity:0.03;stroke:none;stroke-width:1.9856;stroke-linecap:round;stroke-linejoin:round;stroke-opacity:1;paint-order:fill markers stroke"
       id="circle294"
       cx="1463.1802"
       cy="-270.79935"
       r="44.681782"
       transform="scale(1,-1)" />
    <circle
       style="fill:url(#radialGradient299);fill-opacity:1;stroke:none;stroke-width:1.9856;stroke-linecap:round;stroke-linejoin:round;stroke-miterlimit:4;stroke-dasharray:none;stroke-dashoffset:0;stroke-opacity:1;marker:none;marker-start:none;marker-mid:none;marker-end:none;paint-order:fill markers stroke"
       id="circle295"
       cx="1226.1088"
       cy="-843.14062"
       r="28.336916"
       transform="rotate(45)" />
    <circle
       style="fill:url(#radialGradient300);fill-opacity:1;stroke:none;stroke-width:1.9856;stroke-linecap:round;stroke-linejoin:round;stroke-miterlimit:4;stroke-dasharray:none;stroke-dashoffset:0;stroke-opacity:1;marker:none;marker-start:none;marker-mid:none;marker-end:none;paint-order:fill markers stroke"
       id="circle296"
       cx="1463.1802"
       cy="270.79935"
       r="16.309267" />
    <circle
       style="fill:#241f31;fill-opacity:1;stroke:none;stroke-width:1.9856;stroke-linecap:round;stroke-linejoin:round;stroke-miterlimit:4;stroke-dasharray:none;stroke-dashoffset:0;stroke-opacity:1;marker:none;marker-start:none;marker-mid:none;marker-end:none;paint-order:fill markers stroke"
       id="circle297"
       cx="1463.1802"
       cy="270.79935"
       r="6.871737" />
    <path
       id="path297"
       style="fill:#000000;fill-opacity:0.1;stroke:none;stroke-width:1.9856;stroke-linecap:round;stroke-linejoin:round;stroke-miterlimit:4;stroke-dasharray:none;stroke-dashoffset:0;stroke-opacity:1;marker:none;marker-start:none;marker-mid:none;marker-end:none;paint-order:fill markers stroke"
       d="m 1491.3795,272.94716 a 28.336916,28.336916 0 0 1 -8.1635,17.94422 28.336916,28.336916 0 0 1 -40.0731,0 28.336916,28.336916 0 0 1 -8.1634,-17.92212 28.336916,28.336916 0 0 0 8.1634,22.16476 28.336916,28.336916 0 0 0 40.0745,-0.001 28.336916,28.336916 0 0 0 8.1621,-22.18548 z" />
    <path
       id="path298"
       style="fill:#000000;fill-opacity:0.2;stroke:none;stroke-width:1.9856;stroke-linecap:round;stroke-linejoin:round;stroke-miterlimit:4;stroke-dasharray:none;stroke-dashoffset:0;stroke-opacity:1;marker:none;marker-start:none;marker-mid:none;marker-end:none;paint-order:fill markers stroke"
       d="m 1491.3933,269.58008 a 28.336916,28.336916 0 0 1 -8.1758,18.31054 28.336916,28.336916 0 0 1 -40.0742,0 28.336916,28.336916 0 0 1 -8.1777,-18.30468 28.336916,28.336916 0 0 0 8.1777,21.30468 28.336916,28.336916 0 0 0 40.0742,0 28.336916,28.336916 0 0 0 8.1758,-21.31054 z" />
    <path
       id="circle136"
       style="fill:#ffffff;fill-opacity:0.08;stroke:none;stroke-width:1.9856;stroke-linecap:round;stroke-linejoin:round;stroke-miterlimit:4;stroke-dasharray:none;stroke-dashoffset:0;stroke-opacity:1;marker:none;marker-start:none;marker-mid:none;marker-end:none;paint-order:fill markers stroke"
       d="m 1456.3874,271.80066 a 6.871737,6.871737 0 0 1 -0.078,-1 6.871737,6.871737 0 0 1 6.8711,-6.87305 6.871737,6.871737 0 0 1 6.8711,6.87305 6.871737,6.871737 0 0 1 -0.08,1 6.871737,6.871737 0 0 0 -6.791,-5.87305 6.871737,6.871737 0 0 0 -6.793,5.87305 z" />
    <circle
       style="fill:#f6f5f4;fill-opacity:1;stroke:none;stroke-width:1.9856;stroke-linecap:round;stroke-linejoin:round;stroke-miterlimit:4;stroke-dasharray:none;stroke-dashoffset:0;stroke-opacity:1;marker:none;marker-start:none;marker-mid:none;marker-end:none;paint-order:fill markers stroke"
       id="circle298"
       cx="1458.7219"
       cy="265.60699"
       r="3.5625" />
  </g>
</svg>
