<svg width="256" height="256"><g stroke-width=".602" paint-order="fill markers stroke" transform="translate(-7507.333 -130.855)scale(1.66197)"><circle cx="-4477.922" cy="1038.609" r="66.187" fill="#b5835a" transform="rotate(-165)"/><circle cx="4594.152" cy="-155.752" r="51.187" fill="#986a44" transform="scale(1 -1)"/><path fill-opacity=".1" d="M4594.153 104.566a51.187 51.187 0 0 0-51.188 51.187 51.2 51.2 0 0 0 17.121 38.059 51.2 51.2 0 0 1-13.12-34.059 51.187 51.187 0 0 1 51.187-51.187 51.2 51.2 0 0 1 34.066 13.127 51.2 51.2 0 0 0-38.066-17.127"/><path fill-opacity=".1" d="M4594.152 221.939a66.187 66.187 0 0 0 66.187-66.187 66.2 66.2 0 0 0-20.986-48.205 66.2 66.2 0 0 1 17.986 45.205 66.187 66.187 0 0 1-66.187 66.187 66.2 66.2 0 0 1-45.205-17.986 66.2 66.2 0 0 0 48.205 20.986"/><path fill="#63452c" d="M4617.83 176.42c0 6.783-10.15 10.453-22.672 10.453s-22.671-3.67-22.671-10.453 10.15-11.905 22.671-11.905 22.671 5.123 22.671 11.905"/><ellipse cx="4595.419" cy="171.637" fill-opacity=".3" rx="13.402" ry="4.684"/><path fill="none" stroke="#26a269" stroke-linecap="round" stroke-linejoin="round" stroke-width="4.212" d="M4594.128 173.757c4.595-5.55 5.4-15.905 1.49-22.287"/><path fill="#57e389" stroke="#57e389" stroke-linecap="round" stroke-linejoin="round" stroke-width="3.322" d="M4564.248 145.85c9.599-9.599 26.713-12.718 29.907-.795 2.944 10.987-11.831 11.313-16.264 8.754s-8.71-6.637-13.643-7.959"/><path fill="none" stroke="#33d17a" stroke-linecap="round" stroke-linejoin="round" stroke-width="3.61" d="M4578.164 143.848c6.894 0 11.023 1.348 15.075 5.4"/><path fill="#33d17a" stroke="#33d17a" stroke-linecap="round" stroke-linejoin="round" stroke-width="3.322" d="M4622.794 139.603c-13.178-13.179-30.614-6.662-30.614 4.419 0 11.375 10.594 9.9 15.027 7.34s10.148-10.302 15.587-11.76"/><path fill="none" stroke="#2ec27e" stroke-linecap="round" stroke-linejoin="round" stroke-width="3.61" d="M4606.713 138.721c-8.867 0-12.457 6.733-13.474 10.527"/><path fill="none" stroke="#986a44" stroke-linecap="round" stroke-linejoin="round" stroke-width="4.212" d="M4587.943 173.363c4.071 2.018 10.257 2.069 14.43 0"/><path fill="#cdab8f" d="M4579.55 94.52a5 5 0 0 0-2.587.048l-.245.07a5 5 0 0 0-3.426 6.185 5 5 0 0 0 6.185 3.426l.256-.072a5 5 0 0 0 3.42-6.19 5 5 0 0 0-2.388-2.99 5 5 0 0 0-1.215-.478m-11.104 4.6a5 5 0 0 0-3.812.343c-10.311 5.396-19.28 13.706-25.519 24.512a5 5 0 0 0 1.83 6.832 5 5 0 0 0 6.829-1.83c5.277-9.14 12.806-16.107 21.496-20.654a5 5 0 0 0 2.111-6.748 5 5 0 0 0-2.935-2.455" overflow="visible"/></g></svg>