<?xml version="1.0" encoding="UTF-8" standalone="no"?>
<svg
   width="256"
   height="256"
   viewBox="0 0 256 256"
   version="1.1"
   id="svg2"
   xml:space="preserve"
   xmlns:xlink="http://www.w3.org/1999/xlink"
   xmlns="http://www.w3.org/2000/svg"
   xmlns:svg="http://www.w3.org/2000/svg"><defs
     id="defs2"><radialGradient
       xlink:href="#linearGradient53"
       id="radialGradient27-7"
       gradientUnits="userSpaceOnUse"
       gradientTransform="matrix(0,1.9206406,-1.7591688,0,751.28269,-1931.8535)"
       cx="1129.715"
       cy="145.04604"
       fx="1129.715"
       fy="145.04604"
       r="66.489304" /><linearGradient
       id="linearGradient53"><stop
         style="stop-color:#f8e45c;stop-opacity:1;"
         offset="0"
         id="stop50" /><stop
         style="stop-color:#f5c211;stop-opacity:1;"
         offset="1"
         id="stop53" /></linearGradient><radialGradient
       xlink:href="#linearGradient53"
       id="radialGradient28-4"
       gradientUnits="userSpaceOnUse"
       gradientTransform="matrix(0,1.1927498,-1.0924732,0,286.45923,-1514.8782)"
       cx="1129.715"
       cy="145.04604"
       fx="1129.715"
       fy="145.04604"
       r="66.489304" /></defs><circle
     style="fill:#e5a50a;fill-opacity:1;stroke:none;stroke-width:2.99998;stroke-linecap:round;stroke-linejoin:round;stroke-opacity:1;paint-order:fill markers stroke"
     id="circle2-1"
     cx="128.00034"
     cy="-127.99984"
     r="92.576607"
     transform="scale(1,-1)" /><path
     id="path2-0"
     style="fill:#f5c211;fill-opacity:1;stroke:none;stroke-width:2.99998;stroke-linecap:round;stroke-linejoin:round;stroke-opacity:1;paint-order:fill markers stroke"
     d="M 128.00076,28.001237 A 99.999655,99.999655 0 0 0 28,127.99905 99.999655,99.999655 0 0 0 128.00076,227.99981 99.999655,99.999655 0 0 0 227.99865,127.99905 99.999655,99.999655 0 0 0 128.00076,28.001237 Z m 0,7.554354 A 92.443825,92.443825 0 0 1 220.4443,127.99905 92.443825,92.443825 0 0 1 128.00076,220.44251 92.443825,92.443825 0 0 1 35.557376,127.99905 92.443825,92.443825 0 0 1 128.00076,35.555591 Z" /><path
     id="path3-6"
     style="fill:#000000;fill-opacity:0.2;stroke:none;stroke-width:2.99998;stroke-linecap:round;stroke-linejoin:round;stroke-opacity:1;paint-order:fill markers stroke"
     d="m 128.00182,35.424841 a 92.576612,92.576612 0 0 0 -92.577552,92.574229 92.576612,92.576612 0 0 0 0.168009,2.57869 92.576612,92.576612 0 0 1 92.409693,-89.995532 92.576612,92.576612 0 0 1 92.40637,89.995532 92.576612,92.576612 0 0 0 0.16801,-2.57869 92.576612,92.576612 0 0 0 -92.57423,-92.574229 z" /><circle
     style="fill:#ffffff;fill-opacity:0.08;stroke:none;stroke-width:2.99998;stroke-linecap:round;stroke-linejoin:round;stroke-opacity:1;paint-order:fill markers stroke"
     id="circle3-3"
     cx="128.00034"
     cy="-127.99984"
     r="67.5084"
     transform="scale(1,-1)" /><path
     id="path14-2"
     style="fill:url(#radialGradient27-7);fill-opacity:1;stroke:none;stroke-width:3.49739;stroke-linecap:round;stroke-linejoin:round;stroke-opacity:1;paint-order:fill markers stroke"
     transform="matrix(0.85777846,0,0,0.85777846,-299.30783,-131.1592)"
     d="m 506.25591,244.42954 0.37745,0.30474 a 27.237067,27.237067 18.000011 0 0 18.49496,6.00938 l 0.48449,-0.0247 a 12.893205,12.893205 36.000012 0 1 13.10473,9.52115 l 0.12625,0.4684 a 27.23705,27.23705 54.000001 0 0 11.43051,15.73275 l 0.40646,0.26481 a 12.893201,12.893201 72 0 1 5.00556,15.40553 l -0.17318,0.45316 a 27.237053,27.237053 90 0 0 0,19.44674 l 0.17318,0.45316 a 12.893201,12.893201 108 0 1 -5.00556,15.40553 l -0.40646,0.26481 a 27.237068,27.237068 126.00001 0 0 -11.43052,15.73275 l -0.12624,0.4684 a 12.893205,12.893205 144.00001 0 1 -13.10474,9.52114 l -0.48448,-0.0247 a 27.237047,27.237047 162 0 0 -18.49496,6.00937 l -0.37745,0.30474 a 12.893204,12.893204 179.99999 0 1 -16.19834,0 l -0.37746,-0.30474 a 27.237059,27.237059 17.999989 0 0 -18.49496,-6.00937 l -0.48448,0.0247 a 12.893199,12.893199 35.999998 0 1 -13.10473,-9.52114 l -0.12625,-0.4684 a 27.237066,27.237066 54.000012 0 0 -11.43051,-15.73275 l -0.40646,-0.26482 a 12.893206,12.893206 72.000011 0 1 -5.00556,-15.40553 l 0.17318,-0.45316 a 27.237046,27.237046 89.999995 0 0 0,-19.44674 l -0.17318,-0.45315 a 12.893204,12.893204 107.99998 0 1 5.00556,-15.40553 l 0.40646,-0.26482 a 27.237071,27.237071 125.99999 0 0 11.43051,-15.73275 l 0.12625,-0.46839 a 12.893207,12.893207 143.99999 0 1 13.10473,-9.52115 l 0.48449,0.0247 a 27.237067,27.237067 161.99999 0 0 18.49496,-6.00938 l 0.37745,-0.30474 a 12.8932,12.8932 0 0 1 16.19834,0 z" /><circle
     style="fill:url(#radialGradient28-4);fill-opacity:1;stroke:none;stroke-width:2.99998;stroke-linecap:round;stroke-linejoin:round;stroke-opacity:1;paint-order:fill markers stroke"
     id="circle14-0"
     cx="128.00034"
     cy="-127.75842"
     r="39.652554"
     transform="scale(1,-1)" /><path
     id="path15-6"
     style="fill:#000000;fill-opacity:0.2;stroke:none;stroke-width:2.99998;stroke-linecap:round;stroke-linejoin:round;stroke-opacity:1;paint-order:fill markers stroke"
     d="m 128.00106,88.106533 a 39.652555,39.652555 0 0 0 -39.653103,39.651537 39.652555,39.652555 0 0 0 0.07252,1.10451 39.652555,39.652555 0 0 1 39.581193,-38.547033 39.652555,39.652555 0 0 1 39.57952,38.547033 39.652555,39.652555 0 0 0 0.0725,-1.10451 39.652555,39.652555 0 0 0 -39.6516,-39.651537 z" /><path
     id="path16-5"
     style="fill:#000000;fill-opacity:0.15;stroke-width:12.9088;stroke-linecap:round;stroke-linejoin:round"
     transform="matrix(0.77466496,0,0,0.77466496,-743.17595,-134.10938)"
     d="m 1126.5114,313.42721 6.7441,8.38109 a 11.330127,11.330127 36.000041 0 0 4.7994,3.48699 l 10.0551,3.82421 a 2.4731317,2.4731317 71.999986 0 1 1.1908,3.66494 l -5.8869,9.00401 a 11.33013,11.33013 107.99993 0 0 -1.8332,5.64206 l -0.5298,10.74458 a 2.473129,2.473129 143.99991 0 1 -3.1176,2.26507 l -10.3825,-2.81633 a 11.330213,11.330213 0 0 0 -5.9324,0 l -10.3825,2.81633 a 2.473129,2.473129 36.000085 0 1 -3.1176,-2.26507 l -0.5298,-10.74458 a 11.330137,11.330137 72.000074 0 0 -1.8332,-5.64206 l -5.8869,-9.00402 a 2.4731312,2.4731312 108.00004 0 1 1.1908,-3.66494 l 10.0551,-3.8242 a 11.330115,11.330115 143.99997 0 0 4.7994,-3.48699 l 6.7441,-8.38109 a 2.4731233,2.4731233 0 0 1 3.8536,0 z" /><path
     id="path17-5"
     style="fill:#000000;fill-opacity:0.15;stroke-width:9.99999;stroke-linecap:round;stroke-linejoin:round"
     d="m 127.86947,107.9808 a 1.915842,1.915842 0 0 0 -1.36175,0.71112 l -5.22444,6.49236 a 8.7770431,8.7770431 0 0 1 -3.7175,2.70075 l -7.78899,2.96248 a 1.9158481,1.9158481 0 0 0 -0.92299,2.83992 l 4.56026,6.97502 a 8.7770602,8.7770602 0 0 1 1.41916,4.37111 l 0.41156,8.32312 a 1.9158464,1.9158464 0 0 0 2.29683,1.78233 l -0.38437,-7.78146 a 8.7770602,8.7770602 0 0 0 -1.41916,-4.3711 l -4.56026,-6.97502 a 1.9158481,1.9158481 0 0 1 0.92148,-2.83993 l 7.7905,-2.96248 a 8.7770431,8.7770431 0 0 0 3.7175,-2.70074 l 5.22444,-6.49237 a 1.915842,1.915842 0 0 1 2.01384,-0.64302 l -1.35268,-1.68097 a 1.915842,1.915842 0 0 0 -1.62343,-0.71112 z m 8.66968,8.90259 0.50221,0.62489 a 8.7770525,8.7770525 0 0 0 3.7175,2.70074 l 6.69663,2.5464 a 1.9158485,1.9158485 0 0 0 -1.23166,-1.90791 l -7.789,-2.96248 a 8.7770525,8.7770525 0 0 1 -1.89568,-1.00164 z" /><path
     id="path18-4"
     style="fill:#ffffff;fill-opacity:0.4;stroke-width:9.99999;stroke-linecap:round;stroke-linejoin:round"
     d="m 108.931,123.80545 a 1.9158481,1.9158481 0 0 0 -0.077,2.20598 l 4.56026,6.97501 a 8.7770602,8.7770602 0 0 1 1.41916,4.37111 l 0.41156,8.3231 a 1.9158464,1.9158464 0 0 0 2.41483,1.75359 l 8.04327,-2.18026 a 8.777119,8.777119 0 0 1 4.59501,0 l 8.04312,2.18026 a 1.9158464,1.9158464 0 0 0 2.41483,-1.75359 l 0.41156,-8.3231 a 8.7770548,8.7770548 0 0 1 1.41916,-4.37111 l 4.56026,-6.97501 a 1.9158485,1.9158485 0 0 0 -0.0771,-2.20598 l -4.48305,6.857 a 8.7770548,8.7770548 0 0 0 -1.41916,4.3711 l -0.41156,8.32311 a 1.9158464,1.9158464 0 0 1 -2.41483,1.75359 l -8.04312,-2.18026 a 8.777119,8.777119 0 0 0 -4.59501,0 l -8.04327,2.18026 a 1.9158464,1.9158464 0 0 1 -2.41483,-1.75359 l -0.41156,-8.32311 a 8.7770602,8.7770602 0 0 0 -1.41916,-4.3711 z" /><path
     id="path31-7"
     style="fill:#000000;fill-opacity:0.2;stroke:none;stroke-width:2.99998;stroke-linecap:round;stroke-linejoin:round;stroke-opacity:1;paint-order:fill markers stroke"
     d="m 78.175415,117.73133 a 11.059513,11.059513 0 0 0 0.478039,6.20872 l 0.148066,0.38952 a 23.363352,23.363352 0 0 1 1.401786,6.07301 23.363352,23.363352 0 0 0 -1.401786,-10.60561 l -0.148066,-0.38953 a 11.059513,11.059513 0 0 1 -0.478039,-1.67611 z m 99.649635,0 a 11.05951,11.05951 0 0 1 -0.47804,1.67611 l -0.14807,0.38953 a 23.363358,23.363358 0 0 0 -1.40163,10.60561 23.363358,23.363358 0 0 1 1.40163,-6.07301 l 0.14807,-0.38952 a 11.05951,11.05951 0 0 0 0.47804,-6.20872 z m -99.649635,25.34544 a 11.059514,11.059514 0 0 0 4.771632,11.53515 l 0.348256,0.22721 a 23.363369,23.363369 0 0 1 9.805853,13.49751 l 0.105761,0.40132 a 11.059508,11.059508 0 0 0 11.242993,8.1652 l 0.41307,-0.0207 a 23.363363,23.363363 0 0 1 15.86717,5.15526 l 0.32166,0.26263 a 11.059513,11.059513 0 0 0 13.89593,0 l 0.32499,-0.2626 a 23.363352,23.363352 0 0 1 15.86415,-5.15526 l 0.41609,0.0207 a 11.059514,11.059514 0 0 0 11.23997,-8.1652 l 0.10879,-0.40132 a 23.36337,23.36337 0 0 1 9.80298,-13.49751 l 0.34825,-0.22721 a 11.05951,11.05951 0 0 0 4.77164,-11.53515 11.05951,11.05951 0 0 1 -4.77164,7.00254 l -0.34825,0.22721 a 23.36337,23.36337 0 0 0 -9.80298,13.49751 l -0.10879,0.40132 a 11.059514,11.059514 0 0 1 -11.23997,8.1652 l -0.41609,-0.0207 a 23.363352,23.363352 0 0 0 -15.86415,5.15526 l -0.32453,0.26263 a 11.059513,11.059513 0 0 1 -13.89593,0 l -0.32167,-0.26263 a 23.363363,23.363363 0 0 0 -15.86716,-5.15526 l -0.41308,0.0207 a 11.059508,11.059508 0 0 1 -11.24299,-8.1652 l -0.10576,-0.40132 A 23.363369,23.363369 0 0 0 83.295756,150.30655 L 82.9475,150.07934 a 11.059514,11.059514 0 0 1 -4.771632,-7.00254 z" /></svg>
