<svg width="256" height="256"><g stroke-width=".602" paint-order="fill markers stroke" transform="translate(-6661.707 -130.855)scale(1.66197)"><circle cx="-2778.637" cy="-2998.903" r="66.187" fill="#f6d32d" transform="rotate(135)"/><path fill="#fff" fill-opacity=".2" d="m4108.918 93.967-85.408 85.408a66.2 66.2 0 0 0 6.224 12.28l91.41-91.409a66 66 0 0 0-1.421-.947 66.988 66.186 15 0 0-2.891-1.654 66 66 0 0 0-4.133-2.036 66.988 66.186 15 0 0-3.012-1.338 66 66 0 0 0-.767-.304zm32.338 26.377-91.326 91.326a66.2 66.2 0 0 0 18.244 8.004 66 66 0 0 0 4.79.957l77.37-77.37v-.001a66.2 66.2 0 0 0-9.078-22.916"/><circle cx="4085.337" cy="-155.752" r="51.187" fill="#e5a50a" transform="scale(1 -1)"/><path fill-opacity=".1" d="M4085.338 104.566a51.187 51.187 0 0 0-51.188 51.187 51.2 51.2 0 0 0 17.121 38.059 51.2 51.2 0 0 1-13.12-34.059 51.187 51.187 0 0 1 51.187-51.187 51.2 51.2 0 0 1 34.066 13.127 51.2 51.2 0 0 0-38.066-17.127"/><path fill="#f6d32d" d="M4093.142 121.36a20.35 20.35 0 0 1-15.572.009 8.43 8.43 0 0 0-11.006 4.576 20.35 20.35 0 0 1-11.004 11.015 8.43 8.43 0 0 0-4.545 11.017 20.35 20.35 0 0 1 .008 15.572 8.43 8.43 0 0 0 4.577 11.006 20.35 20.35 0 0 1 11.015 11.004 8.43 8.43 0 0 0 11.017 4.545 20.35 20.35 0 0 1 15.572-.008 8.43 8.43 0 0 0 11.005-4.576 20.35 20.35 0 0 1 11.005-11.015 8.43 8.43 0 0 0 4.545-11.018 20.35 20.35 0 0 1-.008-15.572 8.43 8.43 0 0 0-4.576-11.005 20.35 20.35 0 0 1-11.016-11.005 8.43 8.43 0 0 0-11.017-4.545"/><circle cx="4085.337" cy="155.752" r="26.018" fill="#e5a50a"/><path fill-opacity=".15" d="M4103.2 124.31a8.4 8.4 0 0 1 .91 1.617 20.4 20.4 0 0 0 3.005 4.994 20 20 0 0 1-.531-.484 20.4 20.4 0 0 0 2.531 2.484 20.4 20.4 0 0 1-3.006-4.994 8.43 8.43 0 0 0-2.91-3.617m15.58 15.554a8.43 8.43 0 0 1 .921 8.073 20.34 20.34 0 0 0 .01 15.572 8.427 8.427 0 0 1-4.545 11.017 20.35 20.35 0 0 0-11.004 11.016 8.43 8.43 0 0 1-11.006 4.576 20.34 20.34 0 0 0-15.57.008 8.43 8.43 0 0 1-8.094-.914 8.43 8.43 0 0 0 10.094 2.914 20.34 20.34 0 0 1 15.57-.008 8.43 8.43 0 0 0 11.006-4.576 20.35 20.35 0 0 1 11.004-11.016 8.427 8.427 0 0 0 4.545-11.017 20.34 20.34 0 0 1-.01-15.572 8.43 8.43 0 0 0-2.922-10.073m-64.872 33.791a8.43 8.43 0 0 0 3.64 2.922 20.4 20.4 0 0 1 5.018 3.016 20.4 20.4 0 0 0-2.488-2.535 20 20 0 0 1 .488.535 20.4 20.4 0 0 0-5.017-3.016 8.4 8.4 0 0 1-1.64-.922"/><path fill="#fff" fill-opacity=".2" d="M4053.896 173.642a8.43 8.43 0 0 1-.922-8.072 20.34 20.34 0 0 0-.01-15.572 8.427 8.427 0 0 1 4.545-11.018 20.35 20.35 0 0 0 11.004-11.015 8.43 8.43 0 0 1 11.006-4.577 20.34 20.34 0 0 0 15.57-.008 8.43 8.43 0 0 1 8.094.915 8.43 8.43 0 0 0-10.094-2.915 20.34 20.34 0 0 1-15.57.008 8.43 8.43 0 0 0-11.006 4.577 20.35 20.35 0 0 1-11.004 11.015 8.427 8.427 0 0 0-4.545 11.018 20.34 20.34 0 0 1 .01 15.572 8.43 8.43 0 0 0 2.922 10.072"/><path fill="#f6d32d" d="m4086.742 141.496 3.67 4.86a7.67 7.67 0 0 0 3.619 2.629l5.756 1.989a1.765 1.765 0 0 1 .87 2.68l-3.487 4.992a7.67 7.67 0 0 0-1.382 4.253l-.113 6.09a1.765 1.765 0 0 1-2.28 1.655l-5.826-1.774a7.67 7.67 0 0 0-4.471 0l-5.826 1.774a1.765 1.765 0 0 1-2.28-1.655l-.112-6.09a7.67 7.67 0 0 0-1.382-4.253l-3.488-4.993a1.765 1.765 0 0 1 .87-2.68l5.757-1.988a7.67 7.67 0 0 0 3.617-2.629l3.671-4.86a1.765 1.765 0 0 1 2.817 0"/><path fill-opacity=".15" d="M4100.955 152.349a1.77 1.77 0 0 1-.293 1.298l-3.488 4.993a7.7 7.7 0 0 0-1.383 4.254l-.111 6.09a1.765 1.765 0 0 1-2.28 1.656l-5.828-1.776a7.67 7.67 0 0 0-4.47 0l-5.827 1.776a1.8 1.8 0 0 1-.77.052 1.765 1.765 0 0 0 2.262 1.44l5.827-1.776a7.67 7.67 0 0 1 4.472 0l5.826 1.776a1.765 1.765 0 0 0 2.28-1.657l.113-6.09a7.7 7.7 0 0 1 1.38-4.251l3.49-4.994a1.765 1.765 0 0 0-.872-2.678z"/><path fill="#fff" fill-opacity=".2" d="M4085.338 140.79a1.77 1.77 0 0 0-1.408.701l-3.672 4.86a7.7 7.7 0 0 1-3.617 2.629l-5.756 1.988a1.765 1.765 0 0 0-.871 2.68l3.488 4.992a7.67 7.67 0 0 1 1.38 4.254l.114 6.09a1.765 1.765 0 0 0 1.51 1.708 2 2 0 0 1-.017-.216l-.111-6.09a7.67 7.67 0 0 0-1.383-4.252l-3.489-4.994a1.765 1.765 0 0 1 .872-2.678l5.755-1.99a7.7 7.7 0 0 0 3.62-2.627l3.67-4.862a1.765 1.765 0 0 1 1.997-.6l-.673-.892a1.77 1.77 0 0 0-1.409-.7zm6.55 7.025.022.03a7.7 7.7 0 0 0 3.617 2.627l5.428 1.876a1.77 1.77 0 0 0-1.165-1.38l-5.755-1.989a7.7 7.7 0 0 1-2.147-1.164"/><path fill="#f9f06b" d="M4070.736 94.519a5 5 0 0 0-2.588.049l-.245.07a5 5 0 0 0-3.426 6.185 5 5 0 0 0 6.185 3.426l.256-.072a5 5 0 0 0 3.42-6.19 5 5 0 0 0-2.388-2.99 5 5 0 0 0-1.214-.478m-11.105 4.601a5 5 0 0 0-3.812.343c-10.311 5.396-19.28 13.706-25.519 24.512a5 5 0 0 0 1.83 6.832 5 5 0 0 0 6.83-1.83c5.276-9.14 12.805-16.107 21.495-20.654a5 5 0 0 0 2.111-6.748 5 5 0 0 0-2.935-2.455" overflow="visible"/><path fill-opacity=".1" d="M4085.337 221.939a66.187 66.187 0 0 0 66.187-66.188 66.2 66.2 0 0 0-20.986-48.204 66.2 66.2 0 0 1 17.986 45.204 66.187 66.187 0 0 1-66.187 66.188 66.2 66.2 0 0 1-45.205-17.986 66.2 66.2 0 0 0 48.205 20.986"/></g></svg>