<svg width="256" height="256"><g stroke-width=".602" paint-order="fill markers stroke" transform="translate(-6943.582 -130.855)scale(1.66197)"><circle cx="-4150.27" cy="950.815" r="66.187" fill="#3584e4" transform="rotate(-165)"/><circle cx="4254.942" cy="-155.752" r="51.187" fill="#1c71d8" transform="scale(1 -1)"/><path fill-opacity=".1" d="M4254.943 104.566a51.187 51.187 0 0 0-51.188 51.187 51.2 51.2 0 0 0 17.121 38.059 51.2 51.2 0 0 1-13.12-34.059 51.187 51.187 0 0 1 51.187-51.187 51.2 51.2 0 0 1 34.066 13.127 51.2 51.2 0 0 0-38.066-17.127"/><path fill-opacity=".1" d="M4254.942 221.939a66.187 66.187 0 0 0 66.187-66.187 66.2 66.2 0 0 0-20.986-48.205 66.2 66.2 0 0 1 17.986 45.205 66.187 66.187 0 0 1-66.187 66.187 66.2 66.2 0 0 1-45.205-17.986 66.2 66.2 0 0 0 48.205 20.986"/><circle cx="4254.943" cy="155.751" r="33.189" fill="#fff"/><circle cx="4254.943" cy="155.751" r="23.557" fill="#ed333b"/><circle cx="4254.943" cy="155.751" r="15.265" fill="#fff"/><circle cx="4254.943" cy="155.751" r="6.826" fill="#ed333b"/><path fill-opacity=".15" d="M4279.78 133.842a33.2 33.2 0 0 1 8.351 21.909 33.19 33.19 0 0 1-33.188 33.189 33.2 33.2 0 0 1-21.907-8.351 33.2 33.2 0 0 0 24.837 11.281 33.19 33.19 0 0 0 33.189-33.188 33.2 33.2 0 0 0-11.282-24.84"/><path fill="#99c1f1" stroke="#99c1f1" stroke-linecap="round" stroke-linejoin="round" stroke-width="3.008" d="m4278.679 118.893-10.817 10.817v13.12l10.817-10.817z"/><path fill="#62a0ea" stroke="#62a0ea" stroke-linecap="round" stroke-linejoin="round" stroke-width="3.008" d="m4291.799 132.013-10.817 10.816h-13.12l10.817-10.816z"/><path fill="#1a5fb4" stroke="#1a5fb4" stroke-linecap="round" stroke-linejoin="round" d="M4272.78 135.534c-.63 0-1.237.25-1.683.696l-8.423 8.424-8.422 8.422c-.92.92-.92 2.442 0 3.363v.002c.92.921 2.443.921 3.364 0l8.423-8.423 8.422-8.422c.92-.92.92-2.444 0-3.365a2.38 2.38 0 0 0-1.68-.697z" overflow="visible"/><path fill="#62a0ea" d="M4240.34 94.519a5 5 0 0 0-2.587.049l-.245.07a5 5 0 0 0-3.426 6.185 5 5 0 0 0 6.185 3.426l.256-.072a5 5 0 0 0 3.42-6.19 5 5 0 0 0-2.388-2.99 5 5 0 0 0-1.215-.478m-11.104 4.601a5 5 0 0 0-3.812.343c-10.311 5.396-19.28 13.706-25.519 24.512a5 5 0 0 0 1.83 6.832 5 5 0 0 0 6.829-1.83c5.277-9.14 12.806-16.107 21.496-20.654a5 5 0 0 0 2.111-6.748 5 5 0 0 0-2.935-2.455" overflow="visible"/></g></svg>