<svg width="256" height="256"><g stroke-width=".602" paint-order="fill markers stroke" transform="translate(-7225.457 -130.855)scale(1.66197)"><circle cx="-4314.096" cy="994.712" r="66.187" fill="#2ec27e" transform="rotate(-165)"/><circle cx="4424.547" cy="-155.752" r="51.187" fill="#26a269" transform="scale(1 -1)"/><path fill-opacity=".1" d="M4424.548 104.566a51.187 51.187 0 0 0-51.188 51.187 51.2 51.2 0 0 0 17.121 38.059 51.2 51.2 0 0 1-13.12-34.059 51.187 51.187 0 0 1 51.187-51.187 51.2 51.2 0 0 1 34.066 13.127 51.2 51.2 0 0 0-38.066-17.127"/><path fill-opacity=".1" d="M4424.547 221.939a66.187 66.187 0 0 0 66.187-66.187 66.2 66.2 0 0 0-20.986-48.205 66.2 66.2 0 0 1 17.986 45.205 66.187 66.187 0 0 1-66.187 66.187 66.2 66.2 0 0 1-45.205-17.986 66.2 66.2 0 0 0 48.205 20.986"/><ellipse cx="4424.547" cy="192.912" fill-opacity=".15" rx="18.65" ry="4.144"/><rect width="15.857" height="23.31" x="4416.619" y="169.601" fill="#5e5c64" rx="7.929" ry="7.929"/><path fill="#f5c211" d="M4424.545 125.7c-13.088 0-23.696 10.609-23.696 23.696 0 8.227 4.26 15.798 11.135 20.093 1.221.763 2.283 2.425 2.283 3.865 0 5.694 4.584 10.277 10.277 10.277s10.277-4.584 10.277-10.277c0-1.44 1.062-3.102 2.283-3.865a23.7 23.7 0 0 0 11.136-20.093c0-13.087-10.609-23.696-23.696-23.696"/><path fill="#f6d32d" d="M4424.548 125.692c-13.088 0-23.697 10.61-23.697 23.696 0 4.955 1.545 9.672 4.276 13.578a52.92 52.92 0 0 0 42.014-20.745c-3.038-9.584-12.005-16.529-22.593-16.529"/><path fill="#e5a50a" d="M4417.167 150.461c-2.85 0-5.196 2.338-5.205 5.189v.035c.01 2.846 2.346 5.181 5.192 5.188h2.225v24.458a1.495 1.495 0 0 0 1.495 1.495 1.495 1.495 0 0 0 1.495-1.495v-24.458h4.35v24.458a1.495 1.495 0 0 0 1.496 1.495 1.495 1.495 0 0 0 1.495-1.495v-24.458h2.225c2.845-.007 5.183-2.342 5.192-5.188v-.035c-.01-2.851-2.355-5.189-5.205-5.189s-5.196 2.338-5.205 5.189v2.233h-4.351v-2.233c-.01-2.851-2.355-5.189-5.205-5.189zm0 2.99c1.238 0 2.211.97 2.215 2.208v2.222h-2.221a2.19 2.19 0 0 1-2.209-2.207v-.015a2.19 2.19 0 0 1 2.215-2.208m14.761 0c1.238 0 2.211.97 2.215 2.208v.015a2.19 2.19 0 0 1-2.21 2.208h-2.22v-2.223a2.19 2.19 0 0 1 2.215-2.207z" overflow="visible"/><rect width="25.953" height="5.603" x="4411.571" y="173.196" fill="#9a9996" rx="2.801" ry="2.801"/><rect width="25.953" height="5.603" x="4411.571" y="181.6" fill="#9a9996" rx="2.801" ry="2.801"/><rect width="25.953" height="2.801" x="4411.571" y="178.799" fill="#5e5c64" rx="1.401" ry="1.401"/><path fill="none" stroke="#f9f06b" stroke-linecap="round" stroke-linejoin="round" stroke-width="1.799" d="M4410.583 136.302a19.7 19.7 0 0 1 13.882-5.784"/><path fill="#f6d32d" stroke="#f6d32d" stroke-linecap="round" stroke-linejoin="round" stroke-width="1.799" d="M4424.548 121.184v-2.99m0 3.013v-2.99m19.927 11.244 2.114-2.114m-41.969 41.969-2.114 2.114m-6.14-22.042h-2.99m59.353 0h2.99m-51.099-19.927-2.114-2.114m41.969 41.969 2.114 2.114"/><rect width="25.953" height="5.603" x="4411.571" y="181.6" fill="#9a9996" rx="2.801" ry="2.801"/><path fill="#57e389" d="M4409.945 94.519a5 5 0 0 0-2.587.049l-.245.07a5 5 0 0 0-3.427 6.185 5 5 0 0 0 6.186 3.426l.256-.072a5 5 0 0 0 3.42-6.19 5 5 0 0 0-2.388-2.99 5 5 0 0 0-1.215-.478m-11.104 4.601a5 5 0 0 0-3.812.343c-10.312 5.396-19.28 13.706-25.519 24.512a5 5 0 0 0 1.83 6.832 5 5 0 0 0 6.829-1.83c5.277-9.14 12.806-16.107 21.496-20.654a5 5 0 0 0 2.111-6.748 5 5 0 0 0-2.935-2.455" overflow="visible"/></g></svg>