<svg xmlns:xlink="http://www.w3.org/1999/xlink" width="512" height="512"><defs><linearGradient id="a"><stop offset="0" stop-color="#33d17a"/><stop offset="1" stop-color="#3584e4"/></linearGradient><linearGradient xlink:href="#a" id="b" x1="6327.815" x2="6839.816" y1="-836.31" y2="-836.31" gradientTransform="translate(1478.205 -1634.713)scale(.91791)" gradientUnits="userSpaceOnUse"/></defs><path fill="url(#b)" d="M7330.375-2561.248c-24.254 0-43.78 19.524-43.78 43.777 0 24.254 19.526 43.781 43.78 43.782h26.977a14.13 14.13 0 0 1 14.105 14.16 14.13 14.13 0 0 1-14.16 14.162h-.547c-20.24 3.87-35.447 21.59-35.447 42.992 0 24.254 19.528 43.781 43.781 43.781h89.531c7.628 0 13.768 6.14 13.768 13.768s-6.14 13.77-13.768 13.77h-18.097c-24.254 0-43.782 19.527-43.781 43.78 0 24.254 19.527 43.816 43.78 43.778l296.298-.459c24.254-.037 43.781-19.524 43.78-43.777.001-24.254-19.527-43.904-43.78-43.782l-90.787.46c-7.628.037-13.77-6.142-13.77-13.77a13.74 13.74 0 0 1 13.77-13.768h7.154c24.254 0 43.78-19.527 43.781-43.781s-19.527-43.777-43.781-43.777h-23.219a13.74 13.74 0 0 1-13.767-13.77 13.736 13.736 0 0 1 13.74-13.768h78.15c18.869 0 43.781-14.76 43.781-43.78 0-24.255-19.527-43.778-43.78-43.778z" paint-order="fill markers stroke" transform="translate(-7275.596 2666.242)"/><g stroke-width=".945" transform="translate(-7692.982 2796.355)scale(1.05872)"><path fill="#865e3c" d="M7356.869-2326.304v17.788a22.595 22.595 0 0 0 22.645 22.645h257.22a22.596 22.596 0 0 0 22.646-22.645v-17.788a22.597 22.597 0 0 1-22.647 22.644h-257.22a22.595 22.595 0 0 1-22.644-22.645" paint-order="fill markers stroke"/><rect width="302.511" height="212.613" x="-7659.38" y="-2509.467" fill="#b5835a" paint-order="fill markers stroke" rx="25.415" ry="25.415" transform="scale(-1 1)"/><rect width="79.062" height="79.062" x="7468.593" y="-2482.149" fill="#cdab8f" paint-order="fill markers stroke" rx="10.836" ry="10.836"/><rect width="79.062" height="79.062" x="7558.491" y="-2482.149" fill="#cdab8f" paint-order="fill markers stroke" rx="10.836" ry="10.836"/><rect width="79.062" height="79.062" x="-2392.251" y="-7457.757" fill="#cdab8f" paint-order="fill markers stroke" rx="10.836" ry="10.836" transform="rotate(90)"/><rect width="79.062" height="79.062" x="7468.593" y="-2392.251" fill="#cdab8f" paint-order="fill markers stroke" rx="10.836" ry="10.836"/><rect width="79.062" height="79.062" x="7378.696" y="-2482.149" fill="#865e3c" paint-order="fill markers stroke" rx="10.836" ry="10.836"/><path fill="#f6d32d" d="m7420.505-2465.728 5.95 7.879a12.44 12.44 0 0 0 5.865 4.26l9.331 3.224a2.86 2.86 0 0 1 1.412 4.344l-5.654 8.094a12.44 12.44 0 0 0-2.24 6.894l-.183 9.871a2.86 2.86 0 0 1-3.696 2.685l-9.445-2.876a12.44 12.44 0 0 0-7.248 0l-9.446 2.876a2.86 2.86 0 0 1-3.694-2.684l-.183-9.871a12.44 12.44 0 0 0-2.24-6.895l-5.655-8.094a2.86 2.86 0 0 1 1.411-4.344l9.333-3.224a12.44 12.44 0 0 0 5.863-4.26l5.951-7.88a2.86 2.86 0 0 1 4.568 0" paint-order="fill markers stroke"/><path fill="#cdab8f" stroke="#cdab8f" stroke-linecap="round" stroke-linejoin="round" stroke-width="9.445" d="M7384.456-2496.862h134.37m18.074 0h24.259" paint-order="stroke fill markers"/><path fill="#63452c" d="M7378.696-2417.61v3.687a10.813 10.813 0 0 0 10.837 10.836h57.39a10.81 10.81 0 0 0 10.835-10.836v-3.688a10.81 10.81 0 0 1-10.836 10.836h-57.389a10.814 10.814 0 0 1-10.838-10.836" paint-order="fill markers stroke"/><g transform="translate(1170.556 -347.921)scale(.84729)"><rect width="76.632" height="76.632" x="7542.614" y="-2409.488" fill="#cdab8f" paint-order="fill markers stroke" rx="10.503" ry="10.503"/><path fill="#99c1f1" d="M7645.24-2311.802a10.3 10.3 0 0 0-7.278 3.016 10.29 10.29 0 0 0 0 14.552l21.893 21.893a10.29 10.29 0 0 0 14.553 0 10.29 10.29 0 0 0 0-14.555l-21.89-21.89a10.3 10.3 0 0 0-7.278-3.016" overflow="visible" paint-order="fill markers stroke"/><path fill="#3584e4" d="M7645.24-2311.802a10.3 10.3 0 0 0-7.278 3.016 10.29 10.29 0 0 0 0 14.552l8.74 8.74a93.5 93.5 0 0 0 13.003-16.105l-7.188-7.187a10.3 10.3 0 0 0-7.277-3.016" paint-order="fill markers stroke"/><circle cx="7580.93" cy="-2368.08" r="93.466" fill="#99c1f1" paint-order="fill markers stroke"/><circle cx="7580.93" cy="-2368.08" r="75.256" fill="#865e3c" paint-order="fill markers stroke"/><rect width="82.801" height="40.248" x="-3879.901" y="7014.14" fill="#2ec27e" paint-order="fill markers stroke" rx="20.124" ry="20.124" transform="rotate(-135)"/><path fill="#249863" d="M7663.353-2292.376a20.3 20.3 0 0 0-4.422 3.355 20.08 20.08 0 0 0 0 28.46l30.09 30.089a20.08 20.08 0 0 0 28.459 0 20.3 20.3 0 0 0 3.355-4.422 20.08 20.08 0 0 1-24.037-3.355l-30.09-30.09a20.08 20.08 0 0 1-3.355-24.037" paint-order="fill markers stroke"/><path fill="none" stroke="#8ff0a4" stroke-linecap="round" stroke-linejoin="round" stroke-width="7.556" d="m7678.396-2286.602 23.975 23.976" paint-order="stroke fill markers"/><circle cx="7580.93" cy="-2368.08" r="67.5" fill="#b5835a" paint-order="fill markers stroke"/><path fill="#f8e45c" d="m7584.994-2413.186 10.577 14.006a22.1 22.1 0 0 0 10.426 7.574l16.588 5.731a5.086 5.086 0 0 1 2.509 7.722l-10.05 14.388a22.1 22.1 0 0 0-3.983 12.255l-.325 17.548a5.086 5.086 0 0 1-6.569 4.773l-16.79-5.113a22.1 22.1 0 0 0-12.886 0l-16.79 5.113a5.086 5.086 0 0 1-6.567-4.772l-.325-17.548a22.1 22.1 0 0 0-3.983-12.256l-10.051-14.388a5.086 5.086 0 0 1 2.508-7.722l16.59-5.731a22.1 22.1 0 0 0 10.423-7.574l10.579-14.006a5.086 5.086 0 0 1 8.119 0" paint-order="fill markers stroke"/><path fill-opacity=".2" d="M7673.851-2360.222a93.47 93.47 0 0 1-20.97 51.799l6.824 6.824a93.47 93.47 0 0 0 14.691-50.3 94 94 0 0 0-.545-8.323m-185.857.233a94 94 0 0 0-.53 8.09 93.466 93.466 0 0 0 93.465 93.464 93.47 93.47 0 0 0 57.147-19.506l15.341 15.342a20.07 20.07 0 0 0 5.514 18.217l30.09 30.09a20.08 20.08 0 0 0 28.459 0 20.08 20.08 0 0 0 4.213-22.319 20.2 20.2 0 0 1-4.213 6.14 20.08 20.08 0 0 1-28.459 0l-30.09-30.09a20.07 20.07 0 0 1-5.514-18.218l-15.341-15.341a93.47 93.47 0 0 1-57.147 19.506 93.466 93.466 0 0 1-92.935-85.375" overflow="visible" paint-order="fill markers stroke"/><path fill="none" stroke="#fff" stroke-linecap="round" stroke-linejoin="round" stroke-opacity=".2" stroke-width="28.336" d="M7530.555-2384.195c6.1-16.322 19.2-29.488 36.497-34.377 13.168-3.723 26.503-2.008 37.863 3.84" paint-order="fill markers stroke"/><path fill="none" stroke="#fff" stroke-linecap="round" stroke-linejoin="round" stroke-opacity=".3" stroke-width="14.168" d="M7626.746-2401.989q.326.573.637 1.153" paint-order="fill markers stroke"/><path fill="#fff" fill-opacity=".2" d="M7580.93-2461.546a93.466 93.466 0 0 0-93.405 90.056 110 110 0 0 0 18.152 3.998v-.587a75.256 75.256 0 0 1 75.256-75.256 75.26 75.26 0 0 1 39.621 11.273 110 110 0 0 0 6.02-17.584 93.47 93.47 0 0 0-45.64-11.9z" paint-order="fill markers stroke"/></g></g><path fill="#fff" d="M356.616 185.41a1.79 1.79 0 0 0-1.788 1.79v.098a8.37 8.37 0 0 1-8.37 8.37h-.1a1.788 1.788 0 0 0 0 3.577h.1a8.37 8.37 0 0 1 8.37 8.371v.099a1.788 1.788 0 0 0 3.576 0v-.099a8.37 8.37 0 0 1 8.37-8.37h.1a1.788 1.788 0 0 0 0-3.577h-.1a8.37 8.37 0 0 1-8.37-8.37v-.1a1.79 1.79 0 0 0-1.788-1.788M284.13 221.51a1.016 1.016 0 0 0-1.017 1.015v.057a4.756 4.756 0 0 1-4.756 4.755h-.056a1.016 1.016 0 0 0 0 2.032h.056a4.756 4.756 0 0 1 4.756 4.756v.056a1.016 1.016 0 0 0 2.032 0v-.056a4.756 4.756 0 0 1 4.756-4.756h.056a1.016 1.016 0 0 0 0-2.032h-.057a4.756 4.756 0 0 1-4.755-4.755v-.057a1.016 1.016 0 0 0-1.016-1.016m-46.342 87.043a1.28 1.28 0 0 0-1.278 1.278v.071a5.984 5.984 0 0 1-5.985 5.984h-.07a1.278 1.278 0 0 0 0 2.557h.07a5.984 5.984 0 0 1 5.984 5.984v.07a1.278 1.278 0 0 0 2.557 0v-.07a5.984 5.984 0 0 1 5.984-5.984h.071a1.278 1.278 0 0 0 0-2.557h-.071a5.984 5.984 0 0 1-5.984-5.984v-.07a1.28 1.28 0 0 0-1.278-1.28m231.604 38.833a1.016 1.016 0 0 0-1.016 1.016v.057a4.756 4.756 0 0 1-4.756 4.755h-.056a1.016 1.016 0 0 0 0 2.032h.056a4.756 4.756 0 0 1 4.756 4.756v.056a1.016 1.016 0 0 0 2.032 0V360a4.756 4.756 0 0 1 4.756-4.756h.056a1.016 1.016 0 0 0 0-2.032h-.057a4.756 4.756 0 0 1-4.755-4.755v-.057a1.016 1.016 0 0 0-1.016-1.016m-62.155-111.033a1.016 1.016 0 0 0-1.016 1.016v.057a4.756 4.756 0 0 1-4.756 4.755h-.056a1.016 1.016 0 0 0 0 2.032h.056a4.756 4.756 0 0 1 4.756 4.756v.056a1.016 1.016 0 0 0 2.032 0v-.056a4.756 4.756 0 0 1 4.756-4.756h.056a1.016 1.016 0 0 0 0-2.032h-.057a4.756 4.756 0 0 1-4.755-4.755v-.057a1.016 1.016 0 0 0-1.016-1.016m-118.63 144.394a.657.657 0 0 0-.657.657v.037a3.075 3.075 0 0 1-3.076 3.075h-.036a.657.657 0 0 0 0 1.314h.036a3.075 3.075 0 0 1 3.075 3.076v.036a.657.657 0 0 0 1.314 0v-.036a3.075 3.075 0 0 1 3.076-3.076h.037a.657.657 0 0 0 0-1.314h-.037a3.075 3.075 0 0 1-3.076-3.075v-.037a.657.657 0 0 0-.657-.657" overflow="visible" paint-order="fill markers stroke"/></svg>