<svg xmlns:xlink="http://www.w3.org/1999/xlink" width="512" height="512"><defs><radialGradient xlink:href="#a" id="e" cx="4951.793" cy="267.203" r="158.745" fx="4951.793" fy="267.203" gradientTransform="matrix(1.61346 -.08151 .84882 .9367 -3250.556 408.101)" gradientUnits="userSpaceOnUse"/><radialGradient xlink:href="#a" id="f" cx="4841.715" cy="218.504" r="158.745" fx="4841.715" fy="218.504" gradientTransform="matrix(.17502 -.14849 .25261 .64296 3929.257 832.961)" gradientUnits="userSpaceOnUse"/><radialGradient xlink:href="#a" id="g" cx="4951.793" cy="267.203" r="158.745" fx="4951.793" fy="267.203" gradientTransform="matrix(1.61346 -.08151 .84882 .9367 -3250.556 408.101)" gradientUnits="userSpaceOnUse"/><radialGradient xlink:href="#a" id="h" cx="4350.109" cy="910.827" r="17.035" fx="4350.109" fy="910.827" gradientTransform="matrix(6.92535 0 0 12.65371 -25775.914 -10572.927)" gradientUnits="userSpaceOnUse"/><radialGradient xlink:href="#a" id="i" cx="4841.715" cy="218.504" r="158.745" fx="4841.715" fy="218.504" gradientTransform="matrix(.17502 -.14849 .25261 .64296 3929.257 832.961)" gradientUnits="userSpaceOnUse"/><linearGradient id="a"><stop offset="0" stop-color="#ff7800" stop-opacity=".5"/><stop offset=".5" stop-color="#f6d32d" stop-opacity=".4"/><stop offset="1" stop-color="#f9f06b" stop-opacity="0"/></linearGradient><linearGradient xlink:href="#b" id="d" x1="12034.909" x2="12034.909" y1="-2218.642" y2="-2481.096" gradientUnits="userSpaceOnUse"/><linearGradient id="b"><stop offset="0" stop-color="#c061cb"/><stop offset="1" stop-color="#f66151"/></linearGradient></defs><g stroke-width=".863"><path fill="url(#d)" d="M11882.26-2481.096a27.163 27.163 0 0 0-27.223 27.223 27.163 27.163 0 0 0 27.178 27.223h31.299a7.687 7.687 0 0 1 7.678 7.703 7.686 7.686 0 0 1-7.704 7.7h-27.793c-12.622 0-22.783 12.142-22.783 27.224 0 13.633 8.304 24.865 19.223 26.896a8 8 0 0 1 1.476-.135h17.85a7.92 7.92 0 0 1 7.934 7.934 7.917 7.917 0 0 1-7.934 7.933h-53.947c-15.082 0-27.223 12.007-27.223 26.92v.606c0 14.913 12.141 26.92 27.223 26.92h53.301a6.953 6.953 0 0 1 6.934 6.968 6.95 6.95 0 0 1-6.967 6.968h-.1c-14.108 1.05-25.154 12.76-25.154 27.146a27.164 27.164 0 0 0 27.223 27.225h264.316a27.164 27.164 0 0 0 27.223-27.225 27.16 27.16 0 0 0-21.035-26.521 7.305 7.305 0 0 1-6.215-7.24 7.304 7.304 0 0 1 7.285-7.32h41.92c15.081 0 27.222-12.007 27.222-26.92v-.606c0-14.914-12.141-26.92-27.222-26.92h-10.477a8.447 8.447 0 0 1-8.465-8.467 8.45 8.45 0 0 1 6.444-8.227c9.191-3.503 15.812-13.762 15.812-25.935 0-15.082-10.163-27.223-22.785-27.223h-158.248a7.684 7.684 0 0 1-7.701-7.701 7.686 7.686 0 0 1 7.678-7.703h2.172a27.163 27.163 0 0 0 27.178-27.223 27.163 27.163 0 0 0-27.223-27.222z" paint-order="fill markers stroke" transform="matrix(1.15791 0 0 1.15997 -13675.841 3024.916)"/><g transform="matrix(1.15791 0 0 1.15997 -12369.718 3024.916)"><path fill="url(#e)" d="M4753.388 106.066h143.906l161.142 217.876h-67.622z" paint-order="fill markers stroke" transform="matrix(.31006 0 0 1.3227 9323.497 -2690.339)"/><path fill="url(#f)" d="m4787.99 154.898 22.147-14.42 39.378 170.264h-7.182z" paint-order="fill markers stroke" transform="matrix(1.76537 0 0 1.21005 2309.994 -2637.875)"/><path fill="url(#g)" d="M4753.388 106.066h143.906l161.142 217.876h-67.622z" paint-order="fill markers stroke" transform="matrix(-.31006 0 0 1.3227 12490.616 -2690.339)"/><path fill="url(#h)" d="M4302.348 736.868h95.523l-30.727 337.77h-34.07z" paint-order="fill markers stroke" transform="matrix(.87958 0 0 .88594 7080.644 -3213.929)"/><path fill="url(#i)" d="m4787.99 154.898 22.147-14.42 39.378 170.264h-7.182z" paint-order="fill markers stroke" transform="matrix(-1.76537 0 0 1.21005 19503.838 -2637.875)"/><path fill="none" stroke="#f6d32d" stroke-linecap="round" stroke-linejoin="round" stroke-width="10.354" d="M10858.253-2399.493h-15.814c-13.86 0-24.017 11.364-19.271 24.354 6.285 17.206 18.997 37.216 44.128 37.216" paint-order="fill markers stroke"/><path fill="#f5c211" d="M10906.916-2312.866a11.29 11.29 0 0 0-11.315 11.312v9.989a17.06 17.06 0 0 1-17.056 17.058 11.29 11.29 0 0 0-11.315 11.315h79.373a11.29 11.29 0 0 0-11.314-11.315 17.06 17.06 0 0 1-17.059-17.058v-9.989a11.29 11.29 0 0 0-11.314-11.312" paint-order="fill markers stroke"/><rect width="38.537" height="49.674" x="10887.647" y="-2344.032" fill="#e5a50a" paint-order="fill markers stroke" rx="19.269" ry="19.269"/><path fill="none" stroke="#e5a50a" stroke-linecap="round" stroke-linejoin="round" stroke-width="10.354" d="M10957.698-2399.493h15.814c13.86 0 24.017 11.364 19.271 24.354-6.285 17.206-18.997 37.216-44.128 37.216" paint-order="fill markers stroke"/><rect width="71.964" height="71.964" x="9869.205" y="-5228.247" fill="#b5835a" paint-order="fill markers stroke" rx="9.863" ry="9.863" transform="rotate(15)"/><rect width="59.822" height="59.822" x="9875.276" y="-5222.176" fill="#986a44" paint-order="fill markers stroke" rx="8.199" ry="8.199" transform="rotate(15)"/><path fill-opacity=".2" d="M10894.266-2486.262a8.18 8.18 0 0 0-6.004 5.857l-11.239 41.944a8.19 8.19 0 0 0 1.916 7.717c.03-.097.04-.196.07-.294l11.24-41.945a8.18 8.18 0 0 1 10.041-5.797l41.945 11.24a8.2 8.2 0 0 1 3.881 2.325 8.18 8.18 0 0 0-5.87-9.749l-41.945-11.24a8.2 8.2 0 0 0-4.037-.06z" paint-order="fill markers stroke"/><path fill="#63452c" d="m10914.406-2467.182-5.277 4.114a8.43 8.43 0 0 1-4.587 1.76l-6.675.475a1.94 1.94 0 0 0-1.686 2.596l2.281 6.29a8.43 8.43 0 0 1 .258 4.907l-1.612 6.495a1.94 1.94 0 0 0 1.948 2.406l6.688-.227a8.43 8.43 0 0 1 4.746 1.272l5.679 3.54a1.94 1.94 0 0 0 2.89-1.11l1.85-6.43a8.43 8.43 0 0 1 2.677-4.12l5.122-4.308a1.94 1.94 0 0 0-.162-3.091l-5.544-3.748a8.43 8.43 0 0 1-3.092-3.818l-2.514-6.202a1.94 1.94 0 0 0-2.99-.801" paint-order="fill markers stroke"/><path fill="#f5c211" d="M10852.203-2424.06v62.227c0 30.654 24.678 55.33 55.332 55.33 30.653 0 55.33-24.676 55.33-55.33v-62.226z" paint-order="fill markers stroke"/><path fill="#e5a50a" d="M11018.175-2349.799c-.712.04-1.348.53-1.542 1.254-.93 3.472-1.532 6.684-.743 9.792.79 3.108 3.042 5.844 7.03 8.146a1.698 1.698 0 0 0 2.486-1.031c.82-3.063 1.067-6.441.191-9.658s-2.95-6.241-6.478-8.278a1.7 1.7 0 0 0-.944-.225m19.256 17.158a1.9 1.9 0 0 0-.738.123c-3.805 1.436-7.151 3.002-9.486 5.778a12 12 0 0 0-1.68 2.663 17 17 0 0 0-.973-1.516 15.14 15.14 0 0 0-6.953-5.343 16.7 16.7 0 0 0-3.195-.86 1.92 1.92 0 0 0-2.225 2.076c.39 4.049 1.026 7.69 3.094 10.67 2.656 3.467 6.85 5.522 11.183 5.861.088-.01 5.66-1.596 9.489-6.308 2.378-2.926 3.788-6.83 3.333-11.416a1.92 1.92 0 0 0-1.849-1.728m-23.954 17.772c-.97.026-1.86.715-2.046 1.753-.814 4.454-1.242 8.545.066 12.366 1.762 4.451 5.655 8.11 10.202 9.682.066.01 6.528.021 12.075-3.869 3.437-2.41 6.136-6.162 7.043-11.212a2.14 2.14 0 0 0-.525-1.815 2.1 2.1 0 0 0-.67-.497v.002a2.14 2.14 0 0 0-1.087-.196c-4.512.38-8.572 1.037-11.917 3.3q-1.44.97-2.61 2.34a19 19 0 0 0-.582-1.916c-1.427-3.948-4.34-7.535-8.977-9.732a2.1 2.1 0 0 0-.97-.206zm-5.766 17.456a2.4 2.4 0 0 0-2.058 1.105c-8.843 13.77 3.337 26.46 4.106 27.006.072.056 8.62 3.829 15.932-.093 4.006-2.149 6.787-5.852 9.528-10.148a2.404 2.404 0 0 0-1.301-3.584c-5.507-1.74-10.657-1.017-14.86 1.145q-1.005.52-1.943 1.133a14.6 14.6 0 0 0-.36-3.927c-1.025-4.428-3.87-8.081-7.3-11.85a2.4 2.4 0 0 0-1.742-.786zm-9.782 16.707a2.4 2.4 0 0 0-1.536.497c-4.579 3.52-6.932 8.157-7.564 12.84-1.017 7.54 2.322 13.987 2.383 14.071 3.875 3.737 9.625 5.782 14.948 5.187 4.496-.669 8.366-3.213 12.398-6.33a2.404 2.404 0 0 0-.015-3.815 21 21 0 0 0-3.526-2.18 18.97 18.97 0 0 0-10.845-1.76q-1.126.147-2.218.41c.51-1.253.837-2.524.99-3.818.53-4.514-.911-8.915-2.865-13.622a2.4 2.4 0 0 0-2.15-1.48m-14.734 10.996a2.5 2.5 0 0 0-.649.085c-5.824 1.561-9.952 5.093-12.436 9.356-2.361 4.381-3.599 9.299-3.387 14.29.043.265 4.085 9.138 12.391 11.222 4.604 1.155 9.351.251 14.487-1.141a2.51 2.51 0 0 0 1.513-3.686c-3.03-5.214-7.514-8.272-12.279-9.554a23 23 0 0 0-2.303-.49 15.3 15.3 0 0 0 2.486-3.29c2.32-4.14 2.687-8.96 2.687-14.28a2.51 2.51 0 0 0-2.51-2.512" overflow="visible" paint-order="stroke fill markers"/><path fill="none" stroke="#e5a50a" stroke-linecap="round" stroke-linejoin="round" stroke-width="3.451" d="M10960.702-2243.44c29.114-6.857 39.372-15.155 48.215-24.179s22.028-36.015 14.305-67.131" paint-order="fill markers stroke"/><path fill="#e5a50a" d="M10795.657-2349.799c.712.04 1.348.53 1.542 1.254.93 3.472 1.532 6.684.743 9.792-.79 3.108-3.042 5.844-7.03 8.146a1.698 1.698 0 0 1-2.486-1.031c-.82-3.063-1.067-6.441-.191-9.658s2.95-6.241 6.478-8.278q.209-.12.443-.177.253-.062.5-.048m-19.256 17.158c.25-.009.5.033.738.123 3.805 1.436 7.151 3.002 9.486 5.778.67.795 1.225 1.685 1.68 2.663q.445-.779.973-1.516a15.14 15.14 0 0 1 6.953-5.343 16.7 16.7 0 0 1 3.195-.86 1.92 1.92 0 0 1 2.225 2.076c-.39 4.049-1.026 7.69-3.094 10.67-2.656 3.467-6.85 5.522-11.183 5.861-.088-.01-5.66-1.596-9.489-6.308-2.378-2.926-3.788-6.83-3.333-11.416a1.92 1.92 0 0 1 1.849-1.728m23.954 17.772c.97.026 1.86.715 2.046 1.753.814 4.454 1.242 8.545-.066 12.366-1.762 4.451-5.655 8.11-10.202 9.682-.066.01-6.528.021-12.075-3.869-3.437-2.41-6.136-6.162-7.044-11.212a2.14 2.14 0 0 1 .526-1.815c.19-.208.416-.378.67-.497v.002a2.14 2.14 0 0 1 1.087-.196c4.512.38 8.572 1.037 11.917 3.3q1.44.97 2.61 2.34.24-.968.582-1.916c1.427-3.948 4.34-7.535 8.977-9.732a2.1 2.1 0 0 1 .97-.206zm5.766 17.456q.119-.002.237.009a2.4 2.4 0 0 1 1.82 1.095c8.844 13.77-3.336 26.461-4.105 27.007-.072.056-8.62 3.829-15.932-.093-4.006-2.149-6.787-5.852-9.528-10.148a2.404 2.404 0 0 1 1.301-3.584c5.507-1.74 10.657-1.017 14.86 1.145q1.005.52 1.943 1.133c-.057-1.35.066-2.658.36-3.927 1.025-4.428 3.87-8.081 7.3-11.85a2.4 2.4 0 0 1 1.742-.786zm9.782 16.707a2.4 2.4 0 0 1 1.536.497c4.579 3.52 6.932 8.157 7.564 12.84 1.017 7.54-2.322 13.987-2.383 14.071-3.875 3.737-9.625 5.782-14.948 5.187-4.496-.669-8.367-3.213-12.398-6.33a2.404 2.404 0 0 1 .015-3.815 21 21 0 0 1 3.526-2.18 18.97 18.97 0 0 1 10.845-1.76q1.126.147 2.218.41a14.6 14.6 0 0 1-.99-3.818c-.53-4.514.911-8.915 2.865-13.622a2.4 2.4 0 0 1 2.15-1.48m14.734 10.996q.328 0 .649.085c5.824 1.561 9.952 5.093 12.436 9.356 2.361 4.381 3.599 9.299 3.387 14.29-.043.265-4.085 9.138-12.391 11.222-4.604 1.155-9.351.251-14.487-1.141a2.51 2.51 0 0 1-1.513-3.686c3.03-5.214 7.514-8.272 12.279-9.554a23 23 0 0 1 2.303-.49 15.3 15.3 0 0 1-2.486-3.29c-2.32-4.14-2.687-8.96-2.687-14.28a2.51 2.51 0 0 1 2.51-2.512" overflow="visible" paint-order="stroke fill markers"/><path fill="none" stroke="#e5a50a" stroke-linecap="round" stroke-linejoin="round" stroke-width="3.451" d="M10853.13-2243.44c-29.114-6.857-39.372-15.155-48.215-24.179s-22.028-36.015-14.305-67.131" paint-order="fill markers stroke"/><path fill="#865e3c" d="M10862.279-2263.192a8.87 8.87 0 0 0-8.566 6.572l-7.293 27.217a6.377 6.377 0 0 0 6.16 8.027h108.672a6.377 6.377 0 0 0 6.16-8.027l-7.293-27.217a8.87 8.87 0 0 0-8.566-6.572z" paint-order="fill markers stroke"/><rect width="129.577" height="17.848" x="10842.746" y="-2432.983" fill="#f5c211" paint-order="fill markers stroke" rx="8.924" ry="8.924"/><path fill="none" d="M10926.713-2432.983a8.904 8.904 0 0 1 8.924 8.924 8.904 8.904 0 0 1-8.924 8.924h36.686a8.904 8.904 0 0 0 8.924-8.924 8.904 8.904 0 0 0-8.924-8.924z" paint-order="fill markers stroke"/><path fill="#f6d32d" d="M10852.204-2424.06v62.227a55.21 55.21 0 0 0 37.256 52.332 55.21 55.21 0 0 0 37.253-52.332v-62.226z" paint-order="fill markers stroke"/><path fill="#f8e45c" d="M10851.67-2432.983a8.906 8.906 0 0 0-8.925 8.924 8.906 8.906 0 0 0 8.925 8.924h77.131a8.904 8.904 0 0 0 8.924-8.924 8.904 8.904 0 0 0-8.924-8.924z" paint-order="fill markers stroke"/><rect width="110.662" height="9.642" x="10852.203" y="-2415.135" fill="#f5c211" paint-order="fill markers stroke" rx="0" ry="0"/><path fill="#986a44" d="M10862.28-2263.192a8.87 8.87 0 0 0-8.566 6.573l-7.293 27.217a6.376 6.376 0 0 0 6.159 8.027h41.083l24.14-41.817z" paint-order="fill markers stroke"/><path fill="#f6d32d" d="M10895.602-2297.971v6.406a17.06 17.06 0 0 1-17.057 17.058 11.29 11.29 0 0 0-11.314 11.315h50.572c-2.22-14.524-10.502-26.999-22.201-34.78" paint-order="fill markers stroke"/><path fill="#f9f06b" stroke="#f9f06b" stroke-linecap="round" stroke-linejoin="round" stroke-width="6.04" d="M10862.225-2424.06h37.255" paint-order="fill markers stroke"/><path fill="none" stroke="#f8e45c" stroke-linecap="round" stroke-linejoin="round" stroke-width="8.629" d="M10863.725-2395.806v33.38c0 11.736 4.367 22.414 11.57 30.504" paint-order="fill markers stroke"/><g stroke-width=".92" paint-order="fill markers stroke" transform="translate(6834.996 -2897.989)scale(.93836)"><rect width="73.009" height="27.754" x="4302.877" y="683.897" fill="#f8e45c" rx="13.877" ry="13.877"/><path fill="#f5c211" d="m4346.26 683.896-16.024 27.754h8.082l16.024-27.754zm15.603 0-16.023 27.754h16.17a13.846 13.846 0 0 0 13.877-13.877c0-7.687-6.19-13.877-13.877-13.877z" overflow="visible"/></g><path fill="none" stroke="#f9f06b" stroke-linecap="round" stroke-linejoin="round" stroke-width="4.314" d="M10893.634-2272.924a20.08 20.08 0 0 0 7.752-13.31" paint-order="fill markers stroke"/><path fill="none" stroke="#c49c7b" stroke-linecap="round" stroke-linejoin="round" stroke-width="4.314" d="m10895.385-2490.043 26.546 7.113" paint-order="fill markers stroke"/><path fill="none" stroke="#c49c7b" stroke-linecap="round" stroke-linejoin="round" stroke-width="5.177" d="m10895.385-2490.043 26.546 7.113" paint-order="fill markers stroke"/><g paint-order="fill markers stroke" transform="translate(6069.513 -2902.372)"><rect width="14.5" height="14.5" x="3818.748" y="2748.802" fill="#9141ac" rx="0" ry="0" transform="rotate(-30)"/><rect width="14.5" height="14.5" x="-4699.784" y="-741.691" fill="#33d17a" rx="0" ry="0" transform="scale(-1 1)rotate(-15)"/><circle cx="4732.931" cy="462.536" r="7.159" fill="#9141ac"/><circle cx="4765.635" cy="449.501" r="5.745" fill="#e01b24"/><circle cx="4738.941" cy="427.092" r="4.596" fill="#f6d32d"/><circle cx="4706.945" cy="433.633" r="4.596" fill="#3584e4"/><rect width="13.99" height="13.99" x="-4689.258" y="-852.292" fill="#e01b24" rx="0" ry="0" transform="scale(-1 1)rotate(-15)"/><rect width="13.99" height="13.99" x="-4730.164" y="-844.033" fill="#3584e4" rx="0" ry="0" transform="scale(-1 1)rotate(-15)"/><circle cx="4776.683" cy="375.508" r="4.596" fill="#9141ac"/><circle cx="4807.296" cy="395.68" r="4.596" fill="#33d17a"/><rect width="13.99" height="13.99" x="-3676.645" y="-3163.76" fill="#f6d32d" rx="0" ry="0" transform="scale(-1 1)rotate(-45)"/><circle cx="4873.431" cy="384.786" r="7.159" fill="#3584e4"/><circle cx="4919.155" cy="473.811" r="5.745" fill="#3584e4"/><circle cx="4982.061" cy="434.155" r="5.089" fill="#9141ac"/><circle cx="4953.561" cy="428.316" r="4.339" fill="#3584e4"/><circle cx="4952.811" cy="457.691" r="5.089" fill="#e01b24"/><circle cx="4923.481" cy="435.236" r="4.008" fill="#33d17a"/><circle cx="4906.606" cy="374.986" r="4.008" fill="#e01b24"/><rect width="13.99" height="13.99" x="4626.391" y="1655.911" fill="#9141ac" rx="0" ry="0" transform="rotate(-15)"/><rect width="13.99" height="13.99" x="4078.501" y="2805.768" fill="#33d17a" rx="0" ry="0" transform="rotate(-30)"/><rect width="13.99" height="13.99" x="3195.437" y="3854.187" fill="#f6d32d" rx="0" ry="0" transform="rotate(-45)"/><rect width="13.99" height="13.99" x="2047.055" y="4530.067" fill="#9141ac" rx="0" ry="0" transform="rotate(-60)"/></g><path fill="#865e3c" stroke="#63452c" stroke-dashoffset="24.375" stroke-linecap="round" stroke-linejoin="round" stroke-width="7.766" d="M10841.178-2216.876h131.476" paint-order="fill markers stroke"/></g></g></svg>