<svg xmlns:xlink="http://www.w3.org/1999/xlink" width="512" height="512"><defs><linearGradient id="a" x1="148.014" x2="148.014" y1="53.205" y2="356.728" gradientTransform="translate(4933.698 -639.256)scale(1.30632)" gradientUnits="userSpaceOnUse"><stop offset="0" stop-color="#33d17a"/><stop offset="1" stop-color="#f6d32d"/></linearGradient><linearGradient xlink:href="#a" id="c" x1="148.014" x2="148.014" y1="53.205" y2="356.728" gradientTransform="matrix(1.19583 0 0 1.19574 9365.418 -2645.914)" gradientUnits="userSpaceOnUse"/><linearGradient xlink:href="#b" id="d" x1="8674.518" x2="8674.518" y1="-2391.142" y2="-2359.632" gradientTransform="translate(2.474)" gradientUnits="userSpaceOnUse"/><linearGradient id="b"><stop offset="0" stop-color="#fff"/><stop offset="1" stop-color="#fff" stop-opacity="0"/></linearGradient><linearGradient xlink:href="#b" id="e" x1="8674.518" x2="8674.518" y1="-2391.142" y2="-2352.426" gradientTransform="matrix(.5 0 0 .5 4361.797 -1169.86)" gradientUnits="userSpaceOnUse"/><linearGradient xlink:href="#b" id="f" x1="8674.518" x2="8674.518" y1="-2391.142" y2="-2359.632" gradientTransform="translate(-1840.55 507.113)scale(1.2179)" gradientUnits="userSpaceOnUse"/></defs><g stroke-width=".994"><path fill="url(#c)" d="m8676.353-2238.535 95.15-95.142a19.355 19.355 0 0 1 27.374 0l49.706 49.7a19.35 19.35 0 0 0 21.097 4.198 19.4 19.4 0 0 0 6.28-4.197l71.127-71.122a19.354 19.354 0 0 0 0-27.374l-49.704-49.7a19.357 19.357 0 0 1 0-27.375l27.944-27.942a19.355 19.355 0 0 0 0-27.372l-71.128-71.124a19.356 19.356 0 0 0-27.375 0l-150.298 150.286a19.354 19.354 0 0 1-27.375 0l-55.2-55.195a19.36 19.36 0 0 0-27.377 0l-71.128 71.122a19.373 19.373 0 0 0-.012 27.387l153.557 153.838a19.336 19.336 0 0 0 27.363.014z" transform="matrix(1.00624 0 0 1.00617 -8507.602 2682.242)"/><g stroke-width=".989" transform="matrix(1.01124 0 0 1.0111 -5134.444 -134.1)"><path fill="none" stroke="#813d9c" stroke-dashoffset="24.375" stroke-linecap="round" stroke-linejoin="round" stroke-width="39.558" d="m5485.92 335.729-94.89-54.785" paint-order="fill markers stroke"/><path fill="#c061cb" d="M5443.357 408.498c-31.325 0-56.543 25.217-56.543 56.542v77.84h113.088v-77.84c0-31.325-25.22-56.542-56.545-56.542" paint-order="fill markers stroke"/><path fill="#813d9c" d="M5456.816 408.498c-31.325 0-56.543 25.217-56.543 56.542v77.84h113.089v-77.84c0-31.325-25.22-56.542-56.546-56.542" paint-order="fill markers stroke"/><path fill="#613583" d="M5386.814 521.078a23.677 23.677 0 0 0-23.728 23.728v7.29a24 24 0 0 1 3.282-.222h170.722v-7.068a23.677 23.677 0 0 0-23.728-23.728z" paint-order="fill markers stroke"/><path fill="#813d9c" stroke="#9141ac" stroke-dashoffset="24.375" stroke-linecap="round" stroke-linejoin="round" stroke-width="54.392" d="m5456.818 444.34 29.102-108.611" paint-order="fill markers stroke"/><path fill="#9141ac" stroke="#613583" stroke-dashoffset="24.375" stroke-linecap="round" stroke-linejoin="round" stroke-width="24.724" d="m5391.03 280.944-53.738 53.738" paint-order="fill markers stroke"/><path fill="#813d9c" d="M5391.03 268.444a12.5 12.5 0 0 0-8.84 3.66l-53.737 53.739a12.5 12.5 0 0 0-2.377 3.379 13 13 0 0 0 .377.43 12.5 12.5 0 0 0 17.678 0l53.736-53.739a12.5 12.5 0 0 0 2.377-3.379 13 13 0 0 0-.377-.43 12.5 12.5 0 0 0-8.838-3.66" overflow="visible" paint-order="fill markers stroke"/><circle cx="5280.048" cy="-1123.93" r="23.396" fill="#c061cb" paint-order="fill markers stroke" transform="rotate(15)"/><circle cx="5391.029" cy="280.944" r="13.001" fill="#613583" paint-order="fill markers stroke"/><path fill="#9141ac" stroke="#c061cb" stroke-dashoffset="24.375" stroke-linecap="round" stroke-linejoin="round" stroke-width="14.834" d="m5337.291 334.682-31.6 8.467m54.734 14.666-23.134-23.133m23.134 23.133-16.358 28.333" paint-order="fill markers stroke"/><circle cx="5337.292" cy="334.682" r="15.296" fill="#c061cb" paint-order="stroke fill markers"/><circle cx="5337.292" cy="334.682" r="8.283" fill="#613583" paint-order="stroke fill markers"/><path fill="#c061cb" d="M5485.92 308.23a27.5 27.5 0 0 0-7.117.937 27.5 27.5 0 0 0-19.446 19.445l-23.505 87.727a28 28 0 0 0 .9.258 27.5 27.5 0 0 0 33.68-19.446l23.506-87.726a28 28 0 0 0-.9-.258 27.5 27.5 0 0 0-7.118-.938" overflow="visible" paint-order="fill markers stroke"/><circle cx="5485.92" cy="335.729" r="12.051" fill="#613583" paint-order="fill markers stroke"/><path fill="none" stroke="#dc8add" stroke-dashoffset="24.375" stroke-linecap="round" stroke-linejoin="round" stroke-width="6.923" d="m5451.522 395.332 10.59-40.775m9.538-33.097c4.931-4.922 12.279-7.153 19.492-5.22" paint-order="fill markers stroke"/><path fill="none" stroke="#c061cb" stroke-dashoffset="24.375" stroke-linecap="round" stroke-linejoin="round" stroke-width="6.923" d="m5453.529 304.836-30.109-17.076" paint-order="fill markers stroke"/><circle cx="5456.817" cy="444.339" r="14.551" fill="#613583" paint-order="fill markers stroke"/><path fill="none" stroke="#dc8add" stroke-dashoffset="24.375" stroke-linecap="round" stroke-linejoin="round" stroke-width="4.945" d="M5382.116 265.537c5.326-3.063 12.1-3.283 17.81.01" paint-order="fill markers stroke"/><path fill="none" stroke="#dc8add" stroke-linecap="round" stroke-linejoin="round" stroke-width="2.967" d="M5341.875 323.971q.867.373 1.655.873m-14.474 1.602a11.6 11.6 0 0 1 8.236-3.411" paint-order="stroke fill markers"/></g><g stroke-width=".989" paint-order="fill markers stroke" transform="matrix(1.01124 0 0 1.0111 -5134.444 -134.1)"><rect width="327" height="78.5" x="5138" y="473.597" fill="#1c71d8" rx="39.25" ry="39.25"/><path fill="#3584e4" d="M5414.273 527.847a4 4 0 0 0-4 4 4 4 0 0 0 4 4h43.327a39 39 0 0 0 4.453-8zm-.213-21.75a7.5 7.5 0 0 0-7.5 7.5 7.5 7.5 0 0 0 7.5 7.5h50.079c.564-2.659.861-5.419.861-8.25a40 40 0 0 0-.572-6.75zm.131-17.75a5.5 5.5 0 0 0-5.5 5.5 5.5 5.5 0 0 0 5.5 5.5h48.444a39.1 39.1 0 0 0-6.174-11z" overflow="visible"/><rect width="327" height="78.5" x="5101" y="473.597" fill="#62a0ea" rx="39.25" ry="39.25"/><rect width="305.357" height="56.5" x="5111.822" y="484.597" fill="#1a5fb4" rx="28.25" ry="28.25"/><path fill="#99c1f1" d="M5388.93 488.927a23.92 23.92 0 0 0-23.92 23.92 23.92 23.92 0 0 0 23.92 23.92 23.92 23.92 0 0 0 23.918-23.92 23.92 23.92 0 0 0-23.918-23.92m0 12.67c6.232 0 11.25 5.017 11.25 11.25s-5.018 11.25-11.25 11.25a11.225 11.225 0 0 1-11.25-11.25c0-6.233 5.017-11.25 11.25-11.25"/><path fill="#1c71d8" d="M5140.072 488.927v6.064a24 24 0 0 0-2.053 2.069 15.88 15.88 0 0 0-13.863 15.787 15.88 15.88 0 0 0 13.863 15.787 24 24 0 0 0 2.053 2.068v6.065h15.918a23.92 23.92 0 0 0 23.919-23.92 23.92 23.92 0 0 0-23.919-23.92z"/><path fill="#99c1f1" d="M5140.072 488.927a23.92 23.92 0 0 0-23.92 23.92 23.92 23.92 0 0 0 23.92 23.92 23.92 23.92 0 0 0 23.918-23.92 23.92 23.92 0 0 0-23.918-23.92m0 12.67c6.233 0 11.25 5.017 11.25 11.25s-5.017 11.25-11.25 11.25a11.225 11.225 0 0 1-11.25-11.25c0-6.233 5.018-11.25 11.25-11.25"/><path fill="#1c71d8" d="M5223.025 488.927v6.064a24 24 0 0 0-2.053 2.069 15.88 15.88 0 0 0-13.863 15.787 15.88 15.88 0 0 0 13.863 15.787 24 24 0 0 0 2.053 2.068v6.065h15.918a23.92 23.92 0 0 0 23.918-23.92 23.92 23.92 0 0 0-23.918-23.92z"/><path fill="#99c1f1" d="M5223.025 488.927a23.92 23.92 0 0 0-23.92 23.92 23.92 23.92 0 0 0 23.92 23.92 23.92 23.92 0 0 0 23.918-23.92 23.92 23.92 0 0 0-23.918-23.92m0 12.67c6.232 0 11.25 5.017 11.25 11.25s-5.018 11.25-11.25 11.25a11.225 11.225 0 0 1-11.25-11.25c0-6.233 5.017-11.25 11.25-11.25"/><path fill="#1c71d8" d="M5305.977 488.927v6.064a24 24 0 0 0-2.053 2.069 15.88 15.88 0 0 0-13.863 15.787 15.88 15.88 0 0 0 13.863 15.787 24 24 0 0 0 2.053 2.068v6.065h15.918a23.92 23.92 0 0 0 23.918-23.92 23.92 23.92 0 0 0-23.918-23.92z"/><path fill="#99c1f1" d="M5305.977 488.927a23.92 23.92 0 0 0-23.92 23.92 23.92 23.92 0 0 0 23.92 23.92 23.92 23.92 0 0 0 23.918-23.92 23.92 23.92 0 0 0-23.918-23.92m0 12.67c6.233 0 11.25 5.017 11.25 11.25s-5.017 11.25-11.25 11.25a11.225 11.225 0 0 1-11.25-11.25c0-6.233 5.018-11.25 11.25-11.25"/><path fill="#1c71d8" stroke="#99c1f1" stroke-dashoffset="24.375" stroke-linecap="round" stroke-linejoin="round" stroke-width="6.923" d="M5138 477.097h250.75"/><path fill="none" stroke="#fff" stroke-dashoffset="24.375" stroke-linecap="round" stroke-linejoin="round" stroke-opacity=".5" stroke-width="3.956" d="M5124.595 503.91a17.8 17.8 0 0 1 10.856-8.31m72.097 8.31a17.8 17.8 0 0 1 10.856-8.31m72.096 8.31a17.8 17.8 0 0 1 10.856-8.31m72.097 8.31a17.8 17.8 0 0 1 10.856-8.31"/></g><path fill="none" stroke="#613583" stroke-dashoffset="24.375" stroke-linecap="round" stroke-linejoin="round" stroke-width="14.908" d="m8473.248-2238.51 453.023-.224" paint-order="fill markers stroke" transform="matrix(1.00624 0 0 1.00617 -8507.602 2682.242)"/><g stroke-width=".989"><path fill="#26a269" d="M100.32 289.143a5.46 5.46 0 0 0-4.727 2.727l-25.812 44.7a5.458 5.457 0 0 0 4.729 8.184h51.62a5.458 5.457 0 0 0 4.726-8.185l-25.81-44.699a5.46 5.46 0 0 0-4.726-2.727" overflow="visible" paint-order="stroke fill markers"/><path fill="#33d17a" d="M100.319 289.144a5.46 5.46 0 0 0-4.725 2.727l-24.7 42.773h49.399a5.458 5.457 0 0 0 4.724-8.186l-19.972-34.59-.01-.009a5.46 5.46 0 0 0-4.72-2.716z" overflow="visible" paint-order="stroke fill markers"/><path fill="none" stroke="#8ff0a4" stroke-dashoffset="24.375" stroke-linecap="round" stroke-linejoin="round" stroke-width="9.89" d="m5165.457 449.283 9.451-16.37" paint-order="fill markers stroke" transform="matrix(1.01124 0 0 1.0111 -5134.444 -134.1)"/></g><g stroke-width=".989" paint-order="fill markers stroke"><path fill="#e5a50a" d="M161.784 290.279a8.124 7.99 60.108 0 0-2.915 2.942l-11.102 19.552a8.124 7.99 60.108 0 0 .06 8.09l11.382 19.712a8.124 7.99 60.108 0 0 6.976 4.097l22.483.163a8.124 7.99 60.108 0 0 6.92-3.995l11.101-19.555a8.124 7.99 60.108 0 0-.058-8.09l-11.382-19.713a8.124 7.99 60.108 0 0-6.978-4.096l-22.483-.162a8.124 7.99 60.108 0 0-4.004 1.056z" overflow="visible"/><path fill="#f6d32d" d="M165.788 289.225a8.124 7.99 60.108 0 0-4.004 1.055 8.124 7.99 60.108 0 0-2.915 2.94l-11.103 19.553a8.124 7.99 60.108 0 0 .062 8.09l7.902 13.688a8.124 7.99 60.108 0 0 .34.01l22.484.164a8.124 7.99 60.108 0 0 6.918-3.995l11.103-19.555a8.124 7.99 60.108 0 0-.058-8.093l-7.902-13.685a8.124 7.99 60.108 0 0-.344-.01z" overflow="visible"/><path fill="none" stroke="#f9f06b" stroke-dashoffset="24.375" stroke-linecap="round" stroke-linejoin="round" stroke-width="9.89" d="m5237.908 437.562 4.725-8.185" transform="matrix(1.01124 0 0 1.0111 -5134.444 -134.1)"/></g><path fill="none" stroke="url(#d)" stroke-dashoffset="24.375" stroke-linecap="round" stroke-linejoin="round" stroke-width="9.938" d="M8676.991-2392.01v32.378" paint-order="fill markers stroke" transform="matrix(1.00624 0 0 1.00617 -8507.602 2682.242)"/><path fill="#fff" fill-opacity=".5" stroke="url(#e)" stroke-dashoffset="24.375" stroke-linecap="round" stroke-linejoin="round" stroke-width="9.938" d="M8699.067-2365.868v20.29" paint-order="fill markers stroke" transform="matrix(1.00624 0 0 1.00617 -8507.602 2682.242)"/><path fill="#fff" fill-opacity=".5" stroke="url(#f)" stroke-dashoffset="24.375" stroke-linecap="round" stroke-linejoin="round" stroke-width="9.938" d="M8724.162-2406.121v39.434" paint-order="fill markers stroke" transform="matrix(1.00624 0 0 1.00617 -8507.602 2682.242)"/><path fill="#1c71d8" d="M278.268 244.21a8.9 8.9 0 0 0-5.41-4.15l-36.509-9.782a8.91 8.91 0 0 0-10.914 6.3l-9.783 36.504a8.91 8.91 0 0 0 6.3 10.91l36.509 9.782a8.91 8.91 0 0 0 10.914-6.301l9.782-36.503a8.9 8.9 0 0 0-.889-6.76" overflow="visible" paint-order="stroke fill markers"/><path fill="#3584e4" d="M234.042 229.974a8.91 8.91 0 0 0-8.607 6.604l-9.783 36.503a9 9 0 0 0-.285 1.745l32.98 8.838a8.91 8.91 0 0 0 10.915-6.302l9.782-36.503a9 9 0 0 0 .287-1.744l-32.982-8.837a9 9 0 0 0-2.307-.304" overflow="visible" paint-order="stroke fill markers"/><path fill="none" stroke="#99c1f1" stroke-dashoffset="24.375" stroke-linecap="round" stroke-linejoin="round" stroke-width="9.938" d="m8623.782-2407.635 4.916-18.348" paint-order="fill markers stroke" transform="matrix(1.00624 0 0 1.00617 -8449.151 2682.242)"/><path fill="#9141ac" stroke="#c061cb" stroke-dashoffset="24.375" stroke-linecap="round" stroke-linejoin="round" stroke-width="14.908" d="M8626.24-2454.232v32.876" paint-order="fill markers stroke" transform="matrix(1.00624 0 0 1.00617 -8449.151 2682.242)"/></g></svg>