<svg xmlns:xlink="http://www.w3.org/1999/xlink" width="512" height="512"><defs><linearGradient xlink:href="#a" id="b" x1="2534.481" x2="3048.619" y1="2330.165" y2="2330.165" gradientTransform="matrix(.89143 0 0 .811 5294.867 -3790.983)" gradientUnits="userSpaceOnUse"/><linearGradient id="a"><stop offset="0" stop-color="#3584e4"/><stop offset="1" stop-color="#dc8add"/></linearGradient></defs><g stroke-width=".992"><path fill="url(#b)" d="M7682.81-2056.083c-23.652 0-42.694 19.03-42.694 42.67s19.042 42.672 42.694 42.672h35.226a13.394 13.394 0 0 1 13.427 13.42c0 7.435-5.989 13.42-13.427 13.42h-69.408c-23.652 0-42.694 19.033-42.694 42.673s19.042 42.67 42.694 42.67h18.127a13.394 13.394 0 0 1 13.427 13.42 13.394 13.394 0 0 1-13.4 13.42h-69.905c-23.652 0-42.694 19.032-42.694 42.672s19.042 42.67 42.694 42.67h325.384c23.653 0 42.694-19.03 42.694-42.67 0-23.624-19.016-42.647-42.647-42.672h-37.2a13.394 13.394 0 0 1-13.401-13.42c0-7.435 5.989-13.42 13.427-13.42h84.672c23.653 0 42.695-19.03 42.695-42.67s-19.042-42.672-42.695-42.672H7900.8a13.394 13.394 0 0 1-13.427-13.42c0-7.435 5.989-13.42 13.427-13.42h4.913c23.652 0 42.695-19.033 42.695-42.673s-19.043-42.67-42.695-42.67z" paint-order="fill markers stroke" transform="matrix(1.00803 0 0 1.00797 -7589.833 2170.519)"/><path fill="none" stroke="#1a5fb4" stroke-dashoffset="24.375" stroke-linecap="round" stroke-linejoin="round" stroke-width="14.881" d="M7547.733-1738.881h471.217" paint-order="fill markers stroke" transform="matrix(1.00803 0 0 1.00797 -7589.833 2170.519)"/><g stroke-width=".883" paint-order="fill markers stroke" transform="matrix(1.13402 0 0 1.1298 -8057.33 2286.448)"><rect width="10.805" height="24.544" x="7430.13" y="-1945.283" fill="#1a5fb4" rx="5.403" ry="5.403"/><circle cx="7435.532" cy="-1871.088" r="55.658" fill="#1a5fb4"/><circle cx="7435.532" cy="-1875.84" r="55.658" fill="#1c71d8"/><circle cx="-6584.134" cy="-3931.297" r="44.899" fill="#f6f5f4" transform="rotate(135)"/><path fill="#e01b24" d="M7435.533-1920.738v44.9l31.748 31.747a44.9 44.9 0 0 0 0-63.498 44.9 44.9 0 0 0-31.748-13.15"/><path fill="#1a5fb4" d="M7435.531-1886.584a10.744 10.744 0 0 0-10.744 10.745 10.744 10.744 0 0 0 10.744 10.744 10.7 10.7 0 0 0 4.078-.803l19.961 19.96a4.146 4.146 0 0 0 5.864 0 4.146 4.146 0 0 0 0-5.862l-19.961-19.961a10.7 10.7 0 0 0 .804-4.078 10.744 10.744 0 0 0-10.746-10.745"/><rect width="10.805" height="25.474" x="-1947.021" y="-7448.27" fill="#3584e4" rx="5.403" ry="5.403" transform="rotate(90)"/><rect width="12.64" height="17.236" x="-6650.109" y="-3939.915" fill="#1c71d8" rx="6.32" ry="6.32" transform="rotate(135)"/><rect width="12.64" height="17.236" x="3865.321" y="6575.516" fill="#1c71d8" rx="6.32" ry="6.32" transform="scale(1 -1)rotate(-45)"/><path fill="#fff" d="M7437.856-1916.685a41 41 0 0 0-5.143.049c-13.128.945-25.61 8.148-32.639 20.324a10 10 0 0 0 3.66 13.66 10 10 0 0 0 13.66-3.66c3.922-6.792 10.909-10.554 18.14-10.525v-.11c0-7.86 2.93-14.808 7.468-19.135a41 41 0 0 0-5.147-.603z" overflow="visible"/><path fill="#f66151" d="M7435.533-1916.744v19.906c3.543.014 7.143.938 10.47 2.86a10 10 0 0 0 13.661-3.66 10 10 0 0 0-3.66-13.66 40.55 40.55 0 0 0-20.47-5.446" overflow="visible"/></g><path fill="#fff" fill-opacity=".5" d="M241.314 189.658a1.44 1.44 0 0 1 1.216.67l2.173 3.442 3.442 2.173a1.438 1.438 0 0 1 0 2.431l-3.442 2.173-2.173 3.442a1.438 1.438 0 0 1-2.431 0l-2.173-3.442-3.442-2.173a1.438 1.438 0 0 1 0-2.431l3.442-2.173 2.173-3.441a1.44 1.44 0 0 1 1.215-.67m26.484-33.523a1.1 1.1 0 0 1 .931.514l1.667 2.638 2.638 1.666a1.103 1.103 0 0 1 0 1.864l-2.638 1.666-1.667 2.64a1.103 1.103 0 0 1-1.864 0l-1.666-2.64-2.639-1.666a1.103 1.103 0 0 1 0-1.864l2.64-1.666 1.665-2.638a1.1 1.1 0 0 1 .932-.514m-45.557-45.48a1.1 1.1 0 0 1 .932.514l1.666 2.638 2.639 1.667a1.103 1.103 0 0 1 0 1.863l-2.639 1.667-1.666 2.638a1.103 1.103 0 0 1-1.864 0l-1.666-2.638-2.64-1.667a1.103 1.103 0 0 1 0-1.863l2.64-1.667 1.666-2.638a1.1 1.1 0 0 1 .932-.514m-72.09 23.13a1.1 1.1 0 0 0-.932.513l-1.667 2.639-2.638 1.666a1.103 1.103 0 0 0 0 1.864l2.638 1.666 1.667 2.639a1.103 1.103 0 0 0 1.864 0l1.666-2.639 2.639-1.666a1.103 1.103 0 0 0 0-1.864l-2.64-1.666-1.665-2.639a1.1 1.1 0 0 0-.932-.513m-50.122 89.954a1.44 1.44 0 0 0-1.215.67l-2.173 3.441-3.442 2.174a1.438 1.438 0 0 0 0 2.43l3.442 2.174 2.173 3.442a1.438 1.438 0 0 0 2.431 0l2.173-3.442 3.442-2.173a1.438 1.438 0 0 0 0-2.431l-3.441-2.174-2.174-3.44a1.44 1.44 0 0 0-1.215-.67" overflow="visible" paint-order="fill markers stroke"/><g transform="matrix(1.00803 0 0 1.00797 -7589.833 2170.519)"><path fill="#e5a50a" d="m7721.848-1998.466-39.374.01c-6.443.001-11.837 5.392-11.837 11.832v39.353c0 6.44 5.391 11.832 11.835 11.831h19.685c-6.345-.12-11.614-5.462-11.613-11.828v-39.353c0-6.44 5.395-11.83 11.838-11.831h19.685-.219z" overflow="visible" paint-order="stroke fill markers"/><path fill="#f6d32d" d="M7732.126-1998.465h-39.373c-6.443 0-11.837 5.393-11.837 11.833v39.353c0 6.44 5.391 11.831 11.835 11.83h39.374c6.443 0 11.84-5.394 11.84-11.834v-39.353c0-6.44-5.395-11.83-11.839-11.829" overflow="visible" paint-order="stroke fill markers"/><path fill="#813d9c" stroke="#f9f06b" stroke-dashoffset="24.375" stroke-linecap="round" stroke-linejoin="round" stroke-width="6.944" d="M7690.498-1992.76h19.841" paint-order="fill markers stroke"/><ellipse cx="7712.44" cy="-1966.955" fill="#e5a50a" paint-order="fill markers stroke" rx="14.153" ry="14.145"/></g><path fill="#865e3c" d="m228.766 219.65-39.69.01c-6.495 0-11.932 5.435-11.933 11.926v39.667c0 6.49 5.435 11.926 11.93 11.925h19.844c-6.396-.121-11.707-5.506-11.706-11.922v-39.667c0-6.491 5.437-11.925 11.932-11.926h19.844-.222z" overflow="visible" paint-order="stroke fill markers"/><path fill="#b5835a" d="M239.127 219.652h-39.69c-6.495 0-11.931 5.435-11.932 11.926v39.666c0 6.492 5.435 11.926 11.93 11.925h39.69c6.494 0 11.935-5.437 11.935-11.929v-39.666c0-6.492-5.439-11.924-11.933-11.923" overflow="visible" paint-order="stroke fill markers"/><text xml:space="preserve" x="7735.023" y="-1888.145" fill="#865e3c" stroke-dashoffset="24.375" stroke-linecap="round" stroke-linejoin="round" stroke-opacity=".5" stroke-width="4.96" font-family="Cantarell" font-size="46.949" font-weight="700" paint-order="fill markers stroke" style="-inkscape-font-specification:&quot;Cantarell Bold&quot;;text-align:center" transform="matrix(1.0083 0 0 1.0077 -7589.833 2170.519)"><tspan x="7735.023" y="-1888.145">?</tspan></text><path fill="#813d9c" stroke="#cdab8f" stroke-dashoffset="24.375" stroke-linecap="round" stroke-linejoin="round" stroke-width="6.944" d="M7725.115-1929.738h19.84" paint-order="fill markers stroke" transform="matrix(1.00803 0 0 1.00797 -7589.833 2170.519)"/><path fill="#26a269" d="m159.277 219.65-39.69.01c-6.494 0-11.932 5.435-11.933 11.926v39.667c0 6.49 5.436 11.926 11.93 11.925h19.845c-6.396-.121-11.708-5.506-11.707-11.922v-39.667c0-6.491 5.438-11.925 11.932-11.926h19.844-.221z" overflow="visible" paint-order="stroke fill markers"/><path fill="#33d17a" d="M169.638 219.652H129.95c-6.496 0-11.932 5.435-11.933 11.926v39.666c0 6.492 5.435 11.926 11.93 11.925h39.69c6.495 0 11.935-5.437 11.935-11.929v-39.666c.001-6.492-5.438-11.924-11.933-11.923" overflow="visible" paint-order="stroke fill markers"/><path fill="#26a269" d="M149.794 238.731a2.49 2.49 0 0 0-2.156 1.244L135.86 260.36a2.49 2.49 0 0 0 2.157 3.733h23.553a2.49 2.49 0 0 0 2.157-3.733l-11.777-20.385a2.49 2.49 0 0 0-2.157-1.244" overflow="visible" paint-order="stroke fill markers"/><path fill="#813d9c" stroke="#8ff0a4" stroke-dashoffset="24.375" stroke-linecap="round" stroke-linejoin="round" stroke-width="6.944" d="M7656.18-1929.738h19.84" paint-order="fill markers stroke" transform="matrix(1.00803 0 0 1.00797 -7589.833 2170.519)"/><path fill="#1a5fb4" d="m263.51 283.176-39.69.01c-6.495 0-11.932 5.433-11.932 11.924v39.668c0 6.491 5.434 11.926 11.93 11.925h19.843c-6.395-.122-11.706-5.505-11.706-11.922v-39.668c0-6.491 5.438-11.924 11.933-11.925h19.843-.221z" overflow="visible" paint-order="stroke fill markers"/><path fill="#3584e4" d="M273.87 283.176h-39.689c-6.495 0-11.932 5.436-11.932 11.927v39.667c0 6.491 5.435 11.925 11.93 11.924h39.69c6.494 0 11.936-5.437 11.936-11.928v-39.667c0-6.491-5.439-11.924-11.934-11.923" overflow="visible" paint-order="stroke fill markers"/><path fill="#1a5fb4" d="M254.027 299.4a4.022 4.087.324 0 0-2.01.547l-9.76 5.726a4.022 4.087.324 0 0-2.01 3.54v11.45a4.022 4.087.324 0 0 2.01 3.54l9.757 5.724a4.022 4.087.324 0 0 4.022 0l9.76-5.727a4.022 4.087.324 0 0 2.01-3.539v-11.45a4.022 4.087.324 0 0-2.01-3.54l-9.758-5.725a4.022 4.087.324 0 0-2.01-.546" overflow="visible" paint-order="fill markers stroke"/><path fill="#813d9c" stroke="#99c1f1" stroke-dashoffset="24.375" stroke-linecap="round" stroke-linejoin="round" stroke-width="6.944" d="M7759.582-1866.715h19.841" paint-order="fill markers stroke" transform="matrix(1.00803 0 0 1.00797 -7589.833 2170.519)"/><path fill="#865e3c" d="m194.022 283.176-39.69.01c-6.495 0-11.933 5.433-11.933 11.924v39.668c0 6.491 5.436 11.926 11.93 11.925h19.843c-6.396-.122-11.707-5.505-11.706-11.922v-39.668c0-6.491 5.438-11.924 11.933-11.925h19.843-.22z" overflow="visible" paint-order="stroke fill markers"/><path fill="#b5835a" d="M204.382 283.176h-39.69c-6.494 0-11.931 5.436-11.931 11.927v39.667c0 6.491 5.435 11.925 11.93 11.924h39.69c6.495 0 11.935-5.437 11.935-11.928v-39.667c0-6.491-5.438-11.924-11.934-11.923" overflow="visible" paint-order="stroke fill markers"/><text xml:space="preserve" x="7700.565" y="-1825.106" fill="#865e3c" stroke-dashoffset="24.375" stroke-linecap="round" stroke-linejoin="round" stroke-opacity=".5" stroke-width="4.96" font-family="Cantarell" font-size="46.949" font-weight="700" paint-order="fill markers stroke" style="-inkscape-font-specification:&quot;Cantarell Bold&quot;;text-align:center" transform="matrix(1.0083 0 0 1.0077 -7589.833 2170.519)"><tspan x="7700.565" y="-1825.106">?</tspan></text><path fill="#813d9c" stroke="#cdab8f" stroke-dashoffset="24.375" stroke-linecap="round" stroke-linejoin="round" stroke-width="6.944" d="M7690.647-1866.715h19.841" paint-order="fill markers stroke" transform="matrix(1.00803 0 0 1.00797 -7589.833 2170.519)"/><path fill="#1a5fb4" d="m124.534 283.176-39.691.01c-6.495 0-11.932 5.433-11.932 11.924v39.668c0 6.491 5.434 11.926 11.93 11.925h19.843c-6.396-.122-11.706-5.505-11.706-11.922v-39.668c0-6.491 5.438-11.924 11.933-11.925h19.843-.221z" overflow="visible" paint-order="stroke fill markers"/><path fill="#3584e4" d="M134.893 283.176H95.204c-6.495 0-11.932 5.436-11.932 11.927v39.667c0 6.491 5.436 11.925 11.93 11.924h39.69c6.495 0 11.935-5.437 11.935-11.928v-39.667c0-6.491-5.438-11.924-11.934-11.923" overflow="visible" paint-order="stroke fill markers"/><path fill="#1a5fb4" d="M115.05 299.4a4.022 4.086.324 0 0-2.01.547l-9.76 5.727a4.022 4.086.324 0 0-2.01 3.539v11.45a4.022 4.086.324 0 0 2.01 3.54l9.757 5.724a4.022 4.086.324 0 0 4.022 0l9.76-5.727a4.022 4.086.324 0 0 2.011-3.54v-11.45a4.022 4.086.324 0 0-2.01-3.538l-9.759-5.725a4.022 4.086.324 0 0-2.01-.547" overflow="visible" paint-order="fill markers stroke"/><path fill="#813d9c" stroke="#99c1f1" stroke-dashoffset="24.375" stroke-linecap="round" stroke-linejoin="round" stroke-width="6.944" d="M7621.712-1866.715h19.841" paint-order="fill markers stroke" transform="matrix(1.00803 0 0 1.00797 -7589.833 2170.519)"/><path fill="#813d9c" d="m298.254 346.7-39.69.01c-6.494 0-11.931 5.434-11.932 11.925v39.667c0 6.491 5.435 11.926 11.93 11.925h19.844c-6.396-.12-11.708-5.505-11.708-11.922v-39.668c.001-6.49 5.439-11.924 11.933-11.924h19.845-.222z" overflow="visible" paint-order="stroke fill markers"/><path fill="#c061cb" d="M308.615 346.701h-39.69c-6.495 0-11.93 5.435-11.932 11.926v39.667c0 6.491 5.435 11.925 11.93 11.924h39.69c6.495 0 11.935-5.437 11.935-11.928v-39.667c.001-6.491-5.438-11.923-11.933-11.922" overflow="visible" paint-order="stroke fill markers"/><path fill="#813d9c" d="M288.77 364.201a4.735 4.692 0 0 0-2.782.897l-10.155 7.31a4.735 4.692 0 0 0-1.72 5.245l3.88 11.828a4.735 4.692 0 0 0 4.501 3.241h12.552a4.735 4.692 0 0 0 4.504-3.24l3.879-11.83a4.735 4.692 0 0 0-1.72-5.245l-10.155-7.31a4.735 4.692 0 0 0-2.784-.897" overflow="visible" paint-order="stroke fill markers"/><path fill="#813d9c" stroke="#dc8add" stroke-dashoffset="24.375" stroke-linecap="round" stroke-linejoin="round" stroke-width="6.944" d="M7795.991-1803.692h19.84" paint-order="fill markers stroke" transform="matrix(1.00803 0 0 1.00797 -7589.833 2170.519)"/><path fill="#865e3c" d="m228.766 346.7-39.69.01c-6.495 0-11.932 5.434-11.933 11.925v39.667c0 6.491 5.435 11.926 11.93 11.926h19.844c-6.396-.122-11.707-5.506-11.706-11.923v-39.667c0-6.49 5.437-11.925 11.932-11.926h19.844-.22z" overflow="visible" paint-order="stroke fill markers"/><path fill="#b5835a" d="M239.127 346.701h-39.69c-6.495 0-11.931 5.436-11.932 11.926v39.667c0 6.491 5.435 11.925 11.93 11.924h39.69c6.494 0 11.935-5.437 11.935-11.928v-39.667c0-6.491-5.439-11.923-11.933-11.922" overflow="visible" paint-order="stroke fill markers"/><text xml:space="preserve" x="7735.023" y="-1762.066" fill="#865e3c" stroke-dashoffset="24.375" stroke-linecap="round" stroke-linejoin="round" stroke-opacity=".5" stroke-width="4.96" font-family="Cantarell" font-size="46.949" font-weight="700" paint-order="fill markers stroke" style="-inkscape-font-specification:&quot;Cantarell Bold&quot;;text-align:center" transform="matrix(1.0083 0 0 1.0077 -7589.833 2170.519)"><tspan x="7735.023" y="-1762.066">?</tspan></text><path fill="#813d9c" stroke="#cdab8f" stroke-dashoffset="24.375" stroke-linecap="round" stroke-linejoin="round" stroke-width="6.944" d="M7727.056-1803.692h19.84" paint-order="fill markers stroke" transform="matrix(1.00803 0 0 1.00797 -7589.833 2170.519)"/><path fill="#865e3c" d="m159.277 346.7-39.69.01c-6.494 0-11.932 5.434-11.933 11.925v39.667c0 6.491 5.436 11.926 11.93 11.925h19.845c-6.396-.12-11.708-5.505-11.707-11.922v-39.668c0-6.49 5.438-11.924 11.932-11.924h19.844-.221z" overflow="visible" paint-order="stroke fill markers"/><path fill="#b5835a" d="M169.638 346.701h-39.69c-6.495 0-11.931 5.435-11.932 11.926v39.667c0 6.491 5.435 11.925 11.93 11.924h39.69c6.495 0 11.935-5.437 11.935-11.928v-39.667c.001-6.491-5.438-11.923-11.933-11.922" overflow="visible" paint-order="stroke fill markers"/><text xml:space="preserve" x="7666.106" y="-1762.067" fill="#865e3c" stroke-dashoffset="24.375" stroke-linecap="round" stroke-linejoin="round" stroke-opacity=".5" stroke-width="4.96" font-family="Cantarell" font-size="46.949" font-weight="700" paint-order="fill markers stroke" style="-inkscape-font-specification:&quot;Cantarell Bold&quot;;text-align:center" transform="matrix(1.0083 0 0 1.0077 -7589.833 2170.519)"><tspan x="7666.106" y="-1762.067">?</tspan></text><path fill="#813d9c" stroke="#cdab8f" stroke-dashoffset="24.375" stroke-linecap="round" stroke-linejoin="round" stroke-width="6.944" d="M7658.121-1803.692h19.84" paint-order="fill markers stroke" transform="matrix(1.00803 0 0 1.00797 -7589.833 2170.519)"/><path fill="#865e3c" d="m89.79 346.7-39.691.01c-6.495 0-11.932 5.434-11.933 11.925v39.667c0 6.491 5.435 11.926 11.93 11.925H69.94c-6.396-.12-11.707-5.505-11.706-11.922v-39.668c0-6.49 5.437-11.924 11.932-11.924H90.01h-.22z" overflow="visible" paint-order="stroke fill markers"/><path fill="#b5835a" d="M100.15 346.701H60.46c-6.495 0-11.932 5.435-11.933 11.926v39.667c0 6.491 5.436 11.925 11.93 11.924h39.69c6.495 0 11.936-5.437 11.936-11.928v-39.667c.002-6.491-5.439-11.923-11.933-11.922" overflow="visible" paint-order="stroke fill markers"/><text xml:space="preserve" x="7597.19" y="-1762.067" fill="#865e3c" stroke-dashoffset="24.375" stroke-linecap="round" stroke-linejoin="round" stroke-opacity=".5" stroke-width="4.96" font-family="Cantarell" font-size="46.949" font-weight="700" paint-order="fill markers stroke" style="-inkscape-font-specification:&quot;Cantarell Bold&quot;;text-align:center" transform="matrix(1.0083 0 0 1.0077 -7589.833 2170.519)"><tspan x="7597.19" y="-1762.067">?</tspan></text><path fill="#813d9c" stroke="#cdab8f" stroke-dashoffset="24.375" stroke-linecap="round" stroke-linejoin="round" stroke-width="6.944" d="M7587.245-1803.692h19.84" paint-order="fill markers stroke" transform="matrix(1.00803 0 0 1.00797 -7589.833 2170.519)"/><g transform="matrix(1.00803 0 0 1.00797 -7589.833 2170.519)"><path fill="#e5a50a" d="m7923.03-1809.398 39.373.01c6.444 0 11.837 5.391 11.838 11.831v39.353c0 6.44-5.392 11.832-11.835 11.832h-19.685c6.344-.121 11.613-5.463 11.613-11.829v-39.353c0-6.44-5.395-11.83-11.838-11.831h-19.686.22z" overflow="visible" paint-order="stroke fill markers"/><path fill="#f6d32d" d="M7912.751-1809.397h39.374c6.443 0 11.836 5.393 11.837 11.832v39.353c0 6.44-5.392 11.831-11.835 11.83h-39.374c-6.443 0-11.84-5.394-11.84-11.834v-39.353c-.001-6.44 5.395-11.829 11.838-11.828" overflow="visible" paint-order="stroke fill markers"/><ellipse cx="-7932.437" cy="-1777.889" fill="#e5a50a" paint-order="fill markers stroke" rx="14.153" ry="14.145" transform="scale(-1 1)"/><path fill="#813d9c" stroke="#f9f06b" stroke-dashoffset="24.375" stroke-linecap="round" stroke-linejoin="round" stroke-width="6.944" d="M7912.585-1803.692h19.84" paint-order="fill markers stroke"/></g><path fill="#865e3c" d="m387.752 283.176 39.689.01c6.495 0 11.932 5.434 11.933 11.925v39.667c0 6.491-5.435 11.926-11.93 11.926H407.6c6.395-.122 11.706-5.506 11.706-11.923v-39.667c0-6.491-5.438-11.924-11.933-11.925H387.53h.222z" overflow="visible" paint-order="stroke fill markers"/><path fill="#b5835a" d="M377.391 283.176h39.69c6.494 0 11.93 5.436 11.931 11.927v39.667c0 6.491-5.435 11.925-11.93 11.924h-39.69c-6.495 0-11.935-5.437-11.935-11.928v-39.667c0-6.491 5.438-11.923 11.934-11.922" overflow="visible" paint-order="stroke fill markers"/><text xml:space="preserve" x="7911.511" y="-1825.107" fill="#865e3c" stroke-dashoffset="24.375" stroke-linecap="round" stroke-linejoin="round" stroke-opacity=".5" stroke-width="4.96" font-family="Cantarell" font-size="46.949" font-weight="700" paint-order="fill markers stroke" style="-inkscape-font-specification:&quot;Cantarell Bold&quot;;text-align:center" transform="matrix(1.0083 0 0 1.0077 -7589.833 2170.519)"><tspan x="7911.511" y="-1825.107">?</tspan></text><path fill="#813d9c" stroke="#cdab8f" stroke-dashoffset="24.375" stroke-linecap="round" stroke-linejoin="round" stroke-width="6.944" d="M7903.59-1866.714h19.84" paint-order="fill markers stroke" transform="matrix(1.00803 0 0 1.00797 -7589.833 2170.519)"/><g stroke-width=".916" paint-order="fill markers stroke"><path fill="#f9f06b" d="M194.69 392.26h40.98" overflow="visible"/><path fill-opacity=".2" d="M170.092 220.094a5.461 5.458 0 0 0-5.461 5.458v179.221a5.461 5.458 0 0 0 5.46 5.458 5.461 5.458 0 0 0 5.462-5.458v-7.054h32.22v7.053a5.461 5.458 0 0 0 5.46 5.458 5.461 5.458 0 0 0 5.462-5.458v-179.22a5.461 5.458 0 0 0-5.461-5.458 5.461 5.458 0 0 0-5.461 5.458v68.734h-32.22v-68.734a5.461 5.458 0 0 0-5.461-5.458m5.46 85.107h32.22v19.923h-32.22zm0 30.838h32.22v19.923h-32.22zm0 30.839h32.22v19.925h-32.22z" overflow="visible"/><path fill="#e01b24" d="M170.006 220.096a5.461 5.458 0 0 0-.713.058 5.461 5.458 0 0 0-4.603 6.197l24.542 165.758v.152a5.461 5.458 0 0 0 .28 1.722v.002l1.714 11.585a5.461 5.458 0 0 0 6.204 4.601 5.461 5.458 0 0 0 4.601-6.198l-.925-6.254h32.1l1.163 7.851a5.461 5.458 0 0 0 6.204 4.601 5.461 5.458 0 0 0 4.6-6.198l-26.535-179.221a5.461 5.458 0 0 0-6.2-4.598 5.461 5.458 0 0 0-4.604 6.198l.925 6.254h-32.1l-1.163-7.853a5.461 5.458 0 0 0-5.488-4.657zm8.268 23.425h32.1l2.95 19.924h-32.102zm4.565 30.84h32.1l2.95 19.925H185.79zm4.568 30.84h32.1l2.948 19.923h-32.1zm4.565 30.838h32.1l2.95 19.923h-32.1zm4.564 30.839h32.1l2.951 19.925h-32.1z" overflow="visible"/><path fill="#f66151" d="M213.149 220.096a5.461 5.458 0 0 0-.714.058l28.135 190.017a5.461 5.458 0 0 0 4.602-6.198l-26.535-179.221a5.461 5.458 0 0 0-5.488-4.656m-43.142 0a5.461 5.458 0 0 0-.714.058l28.136 190.017a5.461 5.458 0 0 0 4.601-6.198l-26.535-179.221a5.461 5.458 0 0 0-5.488-4.656"/></g></g></svg>