<svg xmlns:xlink="http://www.w3.org/1999/xlink" width="512" height="512"><defs><linearGradient xlink:href="#a" id="c" x1="8334.73" x2="8334.73" y1="-2094.209" y2="-1773.694" gradientTransform="translate(0 -13.425)" gradientUnits="userSpaceOnUse"/><linearGradient id="a"><stop offset="0" stop-color="#3d3846"/><stop offset="1" stop-color="#3584e4"/></linearGradient><linearGradient id="b"><stop offset="0" stop-color="#e01b24" stop-opacity=".5"/><stop offset="1" stop-color="#e01b24" stop-opacity="0"/></linearGradient><radialGradient xlink:href="#b" id="d" cx="4340.001" cy="204.631" r="250" fx="4340.001" fy="204.631" gradientTransform="matrix(-1.43492 0 0 -1.0614 14530.447 -1836.848)" gradientUnits="userSpaceOnUse"/></defs><g stroke-width=".972"><path fill="url(#c)" d="M8214.23-2107.634c-24.86 0-44.874 20.013-44.874 44.874 0 24.84 19.98 44.84 44.811 44.875h26.718a12.67 12.67 0 0 1 12.664 12.694 12.67 12.67 0 0 1-12.697 12.697h-73.746c-24.86 0-44.875 20.014-44.875 44.875 0 24.86 20.014 44.874 44.875 44.874h61.835a13.05 13.05 0 0 1 13.078 13.078 13.05 13.05 0 0 1-13.078 13.078h-29.423q-.58 0-1.148-.05c-20.99 3.775-36.822 22.051-36.822 44.16 0 24.862 20.014 44.878 44.875 44.878h268.685c24.861 0 44.875-20.016 44.875-44.877 0-24.86-20.014-44.874-44.875-44.874h-48.541a12.666 12.666 0 0 1-12.694-12.695 12.67 12.67 0 0 1 12.694-12.697h127.178c24.86 0 44.874-20.014 44.874-44.875 0-24.86-20.014-44.874-44.874-44.874h-219.942a12.67 12.67 0 0 1-12.697-12.697 12.67 12.67 0 0 1 12.663-12.695h1.025c24.83-.034 44.811-20.035 44.811-44.874 0-24.861-20.014-44.875-44.874-44.875z" paint-order="fill markers stroke" transform="matrix(1.02857 0 0 1.02862 -8343.316 2252.447)"/><path fill="url(#d)" d="m8265.598-2070.543-70.872 281.85h216.345l-70.871-281.85z" paint-order="fill markers stroke" transform="matrix(1.02857 0 0 1.02862 -8343.316 2252.447)"/><g paint-order="fill markers stroke" transform="matrix(1.02857 0 0 1.02862 -8231.012 2238.359)"><g stroke-width="1.156"><path fill="#ed333b" d="M8229.96-2092.268v35.172c0 20.067-16.154 36.221-36.222 36.221s-36.221-16.154-36.221-36.221v-35.172z"/><path fill="#a51d2d" d="M8222.425-2084.842v27.855c0 15.893-12.793 28.687-28.687 28.687s-28.687-12.794-28.687-28.687v-27.856z" overflow="visible"/><path fill="#e01b24" d="M8210.024-2073.04v14.503a16.25 16.25 0 0 1-16.286 16.285 16.25 16.25 0 0 1-16.284-16.285v-14.504z"/><path fill="#f66151" d="M8205.446-2073.04v11.665a11.68 11.68 0 0 1-11.708 11.708 11.683 11.683 0 0 1-11.708-11.708v-11.666z"/><path fill="none" stroke="#f66151" stroke-linecap="round" stroke-linejoin="round" stroke-width="6.721" d="M8214.531-2037.185c-5.218 5.48-12.593 8.885-20.793 8.885m28.687-35.793v7.106a28.8 28.8 0 0 1-1.502 9.22" overflow="visible"/></g><rect width="98.275" height="37.344" x="8144.577" y="2056.865" fill="#9141ac" rx="12.917" ry="12.917" transform="scale(1 -1)"/><path fill="#613583" stroke="#dc8add" stroke-dashoffset="24.375" stroke-linecap="round" stroke-linejoin="round" stroke-width="9.722" d="M8156.092-2082.998h21.75"/></g><path fill="none" stroke="#26a269" stroke-dashoffset="24.57" stroke-linecap="round" stroke-linejoin="round" stroke-width="14.583" d="M8192.028-1781.194h336.794" paint-order="fill markers stroke" transform="matrix(1.02857 0 0 1.02862 -8343.316 2252.447)"/><g stroke-width="1.021"><path fill="#62a0ea" fill-opacity=".9" d="M232.186 296.572a89.706 89.71 0 0 0 109.867 63.434 89.706 89.71 0 0 0 63.431-109.87 89.706 89.71 0 0 0-109.866-63.434 89.706 89.71 0 0 0-63.432 109.87" overflow="visible" paint-order="fill markers stroke"/><g stroke-width="1.248"><path fill="#865e3c" d="M326.95 296.33c-3.102-1.971-4.063-6.216-2.104-9.314l11.964-18.932c1.957-3.098 6.195-4.041 9.298-2.072l18.963 12.037c3.104 1.97 4.063 6.214 2.105 9.313l-11.964 18.93c-1.957 3.098-6.192 4.045-9.296 2.074z" overflow="visible" paint-order="stroke fill markers"/><path fill="#b5835a" d="M362.878 270.602c3.103 1.97 4.064 6.215 2.105 9.313l-11.964 18.933c-1.957 3.097-6.195 4.04-9.298 2.072l-18.964-12.038c-3.103-1.97-4.061-6.213-2.104-9.312l11.964-18.93c1.957-3.099 6.193-4.045 9.296-2.074z" overflow="visible" paint-order="stroke fill markers"/><text xml:space="preserve" x="8607.371" y="473.226" fill="#865e3c" stroke-dashoffset="24.375" stroke-linecap="round" stroke-linejoin="round" stroke-width="8.739" font-family="Cantarell" font-size="30.863" font-weight="700" paint-order="fill markers stroke" style="-inkscape-font-specification:&quot;Cantarell Bold&quot;;text-align:center" transform="matrix(.67726 .42987 -.42988 .67446 -5291.08 -3735.066)"><tspan x="8607.371" y="473.226" font-weight="800" style="-inkscape-font-specification:&quot;Cantarell Ultra-Bold&quot;">?</tspan></text><path fill="none" stroke="#cdab8f" stroke-dashoffset="24.375" stroke-linecap="round" stroke-linejoin="round" stroke-width="4.994" d="m8384.857-2006.578 6.179-2.105" paint-order="fill markers stroke" transform="scale(.80097 .801)rotate(48.818 1834.722 -9609.794)"/></g><g stroke-width="1.248"><path fill="#1a5fb4" d="m397.957 310.71-26.214 7.025c-4.056 1.086-8.325-1.294-9.38-5.226l-6.81-25.419c-1.054-3.932 1.453-8.127 5.51-9.213l26.213-7.025c4.057-1.086 8.328 1.293 9.382 5.225l6.81 25.419c1.055 3.933-1.454 8.128-5.51 9.214" overflow="visible" paint-order="stroke fill markers"/><path fill="#3584e4" d="m401 305.626-26.215 7.024c-4.056 1.086-8.327-1.293-9.381-5.226l-6.811-25.42c-1.054-3.932 1.456-8.126 5.511-9.212l26.215-7.025c4.056-1.086 8.325 1.293 9.379 5.226l6.81 25.419c1.055 3.933-1.452 8.127-5.509 9.214" overflow="visible" paint-order="stroke fill markers"/><path fill="#1a5fb4" d="M385.232 299.207a2.723 2.762 75.33 0 1-1.429.008l-7.46-1.95a2.723 2.762 75.33 0 1-1.945-1.922l-1.974-7.37a2.723 2.762 75.33 0 1 .723-2.634l5.485-5.42a2.723 2.762 75.33 0 1 2.668-.714l7.461 1.95a2.723 2.762 75.33 0 1 1.945 1.922l1.975 7.369a2.723 2.762 75.33 0 1-.724 2.635l-5.486 5.419a2.723 2.762 75.33 0 1-1.239.71z" overflow="visible" paint-order="fill markers stroke"/><path fill="none" stroke="#99c1f1" stroke-dashoffset="24.375" stroke-linecap="round" stroke-linejoin="round" stroke-width="6.242" d="m8477.477-2004.28 7.146-1.791" paint-order="fill markers stroke" transform="matrix(.80097 0 0 .801 -6425.82 1883.308)"/></g><g stroke-width="1.248" paint-order="stroke fill markers"><path fill="#613583" d="M315.105 322.795c-2.916.758-6.087-.783-6.959-3.38l-5.328-15.878c-.872-2.597.839-5.406 3.754-6.164l17.817-4.631c2.915-.758 6.087.783 6.96 3.38l5.328 15.877c.872 2.598-.84 5.407-3.755 6.166z" overflow="visible"/><path fill="#9141ac" d="M313.52 328.137c-2.915.758-6.086-.783-6.958-3.381l-5.328-15.877c-.872-2.597.84-5.407 3.755-6.165l17.816-4.63c2.915-.758 6.087.782 6.96 3.38l5.327 15.876c.873 2.599-.84 5.409-3.755 6.166z" overflow="visible"/><path fill="#613583" d="M320.26 319.356a2.427 2.143.48 0 1-1.499-.036l-6.063-1.906a2.427 2.143.48 0 1-1.617-2.078l.166-5.677a2.427 2.143.48 0 1 1.736-1.995l6.168-1.603a2.427 2.143.48 0 1 2.688.845l3.645 4.686a2.427 2.143.48 0 1-.075 2.518l-3.914 4.5a2.427 2.143.48 0 1-1.236.747z" overflow="visible"/></g><g stroke-width="1.248"><path fill="#865e3c" d="M342.5 354.237c-3.379.628-6.748-1.61-7.392-4.91l-3.932-20.166c-.644-3.299 1.646-6.588 5.024-7.216l20.647-3.841c3.378-.628 6.746 1.61 7.39 4.91l3.933 20.165c.644 3.3-1.644 6.588-5.024 7.217z" overflow="visible" paint-order="stroke fill markers"/><path fill="#b5835a" d="M361.515 312.85c3.378-.627 6.747 1.61 7.391 4.91l3.933 20.166c.644 3.3-1.646 6.589-5.025 7.217l-20.646 3.842c-3.379.628-6.747-1.61-7.39-4.91l-3.934-20.166c-.644-3.3 1.644-6.588 5.024-7.217z" overflow="visible" paint-order="stroke fill markers"/><text xml:space="preserve" x="8439.77" y="-367.628" fill="#865e3c" stroke-dashoffset="24.375" stroke-linecap="round" stroke-linejoin="round" stroke-width="8.739" font-family="Cantarell" font-size="28.583" font-weight="700" paint-order="fill markers stroke" style="-inkscape-font-specification:&quot;Cantarell Bold&quot;;text-align:center" transform="matrix(.79625 -.1476 .13763 .78024 -6318.62 1872.058)"><tspan x="8439.77" y="-367.628" font-weight="800" style="-inkscape-font-specification:&quot;Cantarell Ultra-Bold&quot;">?</tspan></text><path fill="none" stroke="#cdab8f" stroke-dashoffset="24.375" stroke-linecap="round" stroke-linejoin="round" stroke-width="3.745" d="m8314.45-1936.338 6.89-1.282" paint-order="fill markers stroke" transform="matrix(.80097 0 0 .801 -6318.62 1872.058)"/></g><g stroke-width="1.248"><path fill="#865e3c" d="M288.43 353.057c-3.393 1.414-7.422-.23-8.843-3.61l-8.678-20.653c-1.42-3.378.23-7.393 3.621-8.806l20.725-8.649c3.392-1.414 7.42.232 8.84 3.611l8.678 20.65c1.42 3.38-.227 7.394-3.62 8.808z" overflow="visible" paint-order="stroke fill markers"/><path fill="#b5835a" d="M287.893 308.871c3.392-1.415 7.422.23 8.843 3.61l8.678 20.652c1.42 3.378-.231 7.393-3.622 8.807l-20.724 8.648c-3.391 1.415-7.421-.23-8.841-3.61l-8.678-20.651c-1.42-3.379.227-7.393 3.62-8.808z" overflow="visible" paint-order="stroke fill markers"/><text xml:space="preserve" x="8549.69" y="1510.457" fill="#865e3c" stroke-dashoffset="24.375" stroke-linecap="round" stroke-linejoin="round" stroke-width="8.739" font-family="Cantarell" font-size="30.863" font-weight="700" paint-order="fill markers stroke" style="-inkscape-font-specification:&quot;Cantarell Bold&quot;;text-align:center" transform="matrix(.74013 -.3088 .30617 .7391 -6507.37 1863.432)"><tspan x="8549.69" y="1510.457" font-weight="800" style="-inkscape-font-specification:&quot;Cantarell Ultra-Bold&quot;">?</tspan></text></g><g stroke-width="1.248"><path fill="#26a269" d="M297.447 295.412c-4.494.621-8.78-2.608-9.404-7.085l-3.813-27.365c-.624-4.477 2.618-8.747 7.111-9.368l27.46-3.799c4.494-.621 8.78 2.608 9.404 7.086l3.81 27.364c.626 4.478-2.615 8.747-7.109 9.368z" overflow="visible" paint-order="stroke fill markers"/><path fill="#2ec27e" d="M290.181 291.206c-4.493.621-8.78-2.608-9.403-7.085l-3.813-27.365c-.624-4.478 2.618-8.747 7.111-9.368l27.46-3.799c4.494-.621 8.78 2.608 9.403 7.086l3.812 27.364c.624 4.478-2.616 8.747-7.11 9.369z" overflow="visible" paint-order="stroke fill markers"/><path fill="#26a269" d="M299.523 257.825a1.904 1.898 0 0 1 1.764.712l11.061 14.159a1.904 1.898 0 0 1-1.24 3.044l-17.836 2.467a1.904 1.898 0 0 1-2.025-2.592l6.773-16.626a1.904 1.898 0 0 1 1.503-1.165" overflow="visible" paint-order="stroke fill markers"/><path fill="none" stroke="#8ff0a4" stroke-dashoffset="24.375" stroke-linecap="round" stroke-linejoin="round" stroke-width="6.242" d="m8326.542-2043.571 10.202-1.618" paint-order="fill markers stroke" transform="matrix(.80097 0 0 .801 -6386.14 1889.79)"/></g><g stroke-width="1.248" transform="matrix(.80097 0 0 .801 -6381.05 1875.28)"><path fill="#e5a50a" d="M8270.178-1940.35c-5.357-1.43-8.641-7.099-7.206-12.437l8.772-32.624c1.435-5.34 7.123-8.611 12.48-7.18l32.74 8.742c5.357 1.43 8.64 7.099 7.206 12.437l-8.773 32.624c-1.435 5.339-7.122 8.61-12.48 7.18z" overflow="visible" paint-order="stroke fill markers"/><path fill="#f5c211" d="M8267.123-1950.514c-5.357-1.431-8.641-7.1-7.206-12.438l8.772-32.624c1.435-5.339 7.123-8.61 12.48-7.18l32.74 8.742c5.357 1.43 8.64 7.099 7.206 12.437l-8.773 32.624c-1.435 5.34-7.122 8.611-12.48 7.18z" overflow="visible" paint-order="stroke fill markers"/><ellipse cx="7493.994" cy="4044.207" fill="#e5a50a" paint-order="fill markers stroke" rx="13.331" ry="13.291" transform="matrix(.96615 .25797 .25967 -.9657 0 0)"/><path fill="none" stroke="#f9f06b" stroke-dashoffset="24.375" stroke-linecap="round" stroke-linejoin="round" stroke-width="6.242" d="m8280.391-1996.293 7.425 1.99" paint-order="fill markers stroke"/></g><path fill="none" stroke="#99c1f1" stroke-dashoffset="24.57" stroke-linecap="round" stroke-linejoin="round" stroke-opacity=".8" stroke-width="20.428" d="M8172.096-1977.884a63.9 63.9 0 0 0-19.764 36.056" paint-order="fill markers stroke" transform="matrix(.979 0 0 .97904 -7723.704 2163.778)"/><path fill="#99c1f1" d="M269.118 187.238c47.508-27.43 108.4-11.112 135.829 36.398S416.06 332.039 368.55 359.47s-108.397 11.114-135.826-36.397c-27.43-47.51-11.116-108.404 36.393-135.835m4.864 8.426c-42.955 24.8-57.634 79.588-32.833 122.545s79.583 57.636 122.539 32.835 57.633-79.586 32.833-122.543-79.583-57.638-122.539-32.837" overflow="visible" paint-order="fill markers stroke"/><path fill="none" stroke="#99c1f1" stroke-dashoffset="24.57" stroke-linecap="round" stroke-linejoin="round" stroke-opacity=".8" stroke-width="20.428" d="M8209.182-1994.288a64 64 0 0 0-10.601 1.908" paint-order="fill markers stroke" transform="matrix(.979 0 0 .97904 -7723.704 2163.778)"/><path fill="none" stroke="#fff" stroke-dashoffset="24.57" stroke-linecap="round" stroke-linejoin="round" stroke-opacity=".3" stroke-width="61.285" d="M8212.76-1990.23c-31.502 0-57.039 25.538-57.039 57.039" paint-order="fill markers stroke" transform="matrix(.979 0 0 .97904 -7723.704 2163.778)"/><g paint-order="fill markers stroke"><path fill="#e01b24" d="M263.404 350.546c-11.575 0-22.005 8.951-23.435 20.474-.94 11.256-3.142 22.425-4.385 33.663-.481 4.34 2.572 7.881 6.59 7.881h140.478c4.019 0 6.896-3.52 6.391-7.859-1.311-11.236-2.793-22.46-4.186-33.685-1.43-11.523-11.858-20.474-23.433-20.474z"/><path fill="none" stroke="#a51d2d" stroke-dashoffset="24.57" stroke-linecap="round" stroke-linejoin="round" stroke-width="12.582" d="M8150.58-1829.337h94.843" transform="matrix(.979 0 0 .97904 -7723.704 2163.778)"/><path fill="#a51d2d" d="M283.225 386.987c-8.92 0-16.102 7.815-16.102 17.523v6.17q0 .961.092 1.895h46.671q.092-.934.093-1.895v-6.17c0-9.708-7.182-17.524-16.103-17.524z"/><path fill="#c01c28" stroke="#f66151" stroke-dashoffset="24.57" stroke-linecap="round" stroke-linejoin="round" stroke-width="7.15" d="M8164.75-1844.014h20" transform="matrix(.979 0 0 .97904 -7723.704 2163.778)"/><path fill="#a51d2d" d="M343.765 350.558c11.525.063 21.882 8.993 23.306 20.473 1.393 11.226 2.875 22.45 4.186 33.685.506 4.338-2.372 7.86-6.39 7.86h30.813c4.018 0 6.897-3.522 6.39-7.86-1.31-11.236-2.792-22.459-4.185-33.685-1.43-11.522-11.857-20.473-23.433-20.473z"/></g><path fill="#fff" d="M263.856 178.598a3 3 0 0 0-3 3v.166a14.04 14.041 0 0 1-14.04 14.04h-.166a3 3 0 0 0 0 6h.166a14.04 14.041 0 0 1 14.04 14.041v.166a3 3 0 0 0 6 0v-.166a14.04 14.041 0 0 1 14.04-14.041h.167a3 3 0 0 0 0-6h-.168a14.04 14.041 0 0 1-14.04-14.04v-.166a3 3 0 0 0-3-3" overflow="visible" paint-order="fill markers stroke"/></g><g paint-order="fill markers stroke" transform="matrix(1.02857 0 0 1.02862 -8229.735 2252.447)"><rect width="54.367" height="13.596" x="8104.791" y="-1815.885" fill="#26a269" rx="5.143" ry="5.143"/><rect width="51.712" height="13.596" x="8124.406" y="-1815.885" fill="#2ec27e" rx="5.143" ry="5.143"/><rect width="54.366" height="13.596" x="8099.81" y="-1829.481" fill="#865e3c" rx="5.143" ry="5.143"/><rect width="51.713" height="13.596" x="8119.426" y="-1829.481" fill="#b5835a" rx="5.143" ry="5.143"/><rect width="54.366" height="13.596" x="8104.791" y="-1843.077" fill="#865e3c" rx="5.143" ry="5.143"/><rect width="51.713" height="13.596" x="8124.407" y="-1843.077" fill="#b5835a" rx="5.143" ry="5.143"/><rect width="54.366" height="13.596" x="8109.934" y="-1856.673" fill="#1a5fb4" rx="5.143" ry="5.143"/><rect width="51.713" height="13.596" x="8129.549" y="-1856.673" fill="#3584e4" rx="5.143" ry="5.143"/><rect width="54.366" height="13.596" x="8104.791" y="-1870.269" fill="#865e3c" rx="5.143" ry="5.143"/><rect width="51.713" height="13.596" x="8124.407" y="-1870.269" fill="#b5835a" rx="5.143" ry="5.143"/><rect width="54.366" height="13.596" x="8101.453" y="-1802.289" fill="#865e3c" rx="5.143" ry="5.143"/><rect width="51.713" height="13.596" x="8121.068" y="-1802.289" fill="#b5835a" rx="5.143" ry="5.143"/><path fill="#26a269" stroke="#cdab8f" stroke-dashoffset="24.375" stroke-linecap="round" stroke-linejoin="round" stroke-width="4.861" d="M8130.266-1864.91h10.813"/><path fill="none" stroke="#99c1f1" stroke-dashoffset="24.375" stroke-linecap="round" stroke-linejoin="round" stroke-width="4.861" d="M8135.409-1851.314h10.812"/><path fill="none" stroke="#cdab8f" stroke-dashoffset="24.375" stroke-linecap="round" stroke-linejoin="round" stroke-width="4.861" d="M8130.266-1837.718h10.813m-15.794 13.596h10.813"/><path fill="none" stroke="#8ff0a4" stroke-dashoffset="24.375" stroke-linecap="round" stroke-linejoin="round" stroke-width="4.861" d="M8130.266-1810.527h10.812"/><path fill="none" stroke="#cdab8f" stroke-dashoffset="24.375" stroke-linecap="round" stroke-linejoin="round" stroke-width="4.861" d="M8126.928-1796.93h10.812"/></g></g></svg>