<?xml version="1.0" encoding="UTF-8"?>
<svg height="128px" viewBox="0 0 128 128" width="128px" xmlns="http://www.w3.org/2000/svg" xmlns:xlink="http://www.w3.org/1999/xlink">
    <filter id="a" height="100%" width="100%" x="0%" y="0%">
        <feColorMatrix color-interpolation-filters="sRGB" values="0 0 0 0 1 0 0 0 0 1 0 0 0 0 1 0 0 0 1 0"/>
    </filter>
    <linearGradient id="b" gradientUnits="userSpaceOnUse" x1="31.8155411744" x2="115.5047757544" y1="57.7302192323" y2="57.7302192323">
        <stop offset="0" stop-color="#63452c"/>
        <stop offset="0.0426821" stop-color="#b5835a"/>
        <stop offset="0.08" stop-color="#63452c"/>
        <stop offset="0.92" stop-color="#63452c"/>
        <stop offset="0.96" stop-color="#b5835a"/>
        <stop offset="1" stop-color="#63452c"/>
    </linearGradient>
    <linearGradient id="c" gradientUnits="userSpaceOnUse" x1="12.02352594985" x2="96.05576259739" y1="73.98372071405" y2="73.98372071405">
        <stop offset="0" stop-color="#865e3c"/>
        <stop offset="0.04" stop-color="#cdab8f"/>
        <stop offset="0.08" stop-color="#865e3c"/>
        <stop offset="0.915042" stop-color="#865e3c"/>
        <stop offset="0.96" stop-color="#cdab8f"/>
        <stop offset="1" stop-color="#865e3c"/>
    </linearGradient>
    <clipPath id="d">
        <rect height="128" width="128"/>
    </clipPath>
    <clipPath id="e">
        <rect height="128" width="128"/>
    </clipPath>
    <mask id="f">
        <g filter="url(#a)">
            <g clip-path="url(#e)" filter="url(#a)">
                <g clip-path="url(#d)">
                    <path d="m 40.082031 15.875 h 67.5 c 4.566407 0 8.265625 3.703125 8.265625 8.265625 v 67.503906 c 0 4.5625 -3.699218 8.265625 -8.265625 8.265625 h -67.5 c -4.566406 0 -8.265625 -3.703125 -8.265625 -8.265625 v -67.503906 c 0 -4.5625 3.699219 -8.265625 8.265625 -8.265625 z m 0 0" fill="url(#b)"/>
                    <path d="m 40.082031 11.910156 h 67.5 c 4.566407 0 8.265625 3.699219 8.265625 8.265625 v 67.5 c 0 4.566407 -3.699218 8.265625 -8.265625 8.265625 h -67.5 c -4.566406 0 -8.265625 -3.699218 -8.265625 -8.265625 v -67.5 c 0 -4.566406 3.699219 -8.265625 8.265625 -8.265625 z m 0 0" fill="#b5835a"/>
                    <path d="m 44.96875 18.234375 h 57.726562 c 3.90625 0 7.070313 3.164063 7.070313 7.070313 v 57.726562 c 0 3.90625 -3.164063 7.070312 -7.070313 7.070312 h -57.726562 c -3.90625 0 -7.070312 -3.164062 -7.070312 -7.070312 v -57.726562 c 0 -3.90625 3.164062 -7.070313 7.070312 -7.070313 z m 0 0" fill="#986a44"/>
                    <path d="m 44.96875 18.234375 c -3.917969 0 -7.070312 3.152344 -7.070312 7.070313 v 1.421874 c 0 -3.917968 3.152343 -7.070312 7.070312 -7.070312 h 57.726562 c 3.917969 0 7.070313 3.152344 7.070313 7.070312 v -1.421874 c 0 -3.917969 -3.152344 -7.070313 -7.070313 -7.070313 z m 0 0" fill-opacity="0.15"/>
                    <path d="m 20.289062 31.96875 h 67.5 c 4.566407 0 8.265626 3.699219 8.265626 8.265625 v 67.5 c 0 4.566406 -3.699219 8.265625 -8.265626 8.265625 h -67.5 c -4.566406 0 -8.265624 -3.699219 -8.265624 -8.265625 v -67.5 c 0 -4.566406 3.699218 -8.265625 8.265624 -8.265625 z m 0 0" fill="url(#c)"/>
                    <path d="m 20.289062 28 h 67.5 c 4.566407 0 8.265626 3.699219 8.265626 8.265625 v 67.5 c 0 4.566406 -3.699219 8.265625 -8.265626 8.265625 h -67.5 c -4.566406 0 -8.265624 -3.699219 -8.265624 -8.265625 v -67.5 c 0 -4.566406 3.699218 -8.265625 8.265624 -8.265625 z m 0 0" fill="#cdab8f"/>
                    <path d="m 25.175781 34.324219 h 57.726563 c 3.90625 0 7.070312 3.167969 7.070312 7.070312 v 57.730469 c 0 3.902344 -3.164062 7.066406 -7.070312 7.066406 h -57.726563 c -3.90625 0 -7.070312 -3.164062 -7.070312 -7.066406 v -57.730469 c 0 -3.902343 3.164062 -7.070312 7.070312 -7.070312 z m 0 0" fill="#b5835a"/>
                    <path d="m 56.410156 45.765625 l 6.175782 8.179687 c 1.546874 2.046876 3.667968 3.585938 6.089843 4.421876 l 9.6875 3.347656 c 0.878907 0.304687 1.566407 1.003906 1.855469 1.890625 s 0.144531 1.855469 -0.390625 2.617187 l -5.871094 8.40625 c -1.464843 2.101563 -2.277343 4.589844 -2.324219 7.15625 l -0.191406 10.246094 c -0.015625 0.933594 -0.46875 1.800781 -1.222656 2.347656 c -0.753906 0.550782 -1.71875 0.710938 -2.609375 0.441406 l -9.808594 -2.988281 c -2.453125 -0.746093 -5.070312 -0.746093 -7.523437 0 l -9.804688 2.988281 c -0.890625 0.269532 -1.859375 0.109376 -2.613281 -0.441406 c -0.753906 -0.546875 -1.207031 -1.414062 -1.222656 -2.347656 l -0.191407 -10.246094 c -0.046874 -2.566406 -0.855468 -5.054687 -2.324218 -7.15625 l -5.871094 -8.40625 c -0.53125 -0.761718 -0.675781 -1.730468 -0.390625 -2.617187 c 0.289063 -0.886719 0.976563 -1.585938 1.855469 -1.890625 l 9.6875 -3.347656 c 2.425781 -0.835938 4.542968 -2.375 6.089844 -4.421876 l 6.175781 -8.179687 c 0.5625 -0.742187 1.441406 -1.179687 2.371093 -1.179687 c 0.933594 0 1.808594 0.4375 2.371094 1.179687 z m 0 0" fill="#986a44"/>
                    <path d="m 54.039062 44.585938 c -0.929687 0 -1.808593 0.4375 -2.367187 1.179687 l -6.179687 8.179687 c -1.546876 2.046876 -3.664063 3.585938 -6.085938 4.421876 l -9.691406 3.347656 c -1.453125 0.503906 -2.277344 2.03125 -1.90625 3.523437 c 0.238281 -0.980469 0.953125 -1.769531 1.90625 -2.101562 l 9.691406 -3.347657 c 2.421875 -0.835937 4.539062 -2.378906 6.085938 -4.421874 l 6.179687 -8.179688 c 0.558594 -0.746094 1.4375 -1.183594 2.367187 -1.183594 c 0.933594 0 1.808594 0.4375 2.371094 1.183594 l 6.175782 8.179688 c 1.546874 2.042968 3.667968 3.585937 6.089843 4.421874 l 9.6875 3.347657 c 0.953125 0.332031 1.667969 1.121093 1.910157 2.101562 c 0.367187 -1.492187 -0.457032 -3.019531 -1.910157 -3.523437 l -9.6875 -3.347656 c -2.421875 -0.835938 -4.542969 -2.375 -6.089843 -4.421876 l -6.175782 -8.179687 c -0.5625 -0.742187 -1.441406 -1.179687 -2.371094 -1.179687 z m 0 0" fill-opacity="0.15"/>
                    <path d="m 25.175781 34.324219 c -3.917969 0 -7.070312 3.152343 -7.070312 7.070312 v 1.421875 c 0 -3.917968 3.152343 -7.070312 7.070312 -7.070312 h 57.730469 c 3.914062 0 7.066406 3.152344 7.066406 7.070312 v -1.421875 c 0 -3.917969 -3.152344 -7.070312 -7.066406 -7.070312 z m 0 0" fill-opacity="0.15"/>
                </g>
            </g>
        </g>
    </mask>
    <mask id="g">
        <g filter="url(#a)">
            <rect fill-opacity="0.8" height="184.32" width="184.32" x="-28.16" y="-28.16"/>
        </g>
    </mask>
    <linearGradient id="h" gradientTransform="matrix(0 0.37 -0.98462 0 295.38501 -30.360001)" gradientUnits="userSpaceOnUse" x1="300" x2="428" y1="235" y2="235">
        <stop offset="0" stop-color="#f9f06b"/>
        <stop offset="1" stop-color="#f5c211"/>
    </linearGradient>
    <clipPath id="i">
        <rect height="128" width="128"/>
    </clipPath>
    <clipPath id="j">
        <rect height="128" width="128"/>
    </clipPath>
    <path d="m 40.082031 15.875 h 67.5 c 4.566407 0 8.265625 3.703125 8.265625 8.265625 v 67.503906 c 0 4.5625 -3.699218 8.265625 -8.265625 8.265625 h -67.5 c -4.566406 0 -8.265625 -3.703125 -8.265625 -8.265625 v -67.503906 c 0 -4.5625 3.699219 -8.265625 8.265625 -8.265625 z m 0 0" fill="url(#b)"/>
    <path d="m 40.082031 11.910156 h 67.5 c 4.566407 0 8.265625 3.699219 8.265625 8.265625 v 67.5 c 0 4.566407 -3.699218 8.265625 -8.265625 8.265625 h -67.5 c -4.566406 0 -8.265625 -3.699218 -8.265625 -8.265625 v -67.5 c 0 -4.566406 3.699219 -8.265625 8.265625 -8.265625 z m 0 0" fill="#b5835a"/>
    <path d="m 44.96875 18.234375 h 57.726562 c 3.90625 0 7.070313 3.164063 7.070313 7.070313 v 57.726562 c 0 3.90625 -3.164063 7.070312 -7.070313 7.070312 h -57.726562 c -3.90625 0 -7.070312 -3.164062 -7.070312 -7.070312 v -57.726562 c 0 -3.90625 3.164062 -7.070313 7.070312 -7.070313 z m 0 0" fill="#986a44"/>
    <path d="m 44.96875 18.234375 c -3.917969 0 -7.070312 3.152344 -7.070312 7.070313 v 1.421874 c 0 -3.917968 3.152343 -7.070312 7.070312 -7.070312 h 57.726562 c 3.917969 0 7.070313 3.152344 7.070313 7.070312 v -1.421874 c 0 -3.917969 -3.152344 -7.070313 -7.070313 -7.070313 z m 0 0" fill-opacity="0.15"/>
    <path d="m 20.289062 31.96875 h 67.5 c 4.566407 0 8.265626 3.699219 8.265626 8.265625 v 67.5 c 0 4.566406 -3.699219 8.265625 -8.265626 8.265625 h -67.5 c -4.566406 0 -8.265624 -3.699219 -8.265624 -8.265625 v -67.5 c 0 -4.566406 3.699218 -8.265625 8.265624 -8.265625 z m 0 0" fill="url(#c)"/>
    <path d="m 20.289062 28 h 67.5 c 4.566407 0 8.265626 3.699219 8.265626 8.265625 v 67.5 c 0 4.566406 -3.699219 8.265625 -8.265626 8.265625 h -67.5 c -4.566406 0 -8.265624 -3.699219 -8.265624 -8.265625 v -67.5 c 0 -4.566406 3.699218 -8.265625 8.265624 -8.265625 z m 0 0" fill="#cdab8f"/>
    <path d="m 25.175781 34.324219 h 57.726563 c 3.90625 0 7.070312 3.167969 7.070312 7.070312 v 57.730469 c 0 3.902344 -3.164062 7.066406 -7.070312 7.066406 h -57.726563 c -3.90625 0 -7.070312 -3.164062 -7.070312 -7.066406 v -57.730469 c 0 -3.902343 3.164062 -7.070312 7.070312 -7.070312 z m 0 0" fill="#b5835a"/>
    <path d="m 56.410156 45.765625 l 6.175782 8.179687 c 1.546874 2.046876 3.667968 3.585938 6.089843 4.421876 l 9.6875 3.347656 c 0.878907 0.304687 1.566407 1.003906 1.855469 1.890625 s 0.144531 1.855469 -0.390625 2.617187 l -5.871094 8.40625 c -1.464843 2.101563 -2.277343 4.589844 -2.324219 7.15625 l -0.191406 10.246094 c -0.015625 0.933594 -0.46875 1.800781 -1.222656 2.347656 c -0.753906 0.550782 -1.71875 0.710938 -2.609375 0.441406 l -9.808594 -2.988281 c -2.453125 -0.746093 -5.070312 -0.746093 -7.523437 0 l -9.804688 2.988281 c -0.890625 0.269532 -1.859375 0.109376 -2.613281 -0.441406 c -0.753906 -0.546875 -1.207031 -1.414062 -1.222656 -2.347656 l -0.191407 -10.246094 c -0.046874 -2.566406 -0.855468 -5.054687 -2.324218 -7.15625 l -5.871094 -8.40625 c -0.53125 -0.761718 -0.675781 -1.730468 -0.390625 -2.617187 c 0.289063 -0.886719 0.976563 -1.585938 1.855469 -1.890625 l 9.6875 -3.347656 c 2.425781 -0.835938 4.542968 -2.375 6.089844 -4.421876 l 6.175781 -8.179687 c 0.5625 -0.742187 1.441406 -1.179687 2.371093 -1.179687 c 0.933594 0 1.808594 0.4375 2.371094 1.179687 z m 0 0" fill="#986a44"/>
    <path d="m 54.039062 44.585938 c -0.929687 0 -1.808593 0.4375 -2.367187 1.179687 l -6.179687 8.179687 c -1.546876 2.046876 -3.664063 3.585938 -6.085938 4.421876 l -9.691406 3.347656 c -1.453125 0.503906 -2.277344 2.03125 -1.90625 3.523437 c 0.238281 -0.980469 0.953125 -1.769531 1.90625 -2.101562 l 9.691406 -3.347657 c 2.421875 -0.835937 4.539062 -2.378906 6.085938 -4.421874 l 6.179687 -8.179688 c 0.558594 -0.746094 1.4375 -1.183594 2.367187 -1.183594 c 0.933594 0 1.808594 0.4375 2.371094 1.183594 l 6.175782 8.179688 c 1.546874 2.042968 3.667968 3.585937 6.089843 4.421874 l 9.6875 3.347657 c 0.953125 0.332031 1.667969 1.121093 1.910157 2.101562 c 0.367187 -1.492187 -0.457032 -3.019531 -1.910157 -3.523437 l -9.6875 -3.347656 c -2.421875 -0.835938 -4.542969 -2.375 -6.089843 -4.421876 l -6.175782 -8.179687 c -0.5625 -0.742187 -1.441406 -1.179687 -2.371094 -1.179687 z m 0 0" fill-opacity="0.15"/>
    <path d="m 25.175781 34.324219 c -3.917969 0 -7.070312 3.152343 -7.070312 7.070312 v 1.421875 c 0 -3.917968 3.152343 -7.070312 7.070312 -7.070312 h 57.730469 c 3.914062 0 7.066406 3.152344 7.066406 7.070312 v -1.421875 c 0 -3.917969 -3.152344 -7.070312 -7.066406 -7.070312 z m 0 0" fill-opacity="0.15"/>
    <g mask="url(#f)">
        <g clip-path="url(#j)">
            <g mask="url(#g)">
                <g clip-path="url(#i)">
                    <path d="m 128 80.640625 v 47.359375 h -128 v -47.359375 z m 0 0" fill="url(#h)"/>
                    <path d="m 13.308594 80.640625 l 47.355468 47.359375 h 21.214844 l -47.359375 -47.359375 z m 42.421875 0 l 47.363281 47.359375 h 21.214844 l -47.363282 -47.359375 z m 42.429687 0 l 29.839844 29.839844 v -21.210938 l -8.628906 -8.628906 z m -98.160156 7.90625 v 21.214844 l 18.238281 18.238281 h 21.214844 z m 0 0"/>
                </g>
            </g>
        </g>
    </g>
</svg>
