<svg xmlns="http://www.w3.org/2000/svg" xmlns:xlink="http://www.w3.org/1999/xlink" width="128" height="128"><defs><linearGradient xlink:href="#a" id="c" x1="-210.167" x2="-130.167" y1="51.91" y2="51.91" gradientTransform="translate(246.015)" gradientUnits="userSpaceOnUse"/></defs><linearGradient id="a" x1="31.816" x2="115.505" y1="57.73" y2="57.73" gradientTransform="translate(108.482)" gradientUnits="userSpaceOnUse"><stop offset="0" stop-color="#63452c"/><stop offset=".043" stop-color="#b5835a"/><stop offset=".08" stop-color="#63452c"/><stop offset=".92" stop-color="#63452c"/><stop offset=".96" stop-color="#b5835a"/><stop offset="1" stop-color="#63452c"/></linearGradient><linearGradient id="b" x1="12.024" x2="96.056" y1="73.984" y2="73.984" gradientTransform="translate(.577 5.565)scale(.95203)" gradientUnits="userSpaceOnUse"><stop offset="0" stop-color="#865e3c"/><stop offset=".04" stop-color="#cdab8f"/><stop offset=".08" stop-color="#865e3c"/><stop offset=".915" stop-color="#865e3c"/><stop offset=".96" stop-color="#cdab8f"/><stop offset="1" stop-color="#865e3c"/></linearGradient><path fill="url(#b)" d="M43.717 15.879h64.262a7.867 7.867 0 0 1 7.869 7.869V88.01a7.867 7.867 0 0 1-7.87 7.869h-64.26a7.867 7.867 0 0 1-7.87-7.87v-64.26a7.867 7.867 0 0 1 7.87-7.87m0 0" style="fill:url(#c);stroke-width:.999997"/><path fill="#cdab8f" d="M43.717 11.91h64.262a7.867 7.867 0 0 1 7.869 7.87v64.26a7.867 7.867 0 0 1-7.87 7.87h-64.26a7.867 7.867 0 0 1-7.87-7.87V19.78a7.867 7.867 0 0 1 7.87-7.869m0 0" style="stroke-width:.999997;fill:#b5835a"/><path fill="#b5835a" d="M48.369 18.121h54.957a6.73 6.73 0 0 1 6.731 6.732v54.96a6.73 6.73 0 0 1-6.73 6.728H48.368a6.73 6.73 0 0 1-6.731-6.728v-54.96a6.73 6.73 0 0 1 6.731-6.732m0 0" style="stroke-width:.999997;fill:#986a44"/><path fill="#986a44" d="m78.105 28.824 5.88 7.787a12.3 12.3 0 0 0 5.797 4.21l9.223 3.187c.837.29 1.491.955 1.766 1.8a2.81 2.81 0 0 1-.371 2.491l-5.59 8.003c-1.394 2-2.168 4.37-2.213 6.813l-.182 9.755a2.82 2.82 0 0 1-1.164 2.235 2.82 2.82 0 0 1-2.484.42l-9.338-2.845a12.3 12.3 0 0 0-7.163 0l-9.334 2.845a2.83 2.83 0 0 1-3.652-2.655l-.182-9.755a12.3 12.3 0 0 0-2.213-6.813l-5.59-8.003a2.84 2.84 0 0 1-.371-2.491c.275-.845.93-1.51 1.766-1.8l9.223-3.187a12.3 12.3 0 0 0 5.798-4.21l5.88-7.787a2.83 2.83 0 0 1 4.515 0m0 0" style="stroke-width:.999997;fill:#63452c;fill-opacity:1"/><path fill-opacity=".15" d="M54.04 44.586c-.93 0-1.81.437-2.368 1.18l-6.18 8.18a12.9 12.9 0 0 1-6.086 4.421l-9.691 3.348a2.967 2.967 0 0 0-1.906 3.523c.238-.98.953-1.77 1.906-2.101l9.691-3.348a12.93 12.93 0 0 0 6.086-4.422l6.18-8.18a2.966 2.966 0 0 1 4.738 0l6.176 8.18a12.94 12.94 0 0 0 6.09 4.422l9.687 3.348a2.97 2.97 0 0 1 1.91 2.101 2.973 2.973 0 0 0-1.91-3.523l-9.687-3.348a12.9 12.9 0 0 1-6.09-4.422l-6.176-8.18a2.98 2.98 0 0 0-2.37-1.18M25.176 34.324a7.054 7.054 0 0 0-7.07 7.07v1.422a7.054 7.054 0 0 1 7.07-7.07h57.73a7.053 7.053 0 0 1 7.067 7.07v-1.421a7.053 7.053 0 0 0-7.067-7.07zm0 0" style="stroke-width:1.05039" transform="translate(24.401 -14.556)scale(.95203)"/><path fill="url(#b)" d="M19.893 36h64.261a7.867 7.867 0 0 1 7.87 7.87v64.26a7.867 7.867 0 0 1-7.87 7.87H19.893a7.867 7.867 0 0 1-7.87-7.87V43.87a7.867 7.867 0 0 1 7.87-7.87m0 0" style="fill:url(#b);stroke-width:.999997"/><path fill="#cdab8f" d="M19.893 32.031h64.261a7.867 7.867 0 0 1 7.87 7.87v64.261a7.867 7.867 0 0 1-7.87 7.87H19.893a7.867 7.867 0 0 1-7.87-7.87V39.9a7.867 7.867 0 0 1 7.87-7.869m0 0" style="stroke-width:.999997"/><path fill="#b5835a" d="M24.545 38.242h54.957a6.73 6.73 0 0 1 6.731 6.732v54.96a6.73 6.73 0 0 1-6.73 6.728H24.544a6.73 6.73 0 0 1-6.731-6.727V44.974a6.73 6.73 0 0 1 6.73-6.732m0 0" style="stroke-width:.999997"/><path fill="#986a44" d="m54.28 48.945 5.88 7.787a12.3 12.3 0 0 0 5.798 4.21l9.223 3.187c.836.29 1.491.955 1.766 1.8a2.81 2.81 0 0 1-.372 2.491l-5.59 8.003a12.3 12.3 0 0 0-2.212 6.813l-.182 9.755a2.82 2.82 0 0 1-1.164 2.235 2.82 2.82 0 0 1-2.484.42l-9.338-2.845a12.3 12.3 0 0 0-7.163 0l-9.334 2.845a2.83 2.83 0 0 1-3.652-2.655l-.182-9.755a12.3 12.3 0 0 0-2.213-6.813l-5.59-8.003a2.84 2.84 0 0 1-.371-2.491c.275-.845.93-1.51 1.766-1.8l9.223-3.187a12.3 12.3 0 0 0 5.798-4.21l5.88-7.787a2.83 2.83 0 0 1 4.515 0m0 0" style="stroke-width:.999997"/><path fill-opacity=".15" d="M54.04 44.586c-.93 0-1.81.437-2.368 1.18l-6.18 8.18a12.9 12.9 0 0 1-6.086 4.421l-9.691 3.348a2.967 2.967 0 0 0-1.906 3.523c.238-.98.953-1.77 1.906-2.101l9.691-3.348a12.93 12.93 0 0 0 6.086-4.422l6.18-8.18a2.966 2.966 0 0 1 4.738 0l6.176 8.18a12.94 12.94 0 0 0 6.09 4.422l9.687 3.348a2.97 2.97 0 0 1 1.91 2.101 2.973 2.973 0 0 0-1.91-3.523l-9.687-3.348a12.9 12.9 0 0 1-6.09-4.422l-6.176-8.18a2.98 2.98 0 0 0-2.37-1.18M25.176 34.324a7.054 7.054 0 0 0-7.07 7.07v1.422a7.054 7.054 0 0 1 7.07-7.07h57.73a7.053 7.053 0 0 1 7.067 7.07v-1.421a7.053 7.053 0 0 0-7.067-7.07zm0 0" style="stroke-width:1.05039" transform="translate(.577 5.565)scale(.95203)"/></svg>