<?xml version="1.0" encoding="UTF-8" standalone="no"?>
<svg
   height="128px"
   viewBox="0 0 128 128"
   width="128px"
   version="1.1"
   id="svg21"
   sodipodi:docname="io.github.basshift.Recall.svg"
   inkscape:version="1.4.3 (0d15f75042, 2025-12-25)"
   xmlns:inkscape="http://www.inkscape.org/namespaces/inkscape"
   xmlns:sodipodi="http://sodipodi.sourceforge.net/DTD/sodipodi-0.dtd"
   xmlns:xlink="http://www.w3.org/1999/xlink"
   xmlns="http://www.w3.org/2000/svg"
   xmlns:svg="http://www.w3.org/2000/svg">
  <defs
     id="defs21">
    <linearGradient
       id="a-2"
       gradientUnits="userSpaceOnUse"
       x1="31.81554"
       x2="115.50478"
       y1="57.730221"
       y2="57.730221"
       gradientTransform="translate(108.48227)">
      <stop
         offset="0"
         stop-color="#63452c"
         id="stop1-3" />
      <stop
         offset="0.0426821"
         stop-color="#b5835a"
         id="stop2-7" />
      <stop
         offset="0.08"
         stop-color="#63452c"
         id="stop3-5" />
      <stop
         offset="0.92"
         stop-color="#63452c"
         id="stop4-9" />
      <stop
         offset="0.96"
         stop-color="#b5835a"
         id="stop5-2" />
      <stop
         offset="1"
         stop-color="#63452c"
         id="stop6-2" />
    </linearGradient>
    <linearGradient
       inkscape:collect="always"
       xlink:href="#a"
       id="linearGradient37"
       gradientUnits="userSpaceOnUse"
       gradientTransform="translate(246.01454)"
       x1="-210.16687"
       y1="51.910164"
       x2="-130.16689"
       y2="51.910164" />
  </defs>
  <sodipodi:namedview
     id="namedview21"
     pagecolor="#ffffff"
     bordercolor="#000000"
     borderopacity="0.25"
     inkscape:showpageshadow="2"
     inkscape:pageopacity="0.0"
     inkscape:pagecheckerboard="0"
     inkscape:deskcolor="#d1d1d1"
     showguides="true"
     inkscape:zoom="1"
     inkscape:cx="39.5"
     inkscape:cy="29"
     inkscape:window-width="1920"
     inkscape:window-height="1014"
     inkscape:window-x="0"
     inkscape:window-y="0"
     inkscape:window-maximized="1"
     inkscape:current-layer="svg21">
    <sodipodi:guide
       position="87.789062,12"
       orientation="0,-1"
       id="guide21"
       inkscape:locked="false" />
    <sodipodi:guide
       position="78.926123,15.96875"
       orientation="0,-1"
       id="guide22"
       inkscape:locked="false" />
    <sodipodi:guide
       position="12.023438,54.015625"
       orientation="1,0"
       id="guide23"
       inkscape:locked="false" />
    <sodipodi:guide
       position="115.84766,82.053191"
       orientation="1,0"
       id="guide24"
       inkscape:locked="false" />
    <sodipodi:guide
       position="94.358747,116.08984"
       orientation="0,-1"
       id="guide25"
       inkscape:locked="false" />
  </sodipodi:namedview>
  <linearGradient
     id="a"
     gradientUnits="userSpaceOnUse"
     x1="31.8155411744"
     x2="115.5047757544"
     y1="57.7302192323"
     y2="57.7302192323"
     gradientTransform="translate(108.48227)">
    <stop
       offset="0"
       stop-color="#63452c"
       id="stop1" />
    <stop
       offset="0.0426821"
       stop-color="#b5835a"
       id="stop2" />
    <stop
       offset="0.08"
       stop-color="#63452c"
       id="stop3" />
    <stop
       offset="0.92"
       stop-color="#63452c"
       id="stop4" />
    <stop
       offset="0.96"
       stop-color="#b5835a"
       id="stop5" />
    <stop
       offset="1"
       stop-color="#63452c"
       id="stop6" />
  </linearGradient>
  <linearGradient
     id="b"
     gradientUnits="userSpaceOnUse"
     x1="12.02352594985"
     x2="96.05576259739"
     y1="73.98372071405"
     y2="73.98372071405"
     gradientTransform="matrix(0.95202674,0,0,0.95202674,0.57680341,5.5648884)">
    <stop
       offset="0"
       stop-color="#865e3c"
       id="stop7" />
    <stop
       offset="0.04"
       stop-color="#cdab8f"
       id="stop8" />
    <stop
       offset="0.08"
       stop-color="#865e3c"
       id="stop9" />
    <stop
       offset="0.915042"
       stop-color="#865e3c"
       id="stop10" />
    <stop
       offset="0.96"
       stop-color="#cdab8f"
       id="stop11" />
    <stop
       offset="1"
       stop-color="#865e3c"
       id="stop12" />
  </linearGradient>
  <g
     id="g37">
    <path
       d="m 43.716758,15.878906 h 64.261802 c 4.34734,0 7.8691,3.521755 7.8691,7.869096 v 64.26182 c 0,4.34733 -3.52176,7.86909 -7.8691,7.86909 H 43.716758 c -4.347341,0 -7.869095,-3.52176 -7.869095,-7.86909 v -64.26182 c 0,-4.347341 3.521754,-7.869096 7.869095,-7.869096 z m 0,0"
       fill="url(#b)"
       id="path31"
       style="fill:url(#linearGradient37);stroke-width:0.999997" />
    <path
       d="m 43.716758,11.91016 h 64.261802 c 4.34734,0 7.8691,3.521755 7.8691,7.869096 v 64.261816 c 0,4.34733 -3.52176,7.86909 -7.8691,7.86909 H 43.716758 c -4.347341,0 -7.869095,-3.52176 -7.869095,-7.86909 V 19.779256 c 0,-4.347341 3.521754,-7.869096 7.869095,-7.869096 z m 0,0"
       fill="#cdab8f"
       id="path32"
       style="stroke-width:0.999997;fill:#b5835a" />
    <path
       d="m 48.369044,18.121375 h 54.957236 c 3.71885,0 6.73112,3.015992 6.73112,6.731125 v 54.960942 c 0,3.71514 -3.01227,6.72742 -6.73112,6.72742 H 48.369044 c -3.718854,0 -6.731125,-3.01228 -6.731125,-6.72742 V 24.8525 c 0,-3.715133 3.012271,-6.731125 6.731125,-6.731125 z m 0,0"
       fill="#b5835a"
       id="path33"
       style="stroke-width:0.999997;fill:#986a44" />
    <path
       d="m 78.105006,28.823509 5.879509,7.787282 c 1.472665,1.948681 3.492003,3.413908 5.797694,4.209743 l 9.222759,3.187059 c 0.836742,0.29007 1.491262,0.955746 1.766452,1.799925 0.2752,0.844181 0.1376,1.766456 -0.37188,2.491632 l -5.58944,8.002976 c -1.39457,2.000744 -2.168092,4.369654 -2.212719,6.812941 l -0.182223,9.754556 c -0.01489,0.888805 -0.446263,1.714391 -1.164002,2.23503 -0.717739,0.524359 -1.636296,0.676832 -2.484195,0.42023 L 79.428918,72.67996 c -2.335442,-0.7103 -4.827073,-0.7103 -7.162513,0 l -9.334326,2.844923 c -0.847898,0.256602 -1.770175,0.104133 -2.487913,-0.42023 -0.717739,-0.520639 -1.149126,-1.346225 -1.164002,-2.23503 L 59.09794,63.115067 C 59.05333,60.67178 58.283512,58.30287 56.885222,56.302126 L 51.295784,48.29915 c -0.505764,-0.725176 -0.643361,-1.647451 -0.371885,-2.491632 0.275195,-0.844179 0.929713,-1.509855 1.766455,-1.799925 l 9.22276,-3.187059 c 2.309408,-0.795835 4.325027,-2.261062 5.797695,-4.209743 l 5.879507,-7.787282 c 0.535515,-0.70658 1.372258,-1.123094 2.257345,-1.123094 0.888806,0 1.72183,0.416514 2.257345,1.123094 z m 0,0"
       fill="#986a44"
       id="path34"
       style="stroke-width:0.999997;fill:#63452c;fill-opacity:1" />
    <g
       fill-opacity="0.15"
       id="g36"
       transform="matrix(0.95202674,0,0,0.95202674,24.401028,-14.5562)"
       style="stroke-width:1.05039">
      <path
         d="m 54.039062,44.585938 c -0.929687,0 -1.808593,0.4375 -2.367187,1.179687 l -6.179687,8.179687 c -1.546876,2.046876 -3.664063,3.585938 -6.085938,4.421876 l -9.691406,3.347656 c -1.453125,0.503906 -2.277344,2.03125 -1.90625,3.523437 0.238281,-0.980469 0.953125,-1.769531 1.90625,-2.101562 l 9.691406,-3.347657 c 2.421875,-0.835937 4.539062,-2.378906 6.085938,-4.421874 L 51.671875,47.1875 c 0.558594,-0.746094 1.4375,-1.183594 2.367187,-1.183594 0.933594,0 1.808594,0.4375 2.371094,1.183594 l 6.175782,8.179688 c 1.546874,2.042968 3.667968,3.585937 6.089843,4.421874 l 9.6875,3.347657 c 0.953125,0.332031 1.667969,1.121093 1.910157,2.101562 0.367187,-1.492187 -0.457032,-3.019531 -1.910157,-3.523437 l -9.6875,-3.347656 c -2.421875,-0.835938 -4.542969,-2.375 -6.089843,-4.421876 l -6.175782,-8.179687 c -0.5625,-0.742187 -1.441406,-1.179687 -2.371094,-1.179687 z m 0,0"
         id="path35"
         style="stroke-width:1.05039" />
      <path
         d="m 25.175781,34.324219 c -3.917969,0 -7.070312,3.152343 -7.070312,7.070312 v 1.421875 c 0,-3.917968 3.152343,-7.070312 7.070312,-7.070312 H 82.90625 c 3.914062,0 7.066406,3.152344 7.066406,7.070312 v -1.421875 c 0,-3.917969 -3.152344,-7.070312 -7.066406,-7.070312 z m 0,0"
         id="path36"
         style="stroke-width:1.05039" />
    </g>
  </g>
  <path
     d="m 19.892533,35.999994 h 64.261805 c 4.347341,0 7.869097,3.521755 7.869097,7.869096 v 64.26182 c 0,4.34733 -3.521756,7.86909 -7.869097,7.86909 H 19.892533 c -4.347341,0 -7.869095,-3.52176 -7.869095,-7.86909 V 43.86909 c 0,-4.347341 3.521754,-7.869096 7.869095,-7.869096 z m 0,0"
     fill="url(#b)"
     id="path16"
     style="fill:url(#b);stroke-width:0.999997" />
  <path
     d="m 19.892533,32.031248 h 64.261805 c 4.347341,0 7.869097,3.521755 7.869097,7.869096 v 64.261816 c 0,4.34733 -3.521756,7.86909 -7.869097,7.86909 H 19.892533 c -4.347341,0 -7.869095,-3.52176 -7.869095,-7.86909 V 39.900344 c 0,-4.347341 3.521754,-7.869096 7.869095,-7.869096 z m 0,0"
     fill="#cdab8f"
     id="path17"
     style="stroke-width:0.999997" />
  <path
     d="m 24.544819,38.242463 h 54.957233 c 3.718854,0 6.731125,3.015992 6.731125,6.731125 V 99.93453 c 0,3.71514 -3.012271,6.72742 -6.731125,6.72742 H 24.544819 c -3.718854,0 -6.731125,-3.01228 -6.731125,-6.72742 V 44.973588 c 0,-3.715133 3.012271,-6.731125 6.731125,-6.731125 z m 0,0"
     fill="#b5835a"
     id="path18"
     style="stroke-width:0.999997" />
  <path
     d="m 54.280781,48.944597 5.879509,7.787282 c 1.472665,1.948681 3.492003,3.413908 5.797694,4.209743 l 9.222759,3.187059 c 0.836742,0.29007 1.491261,0.955746 1.766455,1.799925 0.275196,0.844181 0.137599,1.766456 -0.371885,2.491632 l -5.589438,8.002976 c -1.39457,2.000744 -2.168092,4.369654 -2.212719,6.812941 l -0.182223,9.754556 c -0.01489,0.888805 -0.446263,1.714391 -1.164002,2.23503 -0.717739,0.524359 -1.636296,0.676832 -2.484195,0.42023 l -9.338043,-2.844923 c -2.335442,-0.7103 -4.827073,-0.7103 -7.162513,0 l -9.334326,2.844923 c -0.847898,0.256602 -1.770175,0.104133 -2.487913,-0.42023 -0.717739,-0.520639 -1.149126,-1.346225 -1.164002,-2.23503 l -0.182224,-9.754556 c -0.04461,-2.443287 -0.814428,-4.812197 -2.212718,-6.812941 l -5.589438,-8.002976 c -0.505764,-0.725176 -0.643361,-1.647451 -0.371885,-2.491632 0.275195,-0.844179 0.929713,-1.509855 1.766455,-1.799925 l 9.22276,-3.187059 c 2.309408,-0.795835 4.325027,-2.261062 5.797695,-4.209743 l 5.879507,-7.787282 c 0.535515,-0.70658 1.372258,-1.123094 2.257345,-1.123094 0.888806,0 1.72183,0.416514 2.257345,1.123094 z m 0,0"
     fill="#986a44"
     id="path19"
     style="stroke-width:0.999997" />
  <g
     fill-opacity="0.15"
     id="g21"
     transform="matrix(0.95202674,0,0,0.95202674,0.57680335,5.5648883)"
     style="stroke-width:1.05039">
    <path
       d="m 54.039062,44.585938 c -0.929687,0 -1.808593,0.4375 -2.367187,1.179687 l -6.179687,8.179687 c -1.546876,2.046876 -3.664063,3.585938 -6.085938,4.421876 l -9.691406,3.347656 c -1.453125,0.503906 -2.277344,2.03125 -1.90625,3.523437 0.238281,-0.980469 0.953125,-1.769531 1.90625,-2.101562 l 9.691406,-3.347657 c 2.421875,-0.835937 4.539062,-2.378906 6.085938,-4.421874 L 51.671875,47.1875 c 0.558594,-0.746094 1.4375,-1.183594 2.367187,-1.183594 0.933594,0 1.808594,0.4375 2.371094,1.183594 l 6.175782,8.179688 c 1.546874,2.042968 3.667968,3.585937 6.089843,4.421874 l 9.6875,3.347657 c 0.953125,0.332031 1.667969,1.121093 1.910157,2.101562 0.367187,-1.492187 -0.457032,-3.019531 -1.910157,-3.523437 l -9.6875,-3.347656 c -2.421875,-0.835938 -4.542969,-2.375 -6.089843,-4.421876 l -6.175782,-8.179687 c -0.5625,-0.742187 -1.441406,-1.179687 -2.371094,-1.179687 z m 0,0"
       id="path20"
       style="stroke-width:1.05039" />
    <path
       d="m 25.175781,34.324219 c -3.917969,0 -7.070312,3.152343 -7.070312,7.070312 v 1.421875 c 0,-3.917968 3.152343,-7.070312 7.070312,-7.070312 H 82.90625 c 3.914062,0 7.066406,3.152344 7.066406,7.070312 v -1.421875 c 0,-3.917969 -3.152344,-7.070312 -7.066406,-7.070312 z m 0,0"
       id="path21"
       style="stroke-width:1.05039" />
  </g>
</svg>
